<svg xmlns="http://www.w3.org/2000/svg" width="500" height="500" viewBox="0 0 500 500" preserveAspectRatio="true">
<path d="M440.704,59.29c-15.712-15.715-34.642-23.575-56.774-23.575H116.07c-22.133,0-41.062,7.859-56.781,23.575
	C43.578,75.008,35.718,93.938,35.718,116.07v267.855c0,22.134,7.859,41.062,23.571,56.781
	c15.718,15.719,34.648,23.578,56.781,23.578H383.93c22.133,0,41.062-7.859,56.774-23.578c15.719-15.719,23.578-34.647,23.578-56.781
	V116.07C464.282,93.938,456.423,75.005,440.704,59.29z M400.391,256.134h-48.828V433.31h-73.102V256.134h-36.554V195.03h36.554
	v-36.552c0-26.229,6.141-46.037,18.414-59.432s32.548-20.088,60.824-20.088h48.828v61.105H375.84
	c-10.418,0-17.066,1.811-19.953,5.441c-2.883,3.627-4.324,9.998-4.324,19.113v30.412h55.246L400.391,256.134z"/>
</svg>
