<svg xmlns="http://www.w3.org/2000/svg" width="500" height="500" viewBox="0 0 500 500" preserveAspectRatio="true">
<g>
	<rect x="41.012" y="178.294" width="92.078" height="276.502"/>
	<path d="M435.263,203.551c-19.337-21.113-44.922-31.671-76.728-31.671c-11.719,0-22.367,1.441-31.952,4.326
		c-9.578,2.883-17.665,6.928-24.273,12.137c-6.602,5.209-11.859,10.045-15.762,14.506c-3.713,4.239-7.341,9.175-10.883,14.76
		v-39.318h-91.8l0.281,13.395c0.191,8.931,0.281,36.459,0.281,82.588c0,46.133-0.184,106.305-0.556,180.523h91.794V300.5
		c0-9.484,1.02-17.016,3.066-22.602c3.913-9.491,9.81-17.438,17.719-23.852c7.909-6.423,17.719-9.632,29.44-9.632
		c15.996,0,27.762,5.533,35.297,16.602c7.531,11.066,11.301,26.367,11.301,45.898v147.876h91.797V296.32
		C464.278,255.578,454.61,224.658,435.263,203.551z"/>
	<path d="M87.61,45.203c-15.438,0-27.946,4.513-37.528,13.533C40.5,67.757,35.715,79.146,35.715,92.914
		c0,13.575,4.648,24.926,13.949,34.038c9.298,9.113,21.575,13.672,36.829,13.672h0.559c15.625,0,28.23-4.555,37.808-13.672
		c9.579-9.112,14.274-20.458,14.09-34.038c-0.187-13.768-4.933-25.157-14.23-34.178C115.422,49.713,103.047,45.203,87.61,45.203z"/>
</g>
</svg>
