<svg xmlns="http://www.w3.org/2000/svg" width="500" height="500" viewBox="0 0 500 500" preserveAspectRatio="true">

		<path d="M303.82,258.91l0.14-1.91H195.18l0.14,1.91l-9.75,98.75l62.42,7.15v-4.09l63.53-6.71l-8.26-92.77
			C303.44,260.46,303.82,259.71,303.82,258.91z"/>
		<polygon fill="#FFFFFF" points="313.42,350.43 252,356.44 252,304.92 252,178.67 272,161.11 269.18,150.75 280.66,142.21 
			275.01,128.79 269.71,127.47 249.32,181.68 228.91,127.47 223.6,128.79 217.9,142.21 229.3,150.75 226.05,161.11 245,178.27 
			245,304.92 245,357.15 245,360.78 185.96,354.04 184.92,361.19 252,368.85 252,363.67 313.95,357.6 			"/>
</svg>
