<svg xmlns="http://www.w3.org/2000/svg" width="500" height="500" viewBox="0 0 500 500" preserveAspectRatio="true">

	<path fill="#FFFFFF" d="M351.43,200.62c-46.15,0-83.7,37.55-83.7,83.7c0,46.15,37.55,83.7,83.7,83.7
		c46.15,0,83.69-37.55,83.69-83.7C435.12,238.16,397.58,200.62,351.43,200.62L351.43,200.62z"/>
	<path fill="currentColor" d="M352,215.41v68.4l61.2-27C413.2,256.81,409,222.61,352,215.41z"/>
	<path fill="#FFFFFF" d="M351.43,243.65l-1.74,6.63l-8.28,31.49c-0.63,0.6-1.18,1.74-1.18,3.9
		c0,6,4.81,10.52,11.2,10.52c6.49,0,11.19-4.28,11.19-10.18c0-1.94-0.42-3.39-1.17-4.19l-8.28-31.53L351.43,243.65L351.43,243.65z"
		/>
	<path d="M359.84,284h0.04l-8.45-32.17L342.98,284h0.04c-0.61,0-0.98,0.73-0.98,2.21
		c0,5.19,4.21,8.45,9.4,8.45c5.19,0,9.39-2.78,9.39-7.97C360.82,285.2,360.45,284,359.84,284z"/>
	<path fill="#FFFFFF" d="M403.88,260.85l-8.98,2.05l-46.21,10.55c-0.3,0.05-1.37,0.24-2.2,0.6
		c-5.62,2.5-8.04,8.95-5.49,14.68c1.83,4.11,5.78,6.77,10.08,6.77c1.5,0,2.97-0.32,4.38-0.94c0.84-0.38,1.79-1.09,2.01-1.26
		l38.85-27.18L403.88,260.85L403.88,260.85z"/>
	<path d="M356.42,291.86l38.88-27.21l-46.27,10.56c0,0-1.08,0.16-1.81,0.49
		c-4.74,2.1-6.68,7.56-4.57,12.3c2.1,4.74,7.35,7.02,12.09,4.92C355.47,292.6,356.42,291.86,356.42,291.86z"/>
	<path d="M351.43,206.02c-43.24,0-78.3,35.05-78.3,78.3c0,43.24,35.05,78.3,78.3,78.3
		c43.24,0,78.29-35.05,78.29-78.3C429.72,241.07,394.67,206.02,351.43,206.02z M355,348.1V338h-7v10.11
		c-32-1.75-57.83-28.11-60.26-58.11H298v-8h-10.41c1.18-34,28.41-59.68,60.41-61.48V232h7v-11.47c33,1.87,59.09,27.47,60.27,61.47
		H406v8h9.12C412.7,320,388,346.28,355,348.1z"/>
</svg>
