<svg xmlns="http://www.w3.org/2000/svg" width="500" height="500" viewBox="0 0 500 500" preserveAspectRatio="true">


	<path fill="#FFFFFF" d="M259.13,147.97l-3.9,2.39c-1.34-1.34-3.19-2.17-5.23-2.17c-2.04,0-3.89,0.83-5.23,2.17
		l-3.9-2.39c-4.86-3.04-8.27-1.65-8.27,0v7.6v7.6c0,1.65,3.4,3.04,8.27,0l3.9-2.39c1.34,1.34,3.19,2.17,5.23,2.17
		c2.04,0,3.89-0.83,5.23-2.17l3.9,2.39c4.86,3.04,8.27,1.65,8.27,0v-7.6v-7.6C267.4,146.32,264,144.93,259.13,147.97z"/>
	<path fill="#FFFFFF" d="M255.16,188.77c0,2.85-2.31,5.15-5.15,5.15c-2.85,0-5.16-2.31-5.16-5.15
		c0-2.85,2.31-5.16,5.16-5.16C252.85,183.61,255.16,185.92,255.16,188.77z"/>
	<path fill="#FFFFFF" d="M255.16,217.27c0,2.84-2.31,5.15-5.15,5.15c-2.85,0-5.16-2.31-5.16-5.15
		c0-2.85,2.31-5.16,5.16-5.16C252.85,212.11,255.16,214.42,255.16,217.27z"/>
	<path fill="#FFFFFF" d="M255.16,245.77c0,2.85-2.31,5.15-5.15,5.15c-2.85,0-5.16-2.31-5.16-5.15
		c0-2.85,2.31-5.16,5.16-5.16C252.85,240.61,255.16,242.92,255.16,245.77z"/>

</svg>
