<svg xmlns="http://www.w3.org/2000/svg" width="500" height="500" viewBox="0 0 500 500" preserveAspectRatio="true">

	<path d="M297.24,72.79c-1.55-25.28-22.19-45.33-47.52-45.33c-25.48,0-46.22,20.28-47.55,45.77
		c-0.04,0.25-0.08,0.99-0.06,1.11c-0.01,0.34,0.17,1,0.17,1c1.31,4.37,8.87,8.18,19.9,10.59c1.41,6.57,13.17,11.7,27.55,11.7
		c14.38,0,26.12-5.13,27.55-11.69c11.05-2.41,18.63-6.23,19.94-10.6c0,0,0.13-0.53,0.13-0.79
		C297.36,74.36,297.34,73.19,297.24,72.79z"/>
	<path fill="#FFFFFF" d="M286.73,83.22c-2.74,1.03-5.92,1.95-9.46,2.72c-1.43,6.56-13.17,11.69-27.55,11.69
		c-14.38,0-26.13-5.13-27.55-11.7c-3.54-0.77-6.72-1.69-9.45-2.73c-0.24,1.82-0.37,3.68-0.37,5.58c0,0.65,0.02,1.31,0.05,1.95
		c1.47,0.49,3.04,0.95,4.7,1.39c4.91,7.67,17.38,12.71,32.63,12.71c13.19,0,27.36-3.97,32.71-12.72c1.63-0.43,3.17-0.88,4.62-1.37
		c0.03-0.65,0.05-1.31,0.05-1.96C287.1,86.9,286.97,85.04,286.73,83.22z"/>
</svg>
