<svg xmlns="http://www.w3.org/2000/svg" width="500" height="500" viewBox="0 0 500 500" preserveAspectRatio="true">

	<path fill="#FFFFFF" d="M353.74,100C353.74,100,353.74,100,353.74,100c-5.16,0-9.69,3.99-10.75,9.04
		l-13.77,65.06c-0.67,3.18,0.29,5.56,1.21,6.93c1.11,1.65,2.54,2.63,3.9,3.19l-7.69,39.35l-0.88,4.52l3.71,2.71
		c1.64,1.2,3.6,3.04,4.13,3.86l11.59,9.17l2.16-10.32l9.29-44.34l2.47,0.52l-8.66,70.52l-0.88,7.15l7.15,0.88l8.48,1.04l7.15,0.88
		l0.88-7.14l8.57-69.8c3.83-1.1,6.9-4.24,7.75-8.27l7.56-35.62l1.33-6.27l0,0l1.49-7.04l2.96-13.93
		c1.25-5.93-2.54-11.78-8.47-13.04l-38.38-8.46C355.28,100.4,354.51,100,353.74,100L353.74,100L353.74,100z M359.83,140.5
		l2.92-13.77l14.7,3.12l-0.28,1.21l-1.5,6.94h0l-1.15,5.51L359.83,140.5L359.83,140.5z"/>
	<path fill="currentColor" d="M357.6,261.07l8.48,1.04l9.38-76.33l2.55,0.54
		c2.05,0.43,4.06-0.85,4.5-2.9l7.55-35.62l-8.67-1.84l-0.82,3.86c-0.27,1.29-1.54,2.11-2.82,1.84l-24.12-5.12
		c-1.29-0.27-2.11-1.54-1.83-2.82l4.92-23.2c0.27-1.29,1.54-2.11,2.83-1.83l24.13,5.12c1.29,0.27,2.11,1.54,1.83,2.82l-1.28,6.03
		l8.67,1.84l2.96-13.93c0.43-2.05-0.88-4.07-2.93-4.5l-38.38-8.14c-2.05-0.44-4.07,0.88-4.5,2.93l-13.77,64.91
		c-0.43,2.05,1.32,1.99,3.37,2.42l3.1,0.66l-9.02,46.13c0,0,5.52,4.01,6.6,7.05l10.77-51.41l15.99,3.39L357.6,261.07z"/>
</svg>
