<svg xmlns="http://www.w3.org/2000/svg" width="500" height="500" viewBox="0 0 500 500" preserveAspectRatio="true">

	<path fill="#FFFFFF" d="M411.03,189.85c-0.01,0-4.09-2.02-10.63-5.26c-6.5,2.06-9.72,7.23-8.69,14.34l0.09,0.62
		c1.06,7.32,6.33,14.74,14.33,14.74c0.6,0,1.21-0.05,1.82-0.13l4.61-0.67C417.52,203.39,416.91,192.93,411.03,189.85z"/>
	<path fill="currentColor" d="M443.65,172.43l24.68-15.8l1.22-5.55l23.02-8.11L476,161.15l-4.5-0.14
		l-25.12,16.08c0.92,3.68-0.57,6.77-3.4,8.59l-33.27,21.29c-3.73,2.39-8.41-0.73-10.8-4.46l-0.33-0.52
		c-2.39-3.73-1.33-6.27,2.4-8.66l33.26-21.29C437.27,170.1,440.83,169.96,443.65,172.43z"/>
</svg>
