<svg xmlns="http://www.w3.org/2000/svg" width="500" height="500" viewBox="0 0 500 500" preserveAspectRatio="true">

	<g>
		<g>
			<path fill="currentColor" d="M339.53,96.75c-20.61,0-37.38,17.89-37.38,39.88s16.77,39.88,37.38,39.88
				c20.61,0,37.38-17.89,37.38-39.88S360.14,96.75,339.53,96.75z"/>
		</g>
		<g>
			<path fill="currentColor" d="M388,327.41v-12.4l1.73-23.27l0.66-11.65l2.01-28.32c1.05-0.64,1.62-0.99,1.62-0.99
				c11.45-11.41,16.17-42.52-1.15-57.01c0,0,0,0,0,0c-3.84-4.1-9.2-7.71-15.69-10.61c-4.47-2.35-9.62-4.31-15.24-5.84
				c-6.59,4.06-14.24,6.4-22.41,6.4c-9.94,0-19.12-3.45-26.54-9.28c-14.08,2.91-36.54,11.33-46.27,32.61
				c-0.58,1.7-1.07,3.47-1.49,5.18c-17.1,1.75-28.8,2.98-28.8,2.98c-6.79,0.6-11.46,10.53-10.41,22.17
				c1.04,11.63,4.97,16.37,11.01,18.21l22.08-0.79c-3.55,26.83-7.97,60.34-7.98,60.38c-0.56,6.79,7.64,13.25,19.29,14.22
				c0.95,0.04,1.83,0.06,2.69,0.06c0.14,0,0.29,0,0.43,0c0.87,0,1.7,0,2.49-0.03c0.47-0.02,0.92-0.04,1.36-0.07
				c0.1-0.01,0.2-0.01,0.3-0.02c0.75-0.05,1.45,0.07,2.13-0.02L272.79,479h0.02c0,0-0.02-0.05-0.02,0.03
				c0,8.82,12.26,15.88,27.39,15.88c15.13,0,30.99-6.99,30.99-15.81c0-0.09-0.02-0.09-0.03-0.09h0.1c0,0,2.36-120.7,2.36-121.29
				c0-1.92,1.56-3.58,3.48-3.58c1.92,0,3.48,1.41,3.48,3.33c0,0.5,2.42,106.54,2.42,106.54h0.09c0,0-0.02,0.26-0.02,0.34
				c0,8.82,8.66,16.02,23.79,16.02c15.13,0,27.39-7.23,27.39-16.05c0-0.08-0.02-0.31-0.02-0.31h0.02L388,327.41z"/>
		</g>
		<path fill="#FFFFFF" d="M296.89,322.92c0-0.02,0-0.04,0.04-0.68c0.07-1.15,0.26-4.31,0.78-13.08c8.22,2.67,17.77,4.14,28.09,4.14
			c4.66,0,9.47-0.29,14.39-0.91c17.37-2.18,33.26-8.11,44.76-16.71c1.65-1.23,3.16-2.51,4.58-3.81l0.84-11.79
			c-2.33,3.4-5.57,6.72-9.73,9.83c-10.51,7.86-25.19,13.31-41.34,15.33c-15.28,1.91-29.84,0.34-41.14-3.71
			c-3.51-0.47-7.97-1.05-7.97-1.05c0.4,6.99-0.11,15.67-0.28,18.42c-0.12,2.06-0.19,3.26-0.2,3.34c-0.1,1.16-0.47,2.17-1.1,3.03
			c-0.04,0.05-0.07,0.11-0.11,0.16c-0.04,0.05-0.08,0.1-0.13,0.15c-1.37,1.78-3.95,3.03-8.56,3.57l-0.35,7.47
			C289.5,335.89,296.25,330.66,296.89,322.92z"/>
		<path fill="#FFFFFF" d="M263.46,221.95c0,0,0.53-4.56,1.78-9.73c-2.66,0.27-5.18,0.53-7.55,0.77c-0.89,4.22-1.3,7.61-1.37,8.16
			c-1.72,13.05-3.21,24.26-4.48,33.9l7.29-0.26C261.48,236.89,263.46,221.95,263.46,221.95z"/>
	</g>
	<g>
		<path d="M226.03,252.14c7.19-4.09,12.76-11.87,15.73-19.44c0.26-0.65,0.17-1.33,0.39-2.02l-0.11-0.69
			c0.08-0.25,0.15-0.5,0.22-0.75l-3.09-20.61L229.84,146h-0.01c0,0,0.01,0.25,0.01,0.27l3.43,23.13l-0.03-0.06l-3.4-22.84
			c0-0.02-0.01-0.06-0.01-0.08c-1.24-15.56-24.79-35.89-47.12-37.32c-7.39,5.75-16.51,9.15-26.37,9.15
			c-8.64,0-16.7-2.61-23.54-7.12c-12.12,3.43-21.8,8.98-27.28,15.94c-14.21,13.84-11.27,39.96-2.05,52.63l2.59,36.41l1.27,11.72
			l0.66,3.02v24.7L99.99,407h0.02c0,0-0.02,0.02-0.02,0.1c0,8.82,12.26,15.91,27.39,15.91c15.13,0,30.99-7.04,30.99-15.87
			c0-0.08-0.02-0.14-0.03-0.14h0.1c0,0,2.36-120.63,2.36-121.22c0-1.92,1.56-3.55,3.48-3.55c1.92,0,3.48,1.86,3.48,3.78
			c0,0.5,2.42,107,2.42,107h0.09c0,0-0.02-0.18-0.02-0.09c0,8.82,8.66,15.81,23.79,15.81c15.13,0,27.39-6.91,27.39-15.73
			c0-0.08-0.02,0.02-0.02,0.02h0.02l-6.34-137.98L226.03,252.14z"/>
		<path d="M156.34,31.15c-20.61,0-37.38,17.89-37.38,39.88s16.77,39.88,37.38,39.88
			c20.61,0,37.37-17.89,37.37-39.88S176.95,31.15,156.34,31.15z"/>
		<path fill="#FFFFFF" d="M238.51,208.44c0-0.56-0.88-1.1-1.58-1.59c-7-4.96-79.01-55.56-82.69-58.1
			c-1.24,1.84-3.95,5.82-3.98,5.89c-0.04,0.11,79.85,55.98,82.57,57.9c5.26,3.72,4.53,11.09,2.68,16.49
			c-1.96,5.75-7.69,15.05-14.55,18.15c-1.42,0.64-3.89,0.89-5.85,0.75c0,0-2.58-0.44-3.88-1.23
			c-14.97-9.09-102.01-61.93-104.02-63.15c-1.54-0.93-2.7-2.22-3.72-3.66l0.73,10.25c10.84,6.86,50.1,30.36,69.39,42.1
			c-2.33,0.45-4.7,0.85-7.11,1.15c-27.22,3.41-52.17-4.24-60.44-17.28l0.83,11.73c10.25,8.54,26.84,13.61,46.1,13.61
			c4.66,0,9.47-0.3,14.39-0.91c5.16-0.65,10.17-1.66,15-2.95c1.79,1.09,19.21,11.7,25.94,15.77c0.41,0.25,0.82,0.83,1.25,1.06
			c1.57,0.83,3.38,1.59,5.26,1.59c0,0,0,0,0,0l6.74-0.92c0,0,3.14-2.05,4.45-2.79c7.19-4.09,12.76-11.95,15.73-19.51
			c0.26-0.65,0.17-1.37,0.39-2.06l-0.11-0.71C244.3,222.67,245.5,213.9,238.51,208.44z"/>
	</g>
</svg>
