<svg xmlns="http://www.w3.org/2000/svg" width="500" height="500" viewBox="0 0 500 500" preserveAspectRatio="true">

	<rect x="174" y="216" fill="currentColor" width="150" height="99"/>
	<path fill="#FFFFFF" d="M324,216v99H174v-99H324 M331,209h-6.57H175.57H167v6.77v98.64V322h8.57h148.87H331
		v-7.59v-98.64V209L331,209z"/>
	<polygon fill="#FFFFFF" points="225.65,245.48 205.66,272.9 193.36,263.94 188.54,270.55 207.45,284.34 
		232.27,250.31 		"/>
	<polygon fill="#FFFFFF" points="265.25,245.48 245.26,272.9 232.96,263.94 228.14,270.55 247.04,284.34 
		271.87,250.31 		"/>
	<polygon fill="#FFFFFF" points="304.85,245.48 284.86,272.9 272.56,263.94 267.74,270.55 286.65,284.34 
		311.47,250.31 		"/>
</svg>
