<svg xmlns="http://www.w3.org/2000/svg" width="500" height="500" viewBox="0 0 500 500" preserveAspectRatio="true">

	<g>
		<g>
			<path fill="currentColor" d="M320,205.67v13.99c3,2.2,6.23,4.39,9.35,6.59c8.42,5.81,7.83,17.57,4.51,26.06
				c-2.7,6.89-7.85,14.09-13.85,18.42v11.8l34-12.03v-76.87L320,205.67z"/>
		</g>
		<circle fill="#FFFFFF" cx="341.84" cy="211.81" r="4.5"/>
	</g>
	<g>
		<path fill="currentColor" d="M393.3,164.26l-6.36,6.36c10.59,10.59,17.15,25.22,17.15,41.35
			c0,16.13-6.56,30.75-17.15,41.35l6.36,6.36c12.22-12.22,19.79-29.1,19.79-47.71S405.52,176.49,393.3,164.26z"/>
		<path fill="currentColor" d="M380.58,176.99l-6.36,6.36c7.33,7.33,11.88,17.46,11.88,28.62s-4.54,21.29-11.88,28.62
			l6.36,6.36c8.96-8.96,14.51-21.34,14.51-34.99S389.54,185.95,380.58,176.99z"/>
		<path fill="currentColor" d="M367.86,189.71l-6.36,6.36c4.07,4.07,6.6,9.7,6.6,15.9c0,6.2-2.52,11.83-6.6,15.9
			l6.36,6.36c5.7-5.7,9.24-13.58,9.24-22.26C377.09,203.29,373.56,195.41,367.86,189.71z"/>
	</g>
</svg>
