<svg xmlns="http://www.w3.org/2000/svg" width="500" height="500" viewBox="0 0 500 500" preserveAspectRatio="true">

	<path d="M298,60.11c0,0,0.07-0.54,0.04-0.8c0-0.19-0.16-1.36-0.3-1.74
		c-4.44-24.94-27.24-42.48-52.41-39.58c-25.32,2.92-43.59,25.44-41.98,50.92c-0.01,0.26,0.04,0.99,0.06,1.11
		c0.03,0.33,0.28,0.98,0.28,0.98c3.08,7.15,24,10.61,48.68,7.76c4.68-0.54,4.3-0.35,7.02-0.85c0,0,7.2,2.42,14.45,3.96
		c9.29,1.97,22.75,0.28,35.08-10.06C319.06,63.29,298,60.11,298,60.11z"/>
	<path fill="#FFFFFF" d="M280.91,82.58c-2.54,0-4.92-0.26-7.08-0.72c-7.24-1.53-14.45-3.96-14.45-3.96
		c-2.71,0.5-2.34,0.31-7.02,0.85c-5.86,0.68-11.51,1-16.76,1c-8.96,0-16.73-0.94-22.42-2.64c-0.75,2.25-1.31,4.58-1.67,6.99
		c7.96,2.33,17.38,2.85,24.09,2.85c5.66,0,11.58-0.35,17.59-1.05c1.74-0.2,2.75-0.3,3.49-0.37c0.83-0.08,1.42-0.14,2.15-0.24
		c2.68,0.85,8.04,2.45,13.5,3.61c2.73,0.58,5.62,0.87,8.57,0.87c1.62,0,3.24-0.1,4.86-0.27c-0.05-2.45-0.3-4.84-0.75-7.16
		C283.62,82.5,282.24,82.58,280.91,82.58z"/>
</svg>
