<svg xmlns="http://www.w3.org/2000/svg" width="500" height="500" viewBox="0 0 500 500" preserveAspectRatio="true">

	<g>
		<g>
			<polygon points="125,202.45 125,408.58 216,376.33 216,170.2 				"/>
		</g>
		<circle fill="#FFFFFF" cx="183.64" cy="218.91" r="12.07"/>
	</g>
	<g>
		<path d="M321.63,91.42l-17.06,17.06c28.41,28.41,46,67.63,46,110.88c0,43.25-17.59,82.47-46,110.88l17.06,17.05
			c32.77-32.78,53.08-78.03,53.08-127.93C374.71,169.45,354.41,124.2,321.63,91.42z"/>
		<path d="M287.51,125.54l-17.06,17.06c19.67,19.67,31.85,46.82,31.85,76.76c0,29.94-12.18,57.09-31.85,76.76
			l17.06,17.06c24.04-24.04,38.92-57.23,38.92-93.82S311.55,149.57,287.51,125.54z"/>
		<path d="M253.4,159.66l-17.06,17.05c10.93,10.93,17.69,26.01,17.69,42.65c0,16.63-6.77,31.72-17.69,42.64
			l17.06,17.06c15.3-15.29,24.77-36.41,24.77-59.7C278.17,196.06,268.7,174.95,253.4,159.66z"/>
	</g>
</svg>
