<svg xmlns="http://www.w3.org/2000/svg" width="500" height="500" viewBox="0 0 500 500" preserveAspectRatio="true">

	<path d="M371.12,248.35c-0.02-0.05-54.66-103.42-54.66-103.42c-3.78-7.25-29.6-14.08-41.44-15.76
		c-7.19,5.25-15.9,8.34-25.28,8.34c-9.34,0-18.02-3.06-25.19-8.27c-12.03,1.78-37.25,8.53-40.98,15.69
		c0,0-54.64,103.36-54.66,103.42c-3.04,6.09,2.96,15.27,13.42,20.49c10.45,5.22,21.39,4.52,24.43-1.58
		c0.03-0.06,24.6-53.46,24.6-53.46l2.66,45.01V282c0,0-2.78,151.35-2.78,151.43c0,8.82,12.64,15.97,27.77,15.97
		c15.13,0,27.58-6.84,27.58-15.66c0-0.09,0.2-127.74,0.2-127.74h0.11c-0.04,0-0.1-0.62-0.1-0.79c0-1.27,1.03-2.45,2.3-2.45
		c1.27,0,2.3,1.25,2.3,2.52c0,0.18-0.06,0.72-0.1,0.72h0.16c0,0,0.01,127.66,0.01,127.74c0,8.82,12.26,15.82,27.39,15.82
		c15.13,0,26.64-7.23,26.64-16.05C305.48,433.43,302,282,302,282v-23.2l4-48.34c0,0,26.96,56.73,26.99,56.79
		c3.04,6.1,14.12,6.8,24.57,1.58C368.01,263.62,374.16,254.44,371.12,248.35z"/>
	<path fill="#FFFFFF" d="M302,267.54v-9.67c-9,11.1-30.47,18.73-54,18.73c-23.53,0-43-7.64-54-18.73v9.67
		c13,9.81,31.57,16.26,54,16.26S291,277.35,302,267.54z"/>
	<path d="M249.73,50.55c-20.61,0-37.38,17.89-37.38,39.88c0,21.99,16.77,39.88,37.38,39.88
		c20.61,0,37.38-17.89,37.38-39.88C287.11,68.44,270.34,50.55,249.73,50.55z"/>

</svg>
