<svg xmlns="http://www.w3.org/2000/svg" width="500" height="500" viewBox="0 0 500 500" preserveAspectRatio="true">

	<g>
		<path d="M256.3,129.67c-2.18-0.13-4.38-0.21-6.61-0.21c-2.25,0-4.5,0.07-6.72,0.19c2.18,0.42,4.42,0.66,6.72,0.66
			C251.94,130.31,254.15,130.08,256.3,129.67z"/>
		<path d="M371.1,251.1c-0.03-0.05-54.67-103.42-54.67-103.42c-4.24-8.14-36.29-15.75-45.11-16.12
			c-6.42,3.79-13.83,5.96-21.69,5.96c-7.85,0-14.93-2.16-21.34-5.94c-1.22,0.26-1.3,0.52-3.3,0.82c0-0.01,0-0.03,0-0.04
			c-7,0-54.56,12.3-57.28,35.4l-2.12,18.1c-2.48,18.78-11.78,88.55-11.79,88.61c-0.56,6.79,7.59,13.25,19.24,14.22
			c11.64,0.97,18.7-3.66,19.26-10.45c0-0.02,1.14-15.4,2.3-34.98l1.38,16.18v22.57c0,0-3.09,151.35-3.09,151.43
			c0,8.82,12.03,15.98,27.16,15.98c15.13,0,27.33-6.85,27.33-15.67c0-0.09-0.05-127.74-0.05-127.74h0.16c-0.04,0-0.1-0.62-0.1-0.79
			c0-1.27,1.03-2.45,2.3-2.45c1.27,0,2.3,1.25,2.3,2.52c0,0.18-0.06,0.72-0.1,0.72h0.11c0,0,0.04,127.66,0.04,127.74
			c0,8.82,12.3,15.81,27.43,15.81s27.69-7.22,27.69-16.05c0-0.08-3.17-151.5-3.17-151.5v-18.73c0-0.57-0.08-1.14-0.08-1.72
			l3.26-47.31c12.86,27.36,26.12,55.73,26.14,55.76c3.04,6.1,13.95,6.8,24.41,1.58C368.17,266.37,374.14,257.19,371.1,251.1z"/>
	</g>
	<path fill="#FFFFFF" d="M195.53,267.54l-0.12-9.8c9,11.1,30.59,18.86,54.12,18.86s45.44-7.99,54.44-19.09
		l-0.44,10.03c-12.6,9.81-31.57,16.26-54,16.26C227.1,283.81,208.13,277.35,195.53,267.54z"/>
	<path d="M249.68,50.55c20.61,0,37.38,17.89,37.38,39.88c0,21.99-16.77,39.88-37.38,39.88
		c-20.61,0-37.38-17.89-37.38-39.88C212.3,68.44,229.07,50.55,249.68,50.55z"/>

</svg>
