<svg xmlns="http://www.w3.org/2000/svg" width="500" height="500" viewBox="0 0 500 500" preserveAspectRatio="true">
	<path d="M331.63,356.28c0,23.8-19.3,43.1-43.1,43.1c-23.81,0-43.1-19.3-43.1-43.1
		c0-23.8,19.3-43.1,43.1-43.1C312.33,313.18,331.63,332.48,331.63,356.28z"/>
	<path d="M164.55,328.64c0,39.07-31.67,70.74-70.74,70.74c-39.07,0-70.74-31.67-70.74-70.74
	c0-39.07,31.67-70.74,70.74-70.74C132.88,257.9,164.55,289.57,164.55,328.64z"/>
	<path d="M452,336.75v-39.37l-30.48,21.25c-8.1,5.86-14.91,12.28-18.62,21.37L344,303.58v-58.39l-113.55-7.7
		L184.18,118H61.07L8.12,254.75L7.96,353h11.14c-2.46-8-3.8-15.82-3.8-24.23c0-43.3,35.22-78.58,78.52-78.58
		s78.52,35.32,78.52,78.62c0,8.4-1.34,16.19-3.8,24.19h58.4h3.89h6.98c1.83-27,23.88-47.33,50.74-47.33
		c26.86,0,48.91,20.33,50.74,47.33H344v-34.21l55.93,34.53c-0.07,0.98-0.21,1.96-0.21,2.96c0,22.12,16.61,40.15,38.07,42.62
		l0.03,0.1h4.85c0.02,0,0.03,0,0.05,0c0.01,0,0.03,0,0.05,0h53.28L452,336.75z"/>
	<polygon fill="#FFFFFF" points="113,238 113,129 173.87,129 216.56,238 			"/>
	<polygon fill="#FFFFFF" points="99,238 99,129 71.38,129 28.69,238 			"/>
</svg>
