<svg xmlns="http://www.w3.org/2000/svg" width="500" height="500" viewBox="0 0 500 500" preserveAspectRatio="true">
<g>
	<path d="M449.5,258.367c-2.415-10.976-7.766-20.183-16.04-27.621c-8.28-7.438-17.812-11.809-28.608-13.113
		c-34.22-3.719-85.837-5.578-154.853-5.578c-69.012,0-120.539,1.859-154.582,5.578c-10.969,1.305-20.548,5.676-28.735,13.113
		c-8.187,7.441-13.582,16.648-16.187,27.621c-4.836,21.582-7.254,54.133-7.254,97.66c0,44.27,2.418,76.824,7.254,97.659
		c2.421,10.97,7.772,20.184,16.047,27.618c8.28,7.441,17.812,11.719,28.601,12.836C129.37,498.047,180.994,500,250.002,500
		c69.006,0,120.63-1.953,154.85-5.859c10.796-1.117,20.274-5.395,28.461-12.836c8.194-7.435,13.585-16.648,16.188-27.618
		c4.836-21.581,7.257-54.132,7.257-97.659C456.757,311.758,454.336,279.203,449.5,258.367z M161.275,286.555h-29.855v158.758
		h-27.902V286.555H74.221v-26.228h87.054V286.555z M236.607,445.312h-24.832v-15.069c-10.047,11.351-19.535,17.022-28.461,17.022
		c-8.555,0-13.953-3.444-16.184-10.324c-1.485-4.465-2.23-11.257-2.23-20.371V307.477h24.829v101.562
		c0,5.95,0.094,9.207,0.281,9.766c0.562,3.906,2.512,5.859,5.859,5.859c5.023,0,10.328-3.906,15.906-11.719V307.477h24.832V445.312z
		 M331.477,404.016c0,13.578-0.837,22.886-2.509,27.909c-3.164,10.224-9.766,15.341-19.812,15.341
		c-8.923,0-17.578-5.117-25.952-15.341v13.391h-24.829V260.327h24.829v60.547c8.007-10.039,16.648-15.062,25.952-15.062
		c10.047,0,16.648,5.21,19.812,15.625c1.672,4.836,2.509,14.043,2.509,27.621V404.016z M425.781,381.141h-49.938v24.273
		c0,12.836,4.274,19.25,12.829,19.25c6.141,0,9.859-3.344,11.164-10.047c0.367-1.859,0.555-7.531,0.555-17.016h25.391v3.625
		c0,9.117-0.188,14.508-0.555,16.188c-0.556,5.017-2.509,10.039-5.859,15.062c-6.696,9.859-16.749,14.789-30.141,14.789
		c-12.828,0-22.875-4.746-30.133-14.227c-5.391-6.883-8.086-17.672-8.086-32.367v-48.273c0-14.695,2.602-25.484,7.806-32.367
		c7.257-9.484,17.21-14.227,29.858-14.227c12.468,0,22.327,4.742,29.578,14.227c5.023,6.883,7.531,17.672,7.531,32.367V381.141
		L425.781,381.141z"/>
	<path d="M295.758,328.406c-4.28,0-8.461,2.053-12.555,6.14v83.981c4.094,4.09,8.274,6.137,12.555,6.137
		c7.251,0,10.883-6.228,10.883-18.695v-58.867C306.641,334.637,303.009,328.406,295.758,328.406z"/>
	<path d="M388.397,328.406c-8.374,0-12.555,6.327-12.555,18.969v12.836h25.109v-12.836
		C400.952,334.727,396.759,328.406,388.397,328.406z"/>
	<path d="M145.098,111.328v75.617H173v-75.617L206.755,0h-28.458l-18.969,73.383L139.517,0h-29.578
		c5.21,15.628,11.257,33.019,18.14,52.179C136.821,77.848,142.493,97.566,145.098,111.328z"/>
	<path d="M244.143,188.898c12.834,0,22.693-4.742,29.576-14.23c5.203-6.883,7.812-17.859,7.812-32.922V92.914
		c0-14.879-2.609-25.762-7.812-32.645c-6.883-9.488-16.742-14.23-29.576-14.23c-12.468,0-22.234,4.742-29.297,14.23
		c-5.208,6.883-7.812,17.765-7.812,32.645v48.832c0,14.879,2.602,25.855,7.812,32.922
		C221.912,184.156,231.674,188.898,244.143,188.898z M232.143,87.891c0-12.836,4-19.254,12-19.254s11.998,6.418,11.998,19.254
		v58.594c0,13.023-3.998,19.531-11.998,19.531s-12-6.512-12-19.531V87.891z"/>
	<path d="M320.867,188.898c9.305,0,18.89-5.766,28.742-17.3v15.344H375V47.714h-25.391V154.02
		c-5.578,8-10.876,11.996-15.906,11.996c-3.351,0-5.304-2.047-5.859-6.137c-0.187-0.375-0.28-3.632-0.28-9.769V47.714h-25.391
		v109.934c0,9.485,0.749,16.458,2.233,20.926C306.828,185.457,312.312,188.898,320.867,188.898z"/>
</g>
</svg>
