<?xml version="1.0" encoding="UTF-8"?><!DOCTYPE svg PUBLIC "-//W3C//DTD SVG 1.1//EN" "http://www.w3.org/Graphics/SVG/1.1/DTD/svg11.dtd"><svg xmlns="http://www.w3.org/2000/svg"><symbol id="facebook-square" viewBox="0 0 500 500"><path d="M440.704 59.29c-15.712-15.715-34.642-23.575-56.774-23.575H116.07c-22.133 0-41.062 7.86-56.78 23.575-15.712 15.718-23.572 34.648-23.572 56.78v267.855c0 22.134 7.86 41.062 23.57 56.78 15.72 15.72 34.65 23.58 56.782 23.58h267.86c22.133 0 41.062-7.86 56.774-23.58 15.72-15.718 23.578-34.646 23.578-56.78V116.07c0-22.132-7.86-41.065-23.578-56.78zM400.39 256.134h-48.827V433.31H278.46V256.134h-36.553V195.03h36.554v-36.552c0-26.23 6.142-46.037 18.415-59.432s32.548-20.088 60.824-20.088h48.827v61.105H375.84c-10.418 0-17.066 1.81-19.953 5.44-2.883 3.628-4.324 10-4.324 19.114v30.412h55.246l-6.42 61.104z"/></symbol><symbol id="facebook" viewBox="0 0 500 500"><path d="M285.438 170.755v-39.618c0-5.946.273-10.555.832-13.81.556-3.26 1.816-6.464 3.77-9.628 1.953-3.165 5.117-5.345 9.488-6.556 4.37-1.21 10.19-1.816 17.447-1.816h39.614V20.09h-63.337c-36.65 0-62.968 8.695-78.966 26.086-15.997 17.39-23.993 43.013-23.993 76.868v47.71h-47.44V250h47.437v229.91h95.147V250h63.336l8.37-79.245H285.44z"/></symbol><symbol id="instagram" viewBox="0 0 113.386 113.386"><path d="M100.136 47.884h-9.854c.718 2.787 1.142 5.7 1.142 8.71 0 19.238-15.592 34.83-34.827 34.83-19.234 0-34.827-15.592-34.827-34.83 0-3.01.426-5.923 1.144-8.71H13.06v47.893c0 2.4 1.95 4.35 4.357 4.35h78.36c2.41 0 4.36-1.948 4.36-4.35V47.884zm0-30.473a4.355 4.355 0 0 0-4.358-4.35H82.72a4.354 4.354 0 0 0-4.354 4.352v13.064a4.353 4.353 0 0 0 4.354 4.353h13.058a4.355 4.355 0 0 0 4.358-4.354V17.41zM56.596 34.83c-12.023 0-21.768 9.744-21.768 21.767 0 12.02 9.745 21.77 21.768 21.77s21.77-9.75 21.77-21.77c0-12.023-9.747-21.767-21.77-21.767m43.54 78.365H13.058c-7.21 0-13.058-5.85-13.058-13.066v-87.07C0 5.848 5.847 0 13.058 0h87.078c7.212 0 13.058 5.846 13.058 13.058v87.068c0 7.217-5.846 13.066-13.058 13.066"/></symbol><symbol id="linkedin-square" viewBox="0 0 500 500"><path d="M440.704 59.29c-15.712-15.715-34.642-23.575-56.774-23.575H116.07c-22.133 0-41.062 7.86-56.78 23.575-15.712 15.718-23.572 34.648-23.572 56.78v267.855c0 22.134 7.86 41.062 23.57 56.78 15.72 15.72 34.65 23.58 56.782 23.58h267.86c22.133 0 41.062-7.86 56.774-23.58 15.72-15.718 23.578-34.646 23.578-56.78V116.07c0-22.132-7.86-41.065-23.578-56.78zM166.296 394.528h-64.453v-193.64h64.453v193.64zm-5.86-229.49c-6.694 6.42-15.53 9.626-26.506 9.626h-.28c-10.603 0-19.2-3.207-25.806-9.625-6.608-6.42-9.906-14.372-9.906-23.856 0-9.672 3.395-17.672 10.18-24 6.796-6.324 15.583-9.488 26.368-9.488 10.79 0 19.438 3.164 25.952 9.488 6.508 6.328 9.86 14.328 10.04 24 0 9.48-3.345 17.434-10.04 23.855zm237.72 229.49h-64.453V291.013c0-29.197-10.785-43.802-32.363-43.802-8.184 0-15.066 2.278-20.645 6.833-5.586 4.556-9.772 10.094-12.56 16.605-1.3 3.348-1.95 8.552-1.95 15.62v108.26h-64.452c.555-116.816.555-181.363 0-193.64h64.453v27.34c13.552-21.19 32.792-31.806 57.755-31.806 22.324 0 40.277 7.348 53.855 22.04 13.578 14.695 20.367 36.367 20.367 65.005v111.06h-.006z"/></symbol><symbol id="linkedin" viewBox="0 0 500 500"><path d="M41.012 178.294h92.078v276.502H41.012zM435.263 203.55c-19.337-21.112-44.922-31.67-76.728-31.67-11.72 0-22.367 1.44-31.952 4.326-9.578 2.883-17.665 6.928-24.273 12.137-6.602 5.21-11.86 10.045-15.762 14.506-3.713 4.238-7.34 9.174-10.883 14.76v-39.32h-91.8l.28 13.396c.192 8.93.282 36.46.282 82.588 0 46.133-.184 106.305-.556 180.523h91.795V300.5c0-9.484 1.02-17.016 3.066-22.602 3.914-9.49 9.81-17.438 17.72-23.852 7.91-6.423 17.72-9.632 29.44-9.632 15.996 0 27.762 5.533 35.297 16.602 7.53 11.066 11.3 26.367 11.3 45.898V454.79h91.798V296.32c-.007-40.742-9.675-71.662-29.022-92.77zM87.61 45.203c-15.438 0-27.946 4.513-37.528 13.533-9.582 9.02-14.367 20.41-14.367 34.178 0 13.575 4.648 24.926 13.95 34.038 9.297 9.113 21.574 13.672 36.828 13.672h.56c15.624 0 28.23-4.555 37.807-13.672 9.58-9.112 14.274-20.458 14.09-34.038-.187-13.768-4.933-25.157-14.23-34.178-9.298-9.023-21.673-13.533-37.11-13.533z"/></symbol><symbol id="minuba-icons-hardhat-tie" viewBox="0 0 500 500"><path d="M387.08 264.827c-.026-.062-61.88-117.077-61.88-117.077-4.276-8.204-33.508-15.94-46.916-17.835-8.14 5.944-18.002 9.438-28.625 9.438-10.577 0-20.397-3.46-28.52-9.356-13.62 2.01-42.17 9.65-46.392 17.753 0 0-61.854 117.015-61.88 117.077-3.446 6.9 3.353 17.288 15.193 23.195 11.834 5.906 24.212 5.108 27.66-1.793.035-.067 28.47-60.518 28.47-60.518l2.623 36.787v40.43s-3.265 171.335-3.265 171.42c0 9.99 14.25 18.086 31.38 18.086 17.125 0 31.192-8.066 31.192-18.055l.195-144.934h.12c-.04 0-.113-.376-.113-.576a2.61 2.61 0 0 1 2.6-2.61 2.61 2.61 0 0 1 2.602 2.614c0 .2-.068.572-.11.572h.18l.014 144.935c0 9.99 13.885 18.07 31.01 18.07 17.13 0 30.692-8.102 30.692-18.093 0-.082-3.416-171.43-3.416-171.43V262.5l4.093-40.56s30.206 64.223 30.242 64.29c3.446 6.9 15.824 7.698 27.656 1.792 11.842-5.907 18.64-16.293 15.195-23.195zM299.998 39.26s-.062-.613-.173-.896c-.05-.21-.536-1.45-.797-1.833-11.546-26.245-41.318-39.45-68.232-29.527-27.066 9.98-41.154 39.64-32.58 67.23.055.286.31 1.086.37 1.21.122.358.567 1 .567 1 5.293 7.04 29.238 5.254 55.63-4.477 5-1.842 4.64-1.54 7.492-2.807 0 0 8.57.74 16.947.49 10.746-.313 25.105-5.774 35.9-20.445 8.888-12.072-15.124-9.945-15.124-9.945z"/><path d="M275.605 76.356c-5.115 0-9.79-.27-12.2-.438-.91.374-1.563.604-2.55.945-.8.277-1.894.656-3.768 1.346-15.782 5.817-31.556 9.155-43.283 9.155-2.327 0-4.466-.14-6.443-.403.378 24.55 19.2 44.4 42.298 44.4 23.33 0 42.313-20.252 42.313-45.147 0-4.03-.504-7.938-1.438-11.66-3.656 1.035-7.383 1.636-11.112 1.745-1.21.037-2.493.056-3.815.056z"/><path fill="#FFF" d="M310 286.558v-10.945c-12 12.56-35.363 21.203-62 21.203-26.638 0-50-8.644-62-21.203v10.945c16 11.104 36.607 18.41 62 18.41 25.39 0 49-7.306 62-18.41zM279.223 69.65c-1.21.037-2.425.053-3.617.053-7.057 0-13.33-.543-13.33-.543-2.854 1.27-2.492.965-7.493 2.807-15.647 5.77-30.434 8.746-40.984 8.746-2.237 0-4.255-.15-6.08-.42a48.367 48.367 0 0 0-.374 5.922c0 .25.014.498.018.747 1.977.263 4.116.403 6.443.403 11.727 0 27.5-3.338 43.283-9.156 1.874-.69 2.968-1.07 3.768-1.347.987-.34 1.64-.57 2.55-.945 2.41.167 7.085.438 12.2.438 1.32 0 2.604-.02 3.815-.056 3.73-.11 7.456-.71 11.112-1.745a46.934 46.934 0 0 0-2.08-6.344c-3.244.894-6.368 1.357-9.232 1.44zM254.934 149.148a9.053 9.053 0 0 0-4.96-16.628c-5 0-9.057 4.056-9.057 9.053 0 3.17 1.63 5.957 4.096 7.575-3.05 12.325-11.886 95.327-11.886 99.75 0 1.424.54 2.852 1.632 3.94l11.275 11.274a5.577 5.577 0 0 0 7.88 0l11.273-11.275a5.55 5.55 0 0 0 1.632-3.94c0-4.42-8.84-87.423-11.886-99.75z"/></symbol><symbol id="minuba-icons-timer" viewBox="0 0 500 500"><path fill="#FFF" d="M250.004 1.327C112.667 1.327 1.33 112.663 1.33 250c0 137.338 111.337 248.674 248.674 248.674 137.33 0 248.666-111.336 248.666-248.674 0-137.337-111.336-248.673-248.666-248.673z"/><path fill="currentColor" d="M249 31.164V248.41l194.38-85.75S432 54.03 249 31.163z"/><path d="M250.004 278.48c-17.295 0-30.337-12.116-30.337-28.183 0-4.27.958-8.58 3.083-9.184l27.254-103.718 27.243 103.735c2.243.783 3.095 6.523 3.095 10.238 0 15.962-12.476 27.11-30.338 27.11z"/><path fill="#FFF" d="M250.004 139.822L276.838 242h-.12c1.935 0 3.124 4.9 3.124 9.598 0 16.47-13.365 26.496-29.838 26.496-16.48 0-29.837-11.04-29.837-27.51 0-4.698 1.174-8.584 3.107-8.584h-.12l26.85-102.178m0-4.396l-.968 3.682-26.702 101.618c-2.318.972-3.168 5.57-3.168 9.57 0 16.35 13.257 28.682 30.837 28.682 8.437 0 16.16-2.616 21.744-7.367 5.95-5.06 9.094-12.06 9.094-20.243 0-3.352-.69-9.378-3.174-10.605L250.97 139.108l-.966-3.682z"/><path d="M248.902 280c-11.585 0-22.28-7.057-27.245-18.234-3.303-7.45-3.624-15.56-.904-22.983 2.744-7.488 8.313-13.37 15.683-16.636 2.354-1.04 5.738-1.54 5.88-1.562l149.4-34.09-125.593 87.875c-.104.08-3.065 2.22-5.42 3.257-3.8 1.684-7.77 2.373-11.8 2.373z"/><path fill="#FFF" d="M389.334 187.56l-123.498 86.405s-3.01 2.35-5.336 3.375c-3.826 1.696-7.755 2.495-11.597 2.495-11.273 0-21.8-6.874-26.79-18.104-6.682-15.075-.535-32.41 14.525-39.084 2.32-1.026 5.753-1.546 5.753-1.546l146.944-33.54m4.765-2.113l-4.988 1.138-146.907 33.53c-.408.065-3.662.595-5.97 1.616-7.496 3.323-13.16 9.347-15.95 16.964-2.765 7.546-2.44 15.872.916 23.442 5.047 11.36 15.92 18.7 27.704 18.7 4.102 0 8.14-.87 12.002-2.582 2.332-1.028 5.225-3.252 5.524-3.484l123.478-86.39 4.19-2.933z"/><path d="M250.004 1.327C112.667 1.327 1.33 112.663 1.33 250c0 137.338 111.337 248.674 248.674 248.674 137.33 0 248.666-111.336 248.666-248.674 0-137.337-111.336-248.673-248.666-248.673zM264 452.437V421h-22v31.756C137.453 448.68 52.96 365.156 47.368 261H82v-23H47.432C53.51 134.31 137.788 51.307 242 47.243V78h22V47.562C365.434 54.506 446.607 136.304 452.567 238H424v23h28.63C447.148 363.16 365.767 445.47 264 452.437z"/></symbol><symbol id="minuba" viewBox="0 0 500 118.078"><path d="M102.742 69.312a95.8 95.8 0 0 1 .14 5.398v41.64H86.46V75.48c0-1.438-.05-2.778-.134-4.02-.097-1.247-.258-2.33-.492-3.257-.502-2.034-1.5-3.68-2.975-4.924-1.483-1.253-3.558-1.895-6.237-1.943-1.43 0-2.912.21-4.436.624a23.95 23.95 0 0 0-4.535 1.77 25.045 25.045 0 0 0-4.302 2.78 25.595 25.595 0 0 0-3.7 3.628v46.21H43.23V75.48c0-1.438-.045-2.778-.138-4.02-.093-1.247-.254-2.33-.488-3.257-.51-2.034-1.49-3.68-2.94-4.924-1.46-1.253-3.548-1.895-6.27-1.943-1.438 0-2.914.21-4.44.624a24.036 24.036 0 0 0-4.532 1.77 24.702 24.702 0 0 0-4.297 2.78 25.45 25.45 0 0 0-3.708 3.628v46.21H0V49.222h13.58l1.524 9.348h.28c.964-1.38 2.188-2.75 3.666-4.084 1.478-1.34 3.154-2.518 5.02-3.54 1.872-1.008 3.93-1.83 6.173-2.45 2.24-.628 4.605-.942 7.1-.942 4.437 0 8.416.988 11.95 2.947 3.535 1.963 6.225 5.018 8.073 9.177h.277a32.615 32.615 0 0 1 4.33-4.92 26.805 26.805 0 0 1 5.3-3.81 28.338 28.338 0 0 1 6.27-2.49c2.24-.6 4.63-.904 7.17-.904 4.803.045 8.83 1.054 12.09 3.014 3.257 1.968 5.76 4.66 7.51 8.074.468.877.86 1.84 1.183 2.875.327 1.04.59 2.21.796 3.5a45.94 45.94 0 0 1 .45 4.297zm18.562 47.038h16.423V49.22h-16.423v67.13zm-.413-82.517h17.25v-17.8h-17.25v17.8zm120.31 28.41c-.828-2.584-1.97-4.82-3.428-6.685-1.45-1.873-3.124-3.398-5.02-4.576-1.893-1.178-3.984-2.042-6.27-2.596a30.047 30.047 0 0 0-7.103-.835c-2.59 0-5.022.315-7.308.943-2.286.62-4.378 1.442-6.27 2.45a25.582 25.582 0 0 0-5.06 3.54c-1.478 1.335-2.7 2.704-3.665 4.084h-.28l-1.524-9.347H181.69v67.13h16.423V70.14c2.262-2.86 4.855-5.044 7.795-6.55 2.93-1.496 5.995-2.252 9.178-2.252 2.4 0 4.44.463 6.13 1.385 1.684.935 2.946 2.455 3.775 4.58.37.968.627 2.1.768 3.39.134 1.3.203 2.845.203 4.647v41.01h16.42V72.77c0-2.21-.08-4.16-.24-5.855-.164-1.687-.478-3.24-.94-4.672zm62.767 26.607c0 3.878-.53 6.896-1.588 9.07-1.067 2.266-2.647 3.952-4.746 5.06-2.1 1.108-4.635 1.663-7.59 1.663-2.82 0-5.243-.496-7.276-1.488-2.026-.992-3.597-2.506-4.705-4.54-.65-1.198-1.133-2.62-1.46-4.258-.317-1.646-.483-3.597-.483-5.854V49.22H259.7v41.01c0 3.044.29 5.822.864 8.32.582 2.487 1.476 4.777 2.674 6.853 2.262 3.878 5.606 6.962 10.038 9.253 4.44 2.28 10.025 3.423 16.768 3.423 3.556 0 6.784-.332 9.666-1.002 2.886-.67 5.474-1.62 7.76-2.844 2.286-1.224 4.27-2.695 5.96-4.432a23.002 23.002 0 0 0 4.123-5.788c1.89-3.737 2.836-8.334 2.836-13.783V49.22h-16.422v39.63zm124.187-22.275c1.62 4.366 2.43 9.385 2.43 15.073 0 6.044-.875 11.4-2.632 16.065-1.757 4.663-4.047 8.5-6.892 11.5-2.845 3.002-6.044 5.234-9.59 6.69-3.564 1.446-7.137 2.174-10.746 2.174-2.534 0-4.824-.307-6.858-.926-2.033-.628-3.812-1.405-5.333-2.323-1.525-.926-2.807-1.893-3.845-2.91-1.037-1.017-1.86-1.918-2.46-2.703h-.276l-1.596 7.135H366.78c.09-1.985.174-4.45.244-7.384.065-2.928.103-5.714.103-8.343V16.036h16.42V43.95c0 1.99-.016 3.828-.032 5.51-.03 1.688-.062 2.99-.107 3.916h.14a39.846 39.846 0 0 1 3.46-2.15 30.76 30.76 0 0 1 4.09-1.873 29.268 29.268 0 0 1 4.78-1.31 28.77 28.77 0 0 1 5.406-.493c3.737 0 7.375.686 10.91 2.05 3.53 1.36 6.668 3.435 9.42 6.23 2.745 2.8 4.928 6.376 6.54 10.745zm-14.544 15.9c0-4.208-.508-7.82-1.52-10.84-1.02-3.025-2.346-5.34-3.986-6.937-1.638-1.59-3.35-2.67-5.127-3.22a17.714 17.714 0 0 0-5.3-.83c-2.4 0-4.85.482-7.342 1.458a25.633 25.633 0 0 0-6.788 3.882v32.14c.64.743 1.438 1.52 2.39 2.322.942.81 2.01 1.546 3.188 2.216a19.228 19.228 0 0 0 3.84 1.662c1.39.446 2.86.66 4.437.66 2.675 0 5.022-.545 7.032-1.628 2.01-1.09 3.69-2.62 5.052-4.605 1.372-1.984 2.394-4.35 3.088-7.103.69-2.744 1.036-5.812 1.036-9.176zm86.536 33.875h-14.833l-.687-7.135h-.277c-.93.967-2.038 1.96-3.328 2.984-1.294 1.008-2.77 1.967-4.437 2.868-1.657.9-3.51 1.63-5.535 2.183-2.038.555-4.233.828-6.59.828-3.184 0-6.16-.496-8.93-1.488-2.773-.992-5.15-2.423-7.144-4.29-1.984-1.87-3.543-4.136-4.67-6.79-1.14-2.653-1.696-5.622-1.696-8.904 0-3.604.653-6.838 1.968-9.698 1.314-2.86 3.154-5.292 5.507-7.276 2.356-1.984 5.176-3.497 8.458-4.54 3.274-1.04 6.903-1.554 10.872-1.554 2.91 0 5.59.19 8.037.555 2.447.37 4.598.81 6.445 1.314v-2.704c0-1.57-.27-3.084-.798-4.54-.53-1.446-1.39-2.744-2.564-3.877-1.174-1.13-2.712-2.03-4.61-2.703-1.89-.666-4.203-1-6.924-1-3.323 0-6.655.367-9.976 1.103-3.328.744-6.924 1.856-10.81 3.328V52.197c3.372-1.48 6.948-2.608 10.74-3.394 3.782-.786 7.755-1.208 11.914-1.252 4.895 0 9.178.608 12.853 1.803 3.67 1.203 6.742 2.853 9.215 4.957 2.473 2.1 4.316 4.585 5.54 7.45 1.224 2.856 1.835 5.98 1.835 9.355v25.283c0 4.432.05 8.244.14 11.427.092 3.192.183 6.028.283 8.525zm-16.838-28.608a64.322 64.322 0 0 0-5.403-1.01 42.482 42.482 0 0 0-6.168-.445c-4.02 0-7.193.793-9.525 2.38-2.33 1.597-3.506 4.036-3.506 7.31 0 1.53.27 2.854.807 3.986.53 1.132 1.244 2.066 2.146 2.81.9.737 1.95 1.29 3.15 1.663 1.202.372 2.47.554 3.81.554 1.663 0 3.233-.215 4.714-.66a21.073 21.073 0 0 0 4.084-1.663 19.86 19.86 0 0 0 3.365-2.25c.984-.834 1.832-1.636 2.526-2.422V87.742zm-138.65-21.14c-7.764 0-14.052 6.29-14.052 14.055s6.288 14.064 14.052 14.064c7.765 0 14.06-6.3 14.06-14.063S352.424 66.6 344.66 66.6zM154.678 49.82h10.526V0h-10.527v49.82z"/></symbol><symbol id="twitter" viewBox="0 0 32 32"><path d="M32 6.076a13.142 13.142 0 0 1-3.77 1.034 6.598 6.598 0 0 0 2.886-3.632c-1.27.752-2.674 1.3-4.17 1.593A6.55 6.55 0 0 0 22.156 3a6.566 6.566 0 0 0-6.565 6.565c0 .515.06 1.016.17 1.496A18.65 18.65 0 0 1 2.23 4.2a6.564 6.564 0 0 0 2.032 8.765 6.563 6.563 0 0 1-2.975-.82v.083a6.568 6.568 0 0 0 5.265 6.437 6.566 6.566 0 0 1-2.964.112 6.574 6.574 0 0 0 6.133 4.56A13.186 13.186 0 0 1 0 26.054a18.573 18.573 0 0 0 10.063 2.95c12.076 0 18.68-10.004 18.68-18.68 0-.285-.007-.568-.02-.85A13.298 13.298 0 0 0 32 6.077z"/></symbol><symbol id="youtube-square" viewBox="0 0 500 500"><path d="M449.5 258.367c-2.415-10.976-7.766-20.183-16.04-27.62-8.28-7.44-17.812-11.81-28.608-13.114-34.22-3.72-85.837-5.578-154.853-5.578-69.013 0-120.54 1.86-154.583 5.578-10.97 1.305-20.548 5.676-28.735 13.113-8.187 7.44-13.582 16.648-16.187 27.62-4.836 21.583-7.254 54.134-7.254 97.66 0 44.27 2.42 76.825 7.255 97.66 2.42 10.97 7.772 20.184 16.047 27.618 8.28 7.44 17.812 11.72 28.6 12.836 34.228 3.907 85.852 5.86 154.86 5.86 69.006 0 120.63-1.953 154.85-5.86 10.796-1.116 20.274-5.394 28.46-12.835 8.195-7.435 13.586-16.648 16.19-27.618 4.835-21.58 7.256-54.132 7.256-97.66 0-44.27-2.422-76.824-7.258-97.66zm-288.225 28.188H131.42v158.758h-27.902V286.555H74.22v-26.228h87.055v26.228zm75.332 158.757h-24.832v-15.07c-10.047 11.352-19.535 17.023-28.46 17.023-8.556 0-13.954-3.444-16.185-10.324-1.485-4.464-2.23-11.256-2.23-20.37V307.477h24.83V409.04c0 5.95.093 9.206.28 9.765.562 3.906 2.512 5.86 5.86 5.86 5.022 0 10.327-3.907 15.905-11.72V307.477h24.832v137.835zm94.87-41.296c0 13.578-.837 22.886-2.51 27.91-3.163 10.223-9.765 15.34-19.81 15.34-8.924 0-17.58-5.117-25.953-15.34v13.39h-24.83v-184.99h24.83v60.548c8.007-10.04 16.648-15.062 25.952-15.062 10.047 0 16.648 5.21 19.812 15.625 1.672 4.836 2.51 14.043 2.51 27.62v54.96zm94.304-22.875h-49.937v24.274c0 12.836 4.274 19.25 12.83 19.25 6.14 0 9.858-3.344 11.163-10.047.367-1.86.555-7.53.555-17.016h25.392v3.626c0 9.117-.188 14.508-.555 16.188-.556 5.017-2.51 10.04-5.86 15.062-6.695 9.86-16.748 14.79-30.14 14.79-12.828 0-22.875-4.747-30.133-14.228-5.39-6.883-8.086-17.672-8.086-32.367V352.4c0-14.695 2.602-25.484 7.806-32.367 7.257-9.483 17.21-14.226 29.858-14.226 12.468 0 22.327 4.742 29.578 14.227 5.023 6.884 7.53 17.673 7.53 32.368v28.743z"/><path d="M295.758 328.406c-4.28 0-8.46 2.053-12.555 6.14v83.98c4.094 4.09 8.274 6.138 12.555 6.138 7.25 0 10.883-6.228 10.883-18.695V347.1c0-12.465-3.63-18.696-10.882-18.696zM388.397 328.406c-8.374 0-12.555 6.327-12.555 18.97v12.835h25.11v-12.835c0-12.648-4.193-18.97-12.555-18.97zM145.098 111.328v75.617H173v-75.617L206.755 0h-28.458l-18.97 73.383L139.518 0H109.94c5.21 15.628 11.256 33.02 18.14 52.18 8.74 25.668 14.413 45.386 17.018 59.148zM244.143 188.898c12.834 0 22.693-4.742 29.576-14.23 5.202-6.883 7.81-17.86 7.81-32.922V92.914c0-14.88-2.608-25.762-7.81-32.645-6.884-9.49-16.743-14.23-29.577-14.23-12.468 0-22.234 4.74-29.297 14.23-5.208 6.882-7.812 17.764-7.812 32.644v48.832c0 14.88 2.602 25.855 7.812 32.922 7.066 9.488 16.828 14.23 29.297 14.23zm-12-101.007c0-12.835 4-19.253 12-19.253s11.998 6.418 11.998 19.254v58.595c0 13.023-3.997 19.53-11.997 19.53s-12-6.51-12-19.53V87.89zM320.867 188.898c9.305 0 18.89-5.766 28.742-17.3v15.344H375V47.714h-25.39V154.02c-5.58 8-10.877 11.996-15.907 11.996-3.35 0-5.304-2.047-5.86-6.137-.186-.376-.28-3.633-.28-9.77V47.714h-25.39v109.934c0 9.485.75 16.458 2.233 20.926 2.422 6.883 7.906 10.324 16.46 10.324z"/></symbol><symbol id="youtube" viewBox="0 0 500 500"><path d="M449.5 258.367c-2.415-10.976-7.766-20.183-16.04-27.62-8.28-7.44-17.812-11.81-28.608-13.114-34.22-3.72-85.837-5.578-154.853-5.578-69.013 0-120.54 1.86-154.583 5.578-10.97 1.305-20.548 5.676-28.735 13.113-8.187 7.44-13.582 16.648-16.187 27.62-4.836 21.583-7.254 54.134-7.254 97.66 0 44.27 2.42 76.825 7.255 97.66 2.42 10.97 7.772 20.184 16.047 27.618 8.28 7.44 17.812 11.72 28.6 12.836 34.228 3.907 85.852 5.86 154.86 5.86 69.006 0 120.63-1.953 154.85-5.86 10.796-1.116 20.274-5.394 28.46-12.835 8.195-7.435 13.586-16.648 16.19-27.618 4.835-21.58 7.256-54.132 7.256-97.66 0-44.27-2.422-76.824-7.258-97.66zm-288.225 28.188H131.42v158.758h-27.902V286.555H74.22v-26.228h87.055v26.228zm75.332 158.757h-24.832v-15.07c-10.047 11.352-19.535 17.023-28.46 17.023-8.556 0-13.954-3.444-16.185-10.324-1.485-4.464-2.23-11.256-2.23-20.37V307.477h24.83V409.04c0 5.95.093 9.206.28 9.765.562 3.906 2.512 5.86 5.86 5.86 5.022 0 10.327-3.907 15.905-11.72V307.477h24.832v137.835zm94.87-41.296c0 13.578-.837 22.886-2.51 27.91-3.163 10.223-9.765 15.34-19.81 15.34-8.924 0-17.58-5.117-25.953-15.34v13.39h-24.83v-184.99h24.83v60.548c8.007-10.04 16.648-15.062 25.952-15.062 10.047 0 16.648 5.21 19.812 15.625 1.672 4.836 2.51 14.043 2.51 27.62v54.96zm94.304-22.875h-49.937v24.274c0 12.836 4.274 19.25 12.83 19.25 6.14 0 9.858-3.344 11.163-10.047.367-1.86.555-7.53.555-17.016h25.392v3.626c0 9.117-.188 14.508-.555 16.188-.556 5.017-2.51 10.04-5.86 15.062-6.695 9.86-16.748 14.79-30.14 14.79-12.828 0-22.875-4.747-30.133-14.228-5.39-6.883-8.086-17.672-8.086-32.367V352.4c0-14.695 2.602-25.484 7.806-32.367 7.257-9.483 17.21-14.226 29.858-14.226 12.468 0 22.327 4.742 29.578 14.227 5.023 6.884 7.53 17.673 7.53 32.368v28.743z"/><path d="M295.758 328.406c-4.28 0-8.46 2.053-12.555 6.14v83.98c4.094 4.09 8.274 6.138 12.555 6.138 7.25 0 10.883-6.228 10.883-18.695V347.1c0-12.465-3.63-18.696-10.882-18.696zM388.397 328.406c-8.374 0-12.555 6.327-12.555 18.97v12.835h25.11v-12.835c0-12.648-4.193-18.97-12.555-18.97zM145.098 111.328v75.617H173v-75.617L206.755 0h-28.458l-18.97 73.383L139.518 0H109.94c5.21 15.628 11.256 33.02 18.14 52.18 8.74 25.668 14.413 45.386 17.018 59.148zM244.143 188.898c12.834 0 22.693-4.742 29.576-14.23 5.202-6.883 7.81-17.86 7.81-32.922V92.914c0-14.88-2.608-25.762-7.81-32.645-6.884-9.49-16.743-14.23-29.577-14.23-12.468 0-22.234 4.74-29.297 14.23-5.208 6.882-7.812 17.764-7.812 32.644v48.832c0 14.88 2.602 25.855 7.812 32.922 7.066 9.488 16.828 14.23 29.297 14.23zm-12-101.007c0-12.835 4-19.253 12-19.253s11.998 6.418 11.998 19.254v58.595c0 13.023-3.997 19.53-11.997 19.53s-12-6.51-12-19.53V87.89zM320.867 188.898c9.305 0 18.89-5.766 28.742-17.3v15.344H375V47.714h-25.39V154.02c-5.58 8-10.877 11.996-15.907 11.996-3.35 0-5.304-2.047-5.86-6.137-.186-.376-.28-3.633-.28-9.77V47.714h-25.39v109.934c0 9.485.75 16.458 2.233 20.926 2.422 6.883 7.906 10.324 16.46 10.324z"/></symbol></svg>