<?xml version="1.0" encoding="UTF-8"?><!DOCTYPE svg PUBLIC "-//W3C//DTD SVG 1.1//EN" "http://www.w3.org/Graphics/SVG/1.1/DTD/svg11.dtd"><svg xmlns="http://www.w3.org/2000/svg"><symbol id="facebook" viewBox="0 0 32 32"><path d="M26.667 0H5.333A5.334 5.334 0 0 0 0 5.334v21.332A5.333 5.333 0 0 0 5.333 32H16V18h-4v-4h4v-3c0-2.76 2.24-5 5-5h5v4h-5a1 1 0 0 0-1 1v3h5.5l-1 4H20v14h6.667A5.334 5.334 0 0 0 32 26.666V5.334A5.333 5.333 0 0 0 26.667 0z"/></symbol><symbol id="instagram" viewBox="0 0 113.386 113.386"><path d="M100.136 47.884h-9.854c.718 2.787 1.142 5.7 1.142 8.71 0 19.238-15.592 34.83-34.827 34.83-19.234 0-34.827-15.592-34.827-34.83 0-3.01.426-5.923 1.144-8.71H13.06v47.893c0 2.4 1.95 4.35 4.357 4.35h78.36c2.41 0 4.36-1.948 4.36-4.35V47.884zm0-30.473a4.355 4.355 0 0 0-4.358-4.35H82.72a4.354 4.354 0 0 0-4.354 4.352v13.064a4.353 4.353 0 0 0 4.354 4.353h13.058a4.355 4.355 0 0 0 4.358-4.354V17.41zM56.596 34.83c-12.023 0-21.768 9.744-21.768 21.767 0 12.02 9.745 21.77 21.768 21.77s21.77-9.75 21.77-21.77c0-12.023-9.747-21.767-21.77-21.767m43.54 78.365H13.058c-7.21 0-13.058-5.85-13.058-13.066v-87.07C0 5.848 5.847 0 13.058 0h87.078c7.212 0 13.058 5.846 13.058 13.058v87.068c0 7.217-5.846 13.066-13.058 13.066"/></symbol><symbol id="minuba-icons-timer" viewBox="0 0 500 500"><path fill="#FFF" d="M250.004 1.327C112.667 1.327 1.33 112.663 1.33 250c0 137.338 111.337 248.674 248.674 248.674 137.33 0 248.666-111.336 248.666-248.674 0-137.337-111.336-248.673-248.666-248.673z"/><path fill="currentColor" d="M249 31.164V248.41l194.38-85.75S432 54.03 249 31.163z"/><path d="M250.004 278.48c-17.295 0-30.337-12.116-30.337-28.183 0-4.27.958-8.58 3.083-9.184l27.254-103.718 27.243 103.735c2.243.783 3.095 6.523 3.095 10.238 0 15.962-12.476 27.11-30.338 27.11z"/><path fill="#FFF" d="M250.004 139.822L276.838 242h-.12c1.935 0 3.124 4.9 3.124 9.598 0 16.47-13.365 26.496-29.838 26.496-16.48 0-29.837-11.04-29.837-27.51 0-4.698 1.174-8.584 3.107-8.584h-.12l26.85-102.178m0-4.396l-.968 3.682-26.702 101.618c-2.318.972-3.168 5.57-3.168 9.57 0 16.35 13.257 28.682 30.837 28.682 8.437 0 16.16-2.616 21.744-7.367 5.95-5.06 9.094-12.06 9.094-20.243 0-3.352-.69-9.378-3.174-10.605L250.97 139.108l-.966-3.682z"/><path d="M248.902 280c-11.585 0-22.28-7.057-27.245-18.234-3.303-7.45-3.624-15.56-.904-22.983 2.744-7.488 8.313-13.37 15.683-16.636 2.354-1.04 5.738-1.54 5.88-1.562l149.4-34.09-125.593 87.875c-.104.08-3.065 2.22-5.42 3.257-3.8 1.684-7.77 2.373-11.8 2.373z"/><path fill="#FFF" d="M389.334 187.56l-123.498 86.405s-3.01 2.35-5.336 3.375c-3.826 1.696-7.755 2.495-11.597 2.495-11.273 0-21.8-6.874-26.79-18.104-6.682-15.075-.535-32.41 14.525-39.084 2.32-1.026 5.753-1.546 5.753-1.546l146.944-33.54m4.765-2.113l-4.988 1.138-146.907 33.53c-.408.065-3.662.595-5.97 1.616-7.496 3.323-13.16 9.347-15.95 16.964-2.765 7.546-2.44 15.872.916 23.442 5.047 11.36 15.92 18.7 27.704 18.7 4.102 0 8.14-.87 12.002-2.582 2.332-1.028 5.225-3.252 5.524-3.484l123.478-86.39 4.19-2.933z"/><path d="M250.004 1.327C112.667 1.327 1.33 112.663 1.33 250c0 137.338 111.337 248.674 248.674 248.674 137.33 0 248.666-111.336 248.666-248.674 0-137.337-111.336-248.673-248.666-248.673zM264 452.437V421h-22v31.756C137.453 448.68 52.96 365.156 47.368 261H82v-23H47.432C53.51 134.31 137.788 51.307 242 47.243V78h22V47.562C365.434 54.506 446.607 136.304 452.567 238H424v23h28.63C447.148 363.16 365.767 445.47 264 452.437z"/></symbol><symbol id="minuba" viewBox="0 0 500 118.078"><path d="M102.742 69.312a95.8 95.8 0 0 1 .14 5.398v41.64H86.46V75.48c0-1.438-.05-2.778-.134-4.02-.097-1.247-.258-2.33-.492-3.257-.502-2.034-1.5-3.68-2.975-4.924-1.483-1.253-3.558-1.895-6.237-1.943-1.43 0-2.912.21-4.436.624a23.95 23.95 0 0 0-4.535 1.77 25.045 25.045 0 0 0-4.302 2.78 25.595 25.595 0 0 0-3.7 3.628v46.21H43.23V75.48c0-1.438-.045-2.778-.138-4.02-.093-1.247-.254-2.33-.488-3.257-.51-2.034-1.49-3.68-2.94-4.924-1.46-1.253-3.548-1.895-6.27-1.943-1.438 0-2.914.21-4.44.624a24.036 24.036 0 0 0-4.532 1.77 24.702 24.702 0 0 0-4.297 2.78 25.45 25.45 0 0 0-3.708 3.628v46.21H0V49.222h13.58l1.524 9.348h.28c.964-1.38 2.188-2.75 3.666-4.084 1.478-1.34 3.154-2.518 5.02-3.54 1.872-1.008 3.93-1.83 6.173-2.45 2.24-.628 4.605-.942 7.1-.942 4.437 0 8.416.988 11.95 2.947 3.535 1.963 6.225 5.018 8.073 9.177h.277a32.615 32.615 0 0 1 4.33-4.92 26.805 26.805 0 0 1 5.3-3.81 28.338 28.338 0 0 1 6.27-2.49c2.24-.6 4.63-.904 7.17-.904 4.803.045 8.83 1.054 12.09 3.014 3.257 1.968 5.76 4.66 7.51 8.074.468.877.86 1.84 1.183 2.875.327 1.04.59 2.21.796 3.5a45.94 45.94 0 0 1 .45 4.297zm18.562 47.038h16.423V49.22h-16.423v67.13zm-.413-82.517h17.25v-17.8h-17.25v17.8zm120.31 28.41c-.828-2.584-1.97-4.82-3.428-6.685-1.45-1.873-3.124-3.398-5.02-4.576-1.893-1.178-3.984-2.042-6.27-2.596a30.047 30.047 0 0 0-7.103-.835c-2.59 0-5.022.315-7.308.943-2.286.62-4.378 1.442-6.27 2.45a25.582 25.582 0 0 0-5.06 3.54c-1.478 1.335-2.7 2.704-3.665 4.084h-.28l-1.524-9.347H181.69v67.13h16.423V70.14c2.262-2.86 4.855-5.044 7.795-6.55 2.93-1.496 5.995-2.252 9.178-2.252 2.4 0 4.44.463 6.13 1.385 1.684.935 2.946 2.455 3.775 4.58.37.968.627 2.1.768 3.39.134 1.3.203 2.845.203 4.647v41.01h16.42V72.77c0-2.21-.08-4.16-.24-5.855-.164-1.687-.478-3.24-.94-4.672zm62.767 26.607c0 3.878-.53 6.896-1.588 9.07-1.067 2.266-2.647 3.952-4.746 5.06-2.1 1.108-4.635 1.663-7.59 1.663-2.82 0-5.243-.496-7.276-1.488-2.026-.992-3.597-2.506-4.705-4.54-.65-1.198-1.133-2.62-1.46-4.258-.317-1.646-.483-3.597-.483-5.854V49.22H259.7v41.01c0 3.044.29 5.822.864 8.32.582 2.487 1.476 4.777 2.674 6.853 2.262 3.878 5.606 6.962 10.038 9.253 4.44 2.28 10.025 3.423 16.768 3.423 3.556 0 6.784-.332 9.666-1.002 2.886-.67 5.474-1.62 7.76-2.844 2.286-1.224 4.27-2.695 5.96-4.432a23.002 23.002 0 0 0 4.123-5.788c1.89-3.737 2.836-8.334 2.836-13.783V49.22h-16.422v39.63zm124.187-22.275c1.62 4.366 2.43 9.385 2.43 15.073 0 6.044-.875 11.4-2.632 16.065-1.757 4.663-4.047 8.5-6.892 11.5-2.845 3.002-6.044 5.234-9.59 6.69-3.564 1.446-7.137 2.174-10.746 2.174-2.534 0-4.824-.307-6.858-.926-2.033-.628-3.812-1.405-5.333-2.323-1.525-.926-2.807-1.893-3.845-2.91-1.037-1.017-1.86-1.918-2.46-2.703h-.276l-1.596 7.135H366.78c.09-1.985.174-4.45.244-7.384.065-2.928.103-5.714.103-8.343V16.036h16.42V43.95c0 1.99-.016 3.828-.032 5.51-.03 1.688-.062 2.99-.107 3.916h.14a39.846 39.846 0 0 1 3.46-2.15 30.76 30.76 0 0 1 4.09-1.873 29.268 29.268 0 0 1 4.78-1.31 28.77 28.77 0 0 1 5.406-.493c3.737 0 7.375.686 10.91 2.05 3.53 1.36 6.668 3.435 9.42 6.23 2.745 2.8 4.928 6.376 6.54 10.745zm-14.544 15.9c0-4.208-.508-7.82-1.52-10.84-1.02-3.025-2.346-5.34-3.986-6.937-1.638-1.59-3.35-2.67-5.127-3.22a17.714 17.714 0 0 0-5.3-.83c-2.4 0-4.85.482-7.342 1.458a25.633 25.633 0 0 0-6.788 3.882v32.14c.64.743 1.438 1.52 2.39 2.322.942.81 2.01 1.546 3.188 2.216a19.228 19.228 0 0 0 3.84 1.662c1.39.446 2.86.66 4.437.66 2.675 0 5.022-.545 7.032-1.628 2.01-1.09 3.69-2.62 5.052-4.605 1.372-1.984 2.394-4.35 3.088-7.103.69-2.744 1.036-5.812 1.036-9.176zm86.536 33.875h-14.833l-.687-7.135h-.277c-.93.967-2.038 1.96-3.328 2.984-1.294 1.008-2.77 1.967-4.437 2.868-1.657.9-3.51 1.63-5.535 2.183-2.038.555-4.233.828-6.59.828-3.184 0-6.16-.496-8.93-1.488-2.773-.992-5.15-2.423-7.144-4.29-1.984-1.87-3.543-4.136-4.67-6.79-1.14-2.653-1.696-5.622-1.696-8.904 0-3.604.653-6.838 1.968-9.698 1.314-2.86 3.154-5.292 5.507-7.276 2.356-1.984 5.176-3.497 8.458-4.54 3.274-1.04 6.903-1.554 10.872-1.554 2.91 0 5.59.19 8.037.555 2.447.37 4.598.81 6.445 1.314v-2.704c0-1.57-.27-3.084-.798-4.54-.53-1.446-1.39-2.744-2.564-3.877-1.174-1.13-2.712-2.03-4.61-2.703-1.89-.666-4.203-1-6.924-1-3.323 0-6.655.367-9.976 1.103-3.328.744-6.924 1.856-10.81 3.328V52.197c3.372-1.48 6.948-2.608 10.74-3.394 3.782-.786 7.755-1.208 11.914-1.252 4.895 0 9.178.608 12.853 1.803 3.67 1.203 6.742 2.853 9.215 4.957 2.473 2.1 4.316 4.585 5.54 7.45 1.224 2.856 1.835 5.98 1.835 9.355v25.283c0 4.432.05 8.244.14 11.427.092 3.192.183 6.028.283 8.525zm-16.838-28.608a64.322 64.322 0 0 0-5.403-1.01 42.482 42.482 0 0 0-6.168-.445c-4.02 0-7.193.793-9.525 2.38-2.33 1.597-3.506 4.036-3.506 7.31 0 1.53.27 2.854.807 3.986.53 1.132 1.244 2.066 2.146 2.81.9.737 1.95 1.29 3.15 1.663 1.202.372 2.47.554 3.81.554 1.663 0 3.233-.215 4.714-.66a21.073 21.073 0 0 0 4.084-1.663 19.86 19.86 0 0 0 3.365-2.25c.984-.834 1.832-1.636 2.526-2.422V87.742zm-138.65-21.14c-7.764 0-14.052 6.29-14.052 14.055s6.288 14.064 14.052 14.064c7.765 0 14.06-6.3 14.06-14.063S352.424 66.6 344.66 66.6zM154.678 49.82h10.526V0h-10.527v49.82z"/></symbol><symbol id="twitter" viewBox="0 0 32 32"><path d="M32 6.076a13.142 13.142 0 0 1-3.77 1.034 6.598 6.598 0 0 0 2.886-3.632c-1.27.752-2.674 1.3-4.17 1.593A6.55 6.55 0 0 0 22.156 3a6.566 6.566 0 0 0-6.565 6.565c0 .515.06 1.016.17 1.496A18.65 18.65 0 0 1 2.23 4.2a6.564 6.564 0 0 0 2.032 8.765 6.563 6.563 0 0 1-2.975-.82v.083a6.568 6.568 0 0 0 5.265 6.437 6.566 6.566 0 0 1-2.964.112 6.574 6.574 0 0 0 6.133 4.56A13.186 13.186 0 0 1 0 26.054a18.573 18.573 0 0 0 10.063 2.95c12.076 0 18.68-10.004 18.68-18.68 0-.285-.007-.568-.02-.85A13.298 13.298 0 0 0 32 6.077z"/></symbol></svg>