<?xml version="1.0" encoding="UTF-8"?><!DOCTYPE svg PUBLIC "-//W3C//DTD SVG 1.1//EN" "http://www.w3.org/Graphics/SVG/1.1/DTD/svg11.dtd"><svg xmlns="http://www.w3.org/2000/svg" xmlns:xlink="http://www.w3.org/1999/xlink"><symbol id="facebook-square" viewBox="0 0 500 500"><path d="M440.704 59.29c-15.712-15.715-34.642-23.575-56.774-23.575H116.07c-22.133 0-41.062 7.86-56.78 23.575-15.712 15.718-23.572 34.648-23.572 56.78v267.855c0 22.134 7.86 41.062 23.57 56.78 15.72 15.72 34.65 23.58 56.782 23.58h267.86c22.133 0 41.062-7.86 56.774-23.58 15.72-15.718 23.578-34.646 23.578-56.78V116.07c0-22.132-7.86-41.065-23.578-56.78zM400.39 256.134h-48.827V433.31H278.46V256.134h-36.553V195.03h36.554v-36.552c0-26.23 6.142-46.037 18.415-59.432s32.548-20.088 60.824-20.088h48.827v61.105H375.84c-10.418 0-17.066 1.81-19.953 5.44-2.883 3.628-4.324 10-4.324 19.114v30.412h55.246l-6.42 61.104z"/></symbol><symbol id="facebook" viewBox="0 0 500 500"><path d="M285.438 170.755v-39.618c0-5.946.273-10.555.832-13.81.556-3.26 1.816-6.464 3.77-9.628 1.953-3.165 5.117-5.345 9.488-6.556 4.37-1.21 10.19-1.816 17.447-1.816h39.614V20.09h-63.337c-36.65 0-62.968 8.695-78.966 26.086-15.997 17.39-23.993 43.013-23.993 76.868v47.71h-47.44V250h47.437v229.91h95.147V250h63.336l8.37-79.245H285.44z"/></symbol><symbol id="instagram" viewBox="0 0 113.386 113.386"><path d="M100.136 47.884h-9.854c.718 2.787 1.142 5.7 1.142 8.71 0 19.238-15.592 34.83-34.827 34.83-19.234 0-34.827-15.592-34.827-34.83 0-3.01.426-5.923 1.144-8.71H13.06v47.893c0 2.4 1.95 4.35 4.357 4.35h78.36c2.41 0 4.36-1.948 4.36-4.35V47.884zm0-30.473a4.355 4.355 0 0 0-4.358-4.35H82.72a4.354 4.354 0 0 0-4.354 4.352v13.064a4.353 4.353 0 0 0 4.354 4.353h13.058a4.355 4.355 0 0 0 4.358-4.354V17.41zM56.596 34.83c-12.023 0-21.768 9.744-21.768 21.767 0 12.02 9.745 21.77 21.768 21.77s21.77-9.75 21.77-21.77c0-12.023-9.747-21.767-21.77-21.767m43.54 78.365H13.058c-7.21 0-13.058-5.85-13.058-13.066v-87.07C0 5.848 5.847 0 13.058 0h87.078c7.212 0 13.058 5.846 13.058 13.058v87.068c0 7.217-5.846 13.066-13.058 13.066"/></symbol><symbol id="linkedin-square" viewBox="0 0 500 500"><path d="M440.704 59.29c-15.712-15.715-34.642-23.575-56.774-23.575H116.07c-22.133 0-41.062 7.86-56.78 23.575-15.712 15.718-23.572 34.648-23.572 56.78v267.855c0 22.134 7.86 41.062 23.57 56.78 15.72 15.72 34.65 23.58 56.782 23.58h267.86c22.133 0 41.062-7.86 56.774-23.58 15.72-15.718 23.578-34.646 23.578-56.78V116.07c0-22.132-7.86-41.065-23.578-56.78zM166.296 394.528h-64.453v-193.64h64.453v193.64zm-5.86-229.49c-6.694 6.42-15.53 9.626-26.506 9.626h-.28c-10.603 0-19.2-3.207-25.806-9.625-6.608-6.42-9.906-14.372-9.906-23.856 0-9.672 3.395-17.672 10.18-24 6.796-6.324 15.583-9.488 26.368-9.488 10.79 0 19.438 3.164 25.952 9.488 6.508 6.328 9.86 14.328 10.04 24 0 9.48-3.345 17.434-10.04 23.855zm237.72 229.49h-64.453V291.013c0-29.197-10.785-43.802-32.363-43.802-8.184 0-15.066 2.278-20.645 6.833-5.586 4.556-9.772 10.094-12.56 16.605-1.3 3.348-1.95 8.552-1.95 15.62v108.26h-64.452c.555-116.816.555-181.363 0-193.64h64.453v27.34c13.552-21.19 32.792-31.806 57.755-31.806 22.324 0 40.277 7.348 53.855 22.04 13.578 14.695 20.367 36.367 20.367 65.005v111.06h-.006z"/></symbol><symbol id="linkedin" viewBox="0 0 500 500"><path d="M41.012 178.294h92.078v276.502H41.012zM435.263 203.55c-19.337-21.112-44.922-31.67-76.728-31.67-11.72 0-22.367 1.44-31.952 4.326-9.578 2.883-17.665 6.928-24.273 12.137-6.602 5.21-11.86 10.045-15.762 14.506-3.713 4.238-7.34 9.174-10.883 14.76v-39.32h-91.8l.28 13.396c.192 8.93.282 36.46.282 82.588 0 46.133-.184 106.305-.556 180.523h91.795V300.5c0-9.484 1.02-17.016 3.066-22.602 3.914-9.49 9.81-17.438 17.72-23.852 7.91-6.423 17.72-9.632 29.44-9.632 15.996 0 27.762 5.533 35.297 16.602 7.53 11.066 11.3 26.367 11.3 45.898V454.79h91.798V296.32c-.007-40.742-9.675-71.662-29.022-92.77zM87.61 45.203c-15.438 0-27.946 4.513-37.528 13.533-9.582 9.02-14.367 20.41-14.367 34.178 0 13.575 4.648 24.926 13.95 34.038 9.297 9.113 21.574 13.672 36.828 13.672h.56c15.624 0 28.23-4.555 37.807-13.672 9.58-9.112 14.274-20.458 14.09-34.038-.187-13.768-4.933-25.157-14.23-34.178-9.298-9.023-21.673-13.533-37.11-13.533z"/></symbol><symbol id="minuba-2d-accessories-beaker" viewBox="0 0 500 500"><path fill="#FFF" d="M362 238.67v.76c0 9.52 6.52 17.57 14.37 17.57h53.85c7.71 0 12.77-8.3 12.77-17.78v-1.24l.52-.51c-.27-3.37-1.42-6.64-3.35-9.35L417 196.23V175.6c4-1.82 6-5.19 6-8.94v-.28c0-3.84-2.2-7.28-5.61-9.07 2.48-2.13 4.22-5.26 4.22-8.78 0-3.52-1.5-6.68-3.99-8.81 1.41-1.68 2.3-3.85 2.3-6.21 0-5.33-4.32-9.67-9.66-9.67-4.81 0-8.8 3.53-9.54 8.14-.47.22-.91.48-1.33.77-1.21-.41-2.51-.64-3.86-.64-6.63 0-12.02 5.39-12.02 12.02 0 3.63 1.62 6.88 4.16 9.09-.13.64-.2 1.3-.2 1.97 0 1.06-.27 2.07.04 3.02-2.45 1.92-4.51 4.89-4.51 8.17v.28c0 3.75 2 7.12 6 8.94v20.63l-22.96 31.9c-2.12 2.98-3.71 6.54-3.86 10.12l-.18.42z"/><path fill="currentColor" d="M369.65 239.09c-.02-2.45.81-4.88 2.16-6.78L396 198.55V171h-1.9c-1.64 0-4.1-2.69-4.1-4.34v-.28c0-1.65 2.46-2.38 4.1-2.38h18.43c1.64 0 3.47.73 3.47 2.38v.28c0 1.65-1.82 4.34-3.47 4.34H410v27.55l24.51 33.76c1.31 1.84 2.21 4.19 2.24 6.57l.19.73c0 5.28-2.95 10.39-6.71 10.39h-53.85c-3.76 0-6.8-4.9-6.8-10.18l.07-.73zM405.55 147.83c.09 0 .18.02.27.03.33-2.11 2.13-3.73 4.33-3.73a4.4 4.4 0 0 1 0 8.8c-.32 0-.62-.04-.92-.1-.49 1.58-1.94 2.73-3.68 2.73-2.13 0-3.87-1.73-3.87-3.87a3.877 3.877 0 0 1 3.87-3.86zm-14.84-3.7c0 2.66 2.16 4.82 4.82 4.82s4.82-2.16 4.82-4.82-2.16-4.82-4.82-4.82-4.82 2.16-4.82 4.82zm3.96 11.06c0 1.33 1.08 2.42 2.42 2.42 1.33 0 2.42-1.08 2.42-2.42 0-1.33-1.08-2.42-2.42-2.42-1.34 0-2.42 1.08-2.42 2.42zm12.68-14.48c0-1.37-1.11-2.48-2.47-2.48a2.48 2.48 0 0 0 0 4.96 2.47 2.47 0 0 0 2.47-2.48zm5.4-7.2a2.47 2.47 0 0 0-2.48-2.47 2.47 2.47 0 0 0-2.47 2.47c0 1.37 1.11 2.48 2.47 2.48 1.38 0 2.48-1.11 2.48-2.48z"/><g fill="#FFF"><path d="M382.95 240.31a1.8 1.8 0 0 0 1.77-1.5 1.8 1.8 0 0 0-1.47-2.08l-7.56-1.29a1.8 1.8 0 0 0-.61 3.55l7.56 1.29c.11.02.21.03.31.03zM388.81 231.24a1.8 1.8 0 0 0 1.77-1.5 1.8 1.8 0 0 0-1.47-2.08l-7.56-1.29c-.97-.16-1.91.49-2.08 1.47a1.8 1.8 0 0 0 1.47 2.08l7.56 1.29c.11.02.21.03.31.03zM394.67 222.17a1.8 1.8 0 0 0 1.77-1.5 1.8 1.8 0 0 0-1.47-2.08l-7.56-1.29a1.81 1.81 0 0 0-2.08 1.47 1.8 1.8 0 0 0 1.47 2.08l7.56 1.29c.11.02.21.03.31.03zM400.54 213.1a1.8 1.8 0 0 0 1.77-1.5 1.8 1.8 0 0 0-1.47-2.08l-7.56-1.29a1.8 1.8 0 0 0-.61 3.55l7.56 1.29c.1.02.21.03.31.03z"/></g></symbol><symbol id="minuba-2d-accessories-calculator" viewBox="0 0 500 500"><path fill="#FFF" d="M179.53 173.39l-98.46 33.06 35.98 107.16 98.46-33.06-35.98-107.16z"/><path fill="currentColor" d="M175 182.5l31.39 93.51-84.81 28.48-31.4-93.51z"/><g fill="#FFF"><path d="M105.768 218.656l61.43-20.626 5.73 17.064-61.43 20.626zM159.872 232.78l2.29 6.827-10.24 3.435-2.29-6.826zM117.794 254.48l-2.29-6.825 10.238-3.436 2.29 6.824zM176.942 227.026l2.29 6.825-10.238 3.437-2.29-6.826zM142.818 238.508l2.29 6.827-10.24 3.434-2.29-6.827zM180.97 238.987l2.29 6.826-10.237 3.437-2.29-6.826zM136.583 253.87l10.237-3.44 2.293 6.825-10.237 3.44zM166.182 251.53l-10.238 3.436-2.292-6.825 10.238-3.437zM121.808 266.427l-2.29-6.826 10.237-3.437 2.292 6.826zM125.832 278.362l-2.29-6.826 10.24-3.436 2.29 6.827zM140.6 265.828l10.238-3.44 2.293 6.826-10.238 3.44zM170.198 263.463L159.96 266.9l-2.292-6.825 10.238-3.438zM184.95 250.94l2.29 6.826L177 261.2l-2.29-6.825zM163.954 278.87l-2.29-6.826 10.237-3.437 2.292 6.826zM146.905 284.585l-2.292-6.826 10.238-3.44 2.294 6.826zM188.964 262.882l2.293 6.826-10.24 3.438-2.29-6.825zM129.842 290.31l-2.292-6.826 10.238-3.44 2.292 6.827z"/></g></symbol><symbol id="minuba-2d-accessories-checkmarks" viewBox="0 0 500 500"><path fill="currentColor" d="M174 216h150v99H174z"/><path fill="#FFF" d="M324 216v99H174v-99h150m7-7H167v113h164V209z"/><path fill="#FFF" d="M225.65 245.48l-19.99 27.42-12.3-8.96-4.82 6.61 18.91 13.79 24.82-34.03zM265.25 245.48l-19.99 27.42-12.3-8.96-4.82 6.61 18.9 13.79 24.83-34.03zM304.85 245.48l-19.99 27.42-12.3-8.96-4.82 6.61 18.91 13.79 24.82-34.03z"/></symbol><symbol id="minuba-2d-accessories-graph" viewBox="0 0 500 500"><path fill="currentColor" d="M174 216h150v99H174z"/><path fill="#FFF" d="M324 216v99H174v-99h150m7-7H167v113h164V209z"/><path fill="#FFF" d="M210 263h9v28h-9zM234 254h9v37h-9zM255 266h9v25h-9zM279 248h9v43h-9z"/></symbol><symbol id="minuba-2d-accessories-screwdriver" viewBox="0 0 500 500"><path fill="#FFF" d="M411.03 189.85c-.01 0-4.09-2.02-10.63-5.26-6.5 2.06-9.72 7.23-8.69 14.34l.09.62c1.06 7.32 6.33 14.74 14.33 14.74.6 0 1.21-.05 1.82-.13l4.61-.67c4.96-10.1 4.35-20.56-1.53-23.64z"/><path fill="currentColor" d="M443.65 172.43l24.68-15.8 1.22-5.55 23.02-8.11L476 161.15l-4.5-.14-25.12 16.08c.92 3.68-.57 6.77-3.4 8.59l-33.27 21.29c-3.73 2.39-8.41-.73-10.8-4.46l-.33-.52c-2.39-3.73-1.33-6.27 2.4-8.66l33.26-21.29c3.03-1.94 6.59-2.08 9.41.39z"/></symbol><symbol id="minuba-2d-accessories-suitcase" viewBox="0 0 500 500"><path d="M153 288v-27h-11v27h-14v101h39V288z"/></symbol><symbol id="minuba-2d-accessories-timer" viewBox="0 0 500 500"><path fill="#FFF" d="M351.43 200.62c-46.15 0-83.7 37.55-83.7 83.7 0 46.15 37.55 83.7 83.7 83.7 46.15 0 83.69-37.55 83.69-83.7 0-46.16-37.54-83.7-83.69-83.7z"/><path fill="currentColor" d="M352 215.41v68.4l61.2-27s-4.2-34.2-61.2-41.4z"/><path fill="#FFF" d="M351.43 243.65l-1.74 6.63-8.28 31.49c-.63.6-1.18 1.74-1.18 3.9 0 6 4.81 10.52 11.2 10.52 6.49 0 11.19-4.28 11.19-10.18 0-1.94-.42-3.39-1.17-4.19l-8.28-31.53-1.74-6.64z"/><path d="M359.84 284h.04l-8.45-32.17-8.45 32.17h.04c-.61 0-.98.73-.98 2.21 0 5.19 4.21 8.45 9.4 8.45s9.39-2.78 9.39-7.97c-.01-1.49-.38-2.69-.99-2.69z"/><path fill="#FFF" d="M403.88 260.85l-8.98 2.05-46.21 10.55c-.3.05-1.37.24-2.2.6-5.62 2.5-8.04 8.95-5.49 14.68 1.83 4.11 5.78 6.77 10.08 6.77 1.5 0 2.97-.32 4.38-.94.84-.38 1.79-1.09 2.01-1.26l38.85-27.18 7.56-5.27z"/><path d="M356.42 291.86l38.88-27.21-46.27 10.56s-1.08.16-1.81.49c-4.74 2.1-6.68 7.56-4.57 12.3 2.1 4.74 7.35 7.02 12.09 4.92.73-.32 1.68-1.06 1.68-1.06z"/><path d="M351.43 206.02c-43.24 0-78.3 35.05-78.3 78.3 0 43.24 35.05 78.3 78.3 78.3 43.24 0 78.29-35.05 78.29-78.3s-35.05-78.3-78.29-78.3zM355 348.1V338h-7v10.11c-32-1.75-57.83-28.11-60.26-58.11H298v-8h-10.41c1.18-34 28.41-59.68 60.41-61.48V232h7v-11.47c33 1.87 59.09 27.47 60.27 61.47H406v8h9.12C412.7 320 388 346.28 355 348.1z"/></symbol><symbol id="minuba-2d-appearance-bowtie" viewBox="0 0 500 500"><path fill="#FFF" d="M259.13 147.97l-3.9 2.39a7.377 7.377 0 0 0-5.23-2.17c-2.04 0-3.89.83-5.23 2.17l-3.9-2.39c-4.86-3.04-8.27-1.65-8.27 0v15.2c0 1.65 3.4 3.04 8.27 0l3.9-2.39a7.377 7.377 0 0 0 5.23 2.17c2.04 0 3.89-.83 5.23-2.17l3.9 2.39c4.86 3.04 8.27 1.65 8.27 0v-15.2c0-1.65-3.4-3.04-8.27 0zM255.16 188.77a5.15 5.15 0 0 1-5.15 5.15c-2.85 0-5.16-2.31-5.16-5.15a5.16 5.16 0 0 1 5.16-5.16c2.84 0 5.15 2.31 5.15 5.16zM255.16 217.27a5.155 5.155 0 0 1-10.31 0 5.16 5.16 0 0 1 5.16-5.16c2.84 0 5.15 2.31 5.15 5.16zM255.16 245.77a5.15 5.15 0 0 1-5.15 5.15c-2.85 0-5.16-2.31-5.16-5.15a5.16 5.16 0 0 1 5.16-5.16c2.84 0 5.15 2.31 5.15 5.16z"/></symbol><symbol id="minuba-2d-appearance-hardhat-front" viewBox="0 0 500 500"><path d="M297.24 72.79c-1.55-25.28-22.19-45.33-47.52-45.33-25.48 0-46.22 20.28-47.55 45.77-.04.25-.08.99-.06 1.11-.01.34.17 1 .17 1 1.31 4.37 8.87 8.18 19.9 10.59 1.41 6.57 13.17 11.7 27.55 11.7s26.12-5.13 27.55-11.69c11.05-2.41 18.63-6.23 19.94-10.6 0 0 .13-.53.13-.79.01-.19-.01-1.36-.11-1.76z"/><path fill="#FFF" d="M286.73 83.22c-2.74 1.03-5.92 1.95-9.46 2.72-1.43 6.56-13.17 11.69-27.55 11.69s-26.13-5.13-27.55-11.7c-3.54-.77-6.72-1.69-9.45-2.73-.24 1.82-.37 3.68-.37 5.58 0 .65.02 1.31.05 1.95 1.47.49 3.04.95 4.7 1.39 4.91 7.67 17.38 12.71 32.63 12.71 13.19 0 27.36-3.97 32.71-12.72 1.63-.43 3.17-.88 4.62-1.37.03-.65.05-1.31.05-1.96a44.37 44.37 0 0 0-.38-5.56z"/></symbol><symbol id="minuba-2d-appearance-hardhat-side" viewBox="0 0 500 500"><path d="M294.19 49.2s-.05-.54-.15-.79c-.04-.19-.47-1.28-.7-1.62-10.2-23.19-36.5-34.85-60.27-26.08-23.91 8.82-36.35 35.02-28.78 59.39.05.25.27.96.33 1.07.11.32.5.88.5.88 4.68 6.22 25.83 4.64 49.14-3.95 4.42-1.63 4.1-1.36 6.62-2.48 0 0 7.57.65 14.97.43 9.49-.28 22.18-5.1 31.71-18.06 7.84-10.66-13.37-8.79-13.37-8.79z"/><path fill="#FFF" d="M275.84 76.05c-1.07.03-2.13.04-3.18.04-6.24 0-11.79-.48-11.79-.48-2.52 1.12-2.2.85-6.62 2.48-13.82 5.1-26.88 7.73-36.2 7.73-1.98 0-3.76-.13-5.37-.37a43.07 43.07 0 0 0-.33 5.23c0 .67.02 1.33.05 1.98 1.75.23 3.62.35 5.65.35 10.51 0 24.61-2.98 38.69-8.17 1.64-.61 2.61-.94 3.31-1.18.79-.27 1.35-.47 2.04-.75 2.23.15 6.23.37 10.58.37 1.12 0 2.26-.01 3.4-.05 3.38-.1 6.76-.64 10.07-1.58a40.54 40.54 0 0 0-2.14-6.89c-2.87.81-5.63 1.22-8.16 1.29z"/></symbol><symbol id="minuba-2d-appearance-labcoat" viewBox="0 0 500 500"><path d="M303.82 258.91l.14-1.91H195.18l.14 1.91-9.75 98.75 62.42 7.15v-4.09l63.53-6.71-8.26-92.77c.18-.78.56-1.53.56-2.33z"/><path fill="#FFF" d="M313.42 350.43L252 356.44V178.67l20-17.56-2.82-10.36 11.48-8.54-5.65-13.42-5.3-1.32-20.39 54.21-20.41-54.21-5.31 1.32-5.7 13.42 11.4 8.54-3.25 10.36L245 178.27v182.51l-59.04-6.74-1.04 7.15 67.08 7.66v-5.18l61.95-6.07z"/></symbol><symbol id="minuba-2d-appearance-pens-1" viewBox="0 0 500 500"><path fill="#FFF" d="M212 171v-5.89c0-1.05.95-1.9 2-1.9s2 .85 2 1.9V171h2v-5.89c0-1.05.45-1.9 1.5-1.9s1.5.85 1.5 1.9V171h9v21.41s-2.4 4.4-10.5 4.4-10.5-4.4-10.5-4.4V171h3z"/></symbol><symbol id="minuba-2d-appearance-pens-2" viewBox="0 0 500 500"><path fill="#FFF" d="M228 270v-5.89c0-1.05-.45-1.89-1.5-1.89s-1.5.85-1.5 1.89V270h-2v-5.89c0-1.05-.95-1.89-2-1.89s-2 .85-2 1.89V270h-9v21.41s2.9 4.4 11 4.4 11-4.4 11-4.4V270h-4z"/></symbol><symbol id="minuba-2d-appearance-pocket" viewBox="0 0 500 500"><path fill="#FFF" d="M234 192.41l-11 4.4-11-4.4V171h22z"/></symbol><symbol id="minuba-2d-appearance-smile" viewBox="0 0 500 500"><path fill="#FFF" d="M231.46 106c3.01 7 10.05 12.11 18.26 12.11S264.98 113 267.98 106h-36.52z"/></symbol><symbol id="minuba-2d-appearance-stethoscope" viewBox="0 0 500 500"><path d="M253.57 197.85c1.83-3.27 3.89-6.96 4.72-11.56.12-.68.2-1.35.24-2.03 4.02-1.31 7.67-3.65 10.91-7.01 8.33-8.63 13.75-24.05 16.19-45.86-1.84-.44-3.62-.84-5.3-1.18a95.572 95.572 0 0 0-5.9-1.03 44.555 44.555 0 0 1-5.26 3.29c-2.1 16.4-6 27.95-11.39 33.54-2.2 2.27-4.39 3.29-7.12 3.29-8.62 0-16.03-13.41-20.12-36.11a43.953 43.953 0 0 1-6.07-3.58c-.17-.12-.35-.23-.52-.35-1.45.21-3.09.5-4.86.85-1.66.33-3.44.72-5.29 1.15 3.36 22.22 11.04 46.71 28.4 52.81-.48 1.78-1.55 3.7-2.78 5.88-.73 1.32-1.57 2.81-2.31 4.38-4.19 8.92-4.78 20.86-1.46 29.71.08.21.15.41.23.61-2.5 2.82-3.92 6.47-3.92 10.36 0 8.63 7.02 15.66 15.66 15.66 8.63 0 15.66-7.02 15.66-15.66 0-7.35-5.09-13.53-11.92-15.21-.17-.48-.35-.96-.53-1.45-1.77-4.71-1.34-12.23.96-17.13.49-1.06 1.12-2.18 1.78-3.37z"/><path fill="#FFF" d="M261.67 169.75c-3.21 3.33-6.81 4.94-11 4.94-15.37 0-22.86-23.38-26.19-45.09-.17-.12-.35-.23-.52-.35-1.45.21-3.09.5-4.86.85 3.13 20.95 10.42 46.11 27.49 49.58.83 1.53 1.41 2.87 1.08 4.69-.51 2.83-1.98 5.45-3.52 8.22-.73 1.3-1.48 2.65-2.13 4.03-3.56 7.57-4.09 18.06-1.3 25.51.56 1.49 1.03 2.88 1.43 4.2-2.87 1.82-4.78 5.01-4.78 8.66 0 5.66 4.59 10.26 10.26 10.26 5.66 0 10.25-4.59 10.25-10.26 0-5.66-4.59-10.25-10.25-10.25-.11 0-.21.01-.31.02-.44-1.43-.94-2.93-1.54-4.52-2.29-6.1-1.81-15.06 1.13-21.32.57-1.21 1.24-2.42 1.96-3.69 1.69-3.03 3.45-6.17 4.12-9.89.37-2.06.12-3.82-.37-5.33 4.87-.46 9.21-2.63 12.94-6.5 9.05-9.38 13.05-27.51 14.78-43.28-1.96-.4-3.76-.72-5.35-.95-1.6 14.98-5.21 32.06-13.32 40.47z"/></symbol><symbol id="minuba-2d-appearance-suspenders" viewBox="0 0 500 500"><path fill="#FFF" d="M228 276.07l-13.46-144.93c-2.26.54-4.62 1.16-7.04 1.86l13.15 141.12 7.35 1.95zM272 276.07l13.46-144.93c2.25.54 4.62 1.16 7.04 1.86l-13.15 141.12-7.35 1.95z"/></symbol><symbol id="minuba-2d-appearance-tie" viewBox="0 0 500 500"><path fill="#FFF" d="M254.39 147.96a7.998 7.998 0 0 0-4.38-14.69 7.998 7.998 0 0 0-4.38 14.69c-2.69 10.89-10.5 84.21-10.5 88.11 0 1.26.48 2.52 1.44 3.48l9.96 9.96a4.925 4.925 0 0 0 6.96 0l9.96-9.96c.96-.96 1.44-2.22 1.44-3.48 0-3.9-7.81-77.22-10.5-88.11z"/></symbol><symbol id="minuba-2d-figure-1" viewBox="0 0 500 500"><path d="M371.12 248.35c-.02-.05-54.66-103.42-54.66-103.42-3.78-7.25-29.6-14.08-41.44-15.76-7.19 5.25-15.9 8.34-25.28 8.34-9.34 0-18.02-3.06-25.19-8.27-12.03 1.78-37.25 8.53-40.98 15.69 0 0-54.64 103.36-54.66 103.42-3.04 6.09 2.96 15.27 13.42 20.49 10.45 5.22 21.39 4.52 24.43-1.58.03-.06 24.6-53.46 24.6-53.46l2.66 45.01V282s-2.78 151.35-2.78 151.43c0 8.82 12.64 15.97 27.77 15.97 15.13 0 27.58-6.84 27.58-15.66l.2-127.74h.11c-.04 0-.1-.62-.1-.79 0-1.27 1.03-2.45 2.3-2.45 1.27 0 2.3 1.25 2.3 2.52 0 .18-.06.72-.1.72h.16l.01 127.74c0 8.82 12.26 15.82 27.39 15.82s26.64-7.23 26.64-16.05C305.48 433.43 302 282 302 282v-23.2l4-48.34s26.96 56.73 26.99 56.79c3.04 6.1 14.12 6.8 24.57 1.58 10.45-5.21 16.6-14.39 13.56-20.48z"/><path fill="#FFF" d="M302 267.54v-9.67c-9 11.1-30.47 18.73-54 18.73s-43-7.64-54-18.73v9.67c13 9.81 31.57 16.26 54 16.26s43-6.45 54-16.26z"/><path d="M249.73 50.55c-20.61 0-37.38 17.89-37.38 39.88 0 21.99 16.77 39.88 37.38 39.88 20.61 0 37.38-17.89 37.38-39.88 0-21.99-16.77-39.88-37.38-39.88z"/></symbol><symbol id="minuba-2d-figure-2" viewBox="0 0 500 500"><path d="M256.3 129.67c-2.18-.13-4.38-.21-6.61-.21-2.25 0-4.5.07-6.72.19 2.18.42 4.42.66 6.72.66 2.25 0 4.46-.23 6.61-.64zM371.1 251.1c-.03-.05-54.67-103.42-54.67-103.42-4.24-8.14-36.29-15.75-45.11-16.12-6.42 3.79-13.83 5.96-21.69 5.96-7.85 0-14.93-2.16-21.34-5.94-1.22.26-1.3.52-3.3.82v-.04c-7 0-54.56 12.3-57.28 35.4l-2.12 18.1c-2.48 18.78-11.78 88.55-11.79 88.61-.56 6.79 7.59 13.25 19.24 14.22 11.64.97 18.7-3.66 19.26-10.45 0-.02 1.14-15.4 2.3-34.98l1.38 16.18v22.57s-3.09 151.35-3.09 151.43c0 8.82 12.03 15.98 27.16 15.98s27.33-6.85 27.33-15.67l-.05-127.74h.16c-.04 0-.1-.62-.1-.79 0-1.27 1.03-2.45 2.3-2.45 1.27 0 2.3 1.25 2.3 2.52 0 .18-.06.72-.1.72h.11l.04 127.74c0 8.82 12.3 15.81 27.43 15.81s27.69-7.22 27.69-16.05c0-.08-3.17-151.5-3.17-151.5v-18.73c0-.57-.08-1.14-.08-1.72l3.26-47.31c12.86 27.36 26.12 55.73 26.14 55.76 3.04 6.1 13.95 6.8 24.41 1.58 10.45-5.22 16.42-14.4 13.38-20.49z"/><path fill="#FFF" d="M195.53 267.54l-.12-9.8c9 11.1 30.59 18.86 54.12 18.86s45.44-7.99 54.44-19.09l-.44 10.03c-12.6 9.81-31.57 16.26-54 16.26-22.43.01-41.4-6.45-54-16.26z"/><path d="M249.68 50.55c20.61 0 37.38 17.89 37.38 39.88 0 21.99-16.77 39.88-37.38 39.88-20.61 0-37.38-17.89-37.38-39.88 0-21.99 16.77-39.88 37.38-39.88z"/></symbol><symbol id="minuba-2d-figure-3" viewBox="0 0 500 500"><path d="M411.03 189.85c-.04-.03-104.88-51.86-104.88-51.86l-.01-.04c-5.51-2.54-17.18-7.42-30.28-9.62-7.4 5.77-16.53 9.18-26.41 9.18-9.37 0-18.06-3.07-25.24-8.31-12.68 1.92-42.59 10.17-45.08 19.33 0 0-32.07 112.43-32.08 112.49-1.72 6.59 6.06 14.33 17.37 17.27 11.31 2.94 21.86-.01 23.58-6.6.01-.02 3-12.61 6.95-29.4l.08.54V282s-2.4 151.35-2.4 151.43c0 8.82 12.62 15.98 27.75 15.98s27.38-6.85 27.38-15.67V306h.16c-.04 0-.1-.62-.1-.79 0-1.27 1.03-2.45 2.3-2.45 1.27 0 2.3 1.25 2.3 2.52 0 .18-.06.72-.1.72h.11l-.08 127.74c0 8.82 12.17 15.81 27.3 15.81s27.21-7.22 27.21-16.05c0-.08-3.9-151.46-3.9-151.46s.67-21.64.8-23.19l5.42-71.27c29.79 14.4 82.24 39.76 82.28 39.78 6.04 3.16 15.31-2.68 20.73-13.03 5.38-10.35 4.88-21.32-1.16-24.48z"/><path d="M249.44 50.55c20.61 0 37.38 17.89 37.38 39.88 0 21.99-16.77 39.88-37.38 39.88-20.61 0-37.38-17.89-37.38-39.88 0-21.99 16.77-39.88 37.38-39.88z"/><path fill="#FFF" d="M195 267.47v-9.96c9 11.1 30.79 19.09 54.32 19.09s45.33-8.21 54.51-18.96l-.43 9.99c-12.6 9.81-31.64 16.17-54.07 16.17S207 277.28 195 267.47z"/></symbol><symbol id="minuba-3d-accessories-checkmarks-mirror" viewBox="0 0 500 500"><path fill="#FFF" d="M452 143.78l-163 53.05v113.78l163-53.05V143.78z"/><path fill="currentColor" d="M296 202.06v98.64l149-48.38v-98.63z"/><path fill="#FFF" d="M415.44 222.6l12.29-12.96 4.82 5.06-18.9 19.93-24.82-25.97 6.61-6.98zM375.84 235.47l12.29-12.96 4.82 5.05-18.9 19.93-24.82-25.97 6.61-6.97zM336.24 248.33l12.29-12.95 4.82 5.05-18.9 19.93-24.82-25.97 6.61-6.98z"/></symbol><symbol id="minuba-3d-accessories-checkmarks" viewBox="0 0 500 500"><path fill="#FFF" d="M454 143.78l-164 53.05v113.78l164-53.05V143.78z"/><path fill="currentColor" d="M297 202.06v98.64l150-48.38v-98.63z"/><path fill="#FFF" d="M332.36 249.28l-12.84-3.73-2.65 6.95 19.74 5.74 13.66-35.75-6.91-2zM366.92 237.33l-12.84-3.73-2.65 6.95 19.74 5.73 13.66-35.74-6.91-2.01zM401.48 225.36l-12.83-3.72-2.66 6.95 19.74 5.74 13.66-35.75-6.9-2.01z"/></symbol><symbol id="minuba-3d-accessories-document" viewBox="0 0 500 500"><path fill="#FFF" d="M407 108.2l-90 27.2v87.86l3.05 2.15 2.29 1.61c2.35 1.65 4.7 3.31 7.04 4.97 5.51 3.8 3.82 12.82 1.96 17.56-2.48 6.33-6.68 11.98-11.23 15.12l-3.1 2.15v32.49l90-27.2V108.2H407z"/><path fill="currentColor" d="M324 140.74v78.79c3 2.2 6.33 4.39 9.45 6.59 8.42 5.81 7.79 17.57 4.46 26.07-2.7 6.89-6.9 14.09-13.9 18.42v19.01l75-22.83V117.91L324 140.74z"/><path fill="#FFF" d="M338 166.76v9.04l48-14.66v-9.03zM338 193.76v9.04l48-14.66v-9.03zM338 221.96V231l48-14.66v-9.03zM338 249.56v9.04l48-14.66v-9.03z"/></symbol><symbol id="minuba-3d-accessories-hammer" viewBox="0 0 500 500"><path fill="#FFF" d="M457.76 245.32l-8.23-16.01-3.29-6.41-3.2 1.65-32.07-62.44-4.12-8.02-6.69 5.61c-.16.07-.32.14-.49.21-.44.19-1 .43-1.6.73-1.29.66-2.67 1-4.1 1-3.4 0-6.47-1.87-8.02-4.89l-3.29-6.41-6.41 3.29-3.2 1.65-6.41 3.29 3.29 6.4 18.91 36.83-52.31 26.86c4.75 4.75 12.03 15.95-2.64 31.59-2.94 3.13-5.55 5.63-7.95 7.62l1.15 2.05 76.55-39.32 5.75 11.21-4.8 2.46 3.29 6.41 8.22 16.01 3.29 6.4 6.4-3.29 28.82-14.8 6.41-3.29-3.26-6.39z"/><path fill="currentColor" d="M417.46 241.73l3.2-1.65 1.64 3.2-8 4.11 8.22 16.01 28.82-14.8-8.23-16.01-6.4 3.29-1.65-3.2 3.2-1.65-33.72-65.65c-.91.76-2.1 1.08-3.2 1.65-7.96 4.09-17.73.95-21.81-7.01l-3.2 1.65 22.2 43.23-57.74 29.66c2.57 5.29 3.24 12.89-4.03 22.3l70-35.95 10.7 20.82z"/></symbol><symbol id="minuba-3d-accessories-mobile" viewBox="0 0 500 500"><path fill="currentColor" d="M320 205.67v13.99c3 2.2 6.23 4.39 9.35 6.59 8.42 5.81 7.83 17.57 4.51 26.06-2.7 6.89-7.85 14.09-13.85 18.42v11.8l34-12.03v-76.87L320 205.67z"/><circle fill="#FFF" cx="341.84" cy="211.81" r="4.5"/><g fill="currentColor"><path d="M393.3 164.26l-6.36 6.36c10.59 10.59 17.15 25.22 17.15 41.35 0 16.13-6.56 30.75-17.15 41.35l6.36 6.36c12.22-12.22 19.79-29.1 19.79-47.71s-7.57-35.48-19.79-47.71z"/><path d="M380.58 176.99l-6.36 6.36c7.33 7.33 11.88 17.46 11.88 28.62s-4.54 21.29-11.88 28.62l6.36 6.36c8.96-8.96 14.51-21.34 14.51-34.99s-5.55-26.01-14.51-34.97z"/><path d="M367.86 189.71l-6.36 6.36c4.07 4.07 6.6 9.7 6.6 15.9a22.4 22.4 0 0 1-6.6 15.9l6.36 6.36c5.7-5.7 9.24-13.58 9.24-22.26-.01-8.68-3.54-16.56-9.24-22.26z"/></g></symbol><symbol id="minuba-3d-accessories-wrench-1" viewBox="0 0 500 500"><path fill="#FFF" d="M353.74 100c-5.16 0-9.69 3.99-10.75 9.04l-13.77 65.06c-.67 3.18.29 5.56 1.21 6.93a8.59 8.59 0 0 0 3.9 3.19l-7.69 39.35-.88 4.52 3.71 2.71c1.64 1.2 3.6 3.04 4.13 3.86l11.59 9.17 2.16-10.32 9.29-44.34 2.47.52-8.66 70.52-.88 7.15 7.15.88 8.48 1.04 7.15.88.88-7.14 8.57-69.8c3.83-1.1 6.9-4.24 7.75-8.27l7.56-35.62 1.33-6.27 1.49-7.04 2.96-13.93c1.25-5.93-2.54-11.78-8.47-13.04l-38.38-8.46c-.76-.19-1.53-.59-2.3-.59zm6.09 40.5l2.92-13.77 14.7 3.12-.28 1.21-1.5 6.94-1.15 5.51-14.69-3.01z"/><path fill="currentColor" d="M357.6 261.07l8.48 1.04 9.38-76.33 2.55.54c2.05.43 4.06-.85 4.5-2.9l7.55-35.62-8.67-1.84-.82 3.86a2.382 2.382 0 0 1-2.82 1.84l-24.12-5.12a2.368 2.368 0 0 1-1.83-2.82l4.92-23.2a2.373 2.373 0 0 1 2.83-1.83l24.13 5.12c1.29.27 2.11 1.54 1.83 2.82l-1.28 6.03 8.67 1.84 2.96-13.93a3.8 3.8 0 0 0-2.93-4.5l-38.38-8.14c-2.05-.44-4.07.88-4.5 2.93l-13.77 64.91c-.43 2.05 1.32 1.99 3.37 2.42l3.1.66-9.02 46.13s5.52 4.01 6.6 7.05l10.77-51.41 15.99 3.39-9.49 77.06z"/></symbol><symbol id="minuba-3d-accessories-wrench-2" viewBox="0 0 500 500"><path fill="#FFF" d="M342.57 255.65l57.6-44.16c3.86 1.93 8.16 2.96 12.53 2.96 6.19 0 12.06-1.99 16.98-5.76a27.92 27.92 0 0 0 10.88-23.93l-.23-3.58-4.72-6.76-6.63 5.08-12.28 9.42-7.54-3.09-1.15-7.79 12.56-9.63 7.06-5.41-3.66-5.24-5.45-1.87a28.014 28.014 0 0 0-9.12-1.52c-6.19 0-12.07 1.99-16.98 5.76a27.865 27.865 0 0 0-10.4 27.65l-47.42 36.36-1.09 1.98s20.16 13.02.37 34.13c-2.09 2.23-4.01 4.13-5.81 5.77 3.33-.24 6.47-1.43 9.15-3.49 2.36-1.8 4.2-4.18 5.35-6.88z"/><path fill="currentColor" d="M425.29 202.97c5.68-4.36 8.49-11.11 8.08-17.76l-15.56 11.94-15.16-6.22-2.37-16.03 15.92-12.21c-6.35-2.18-13.66-1.25-19.38 3.14-7.67 5.88-10.1 16.12-6.43 24.61l-52.2 40.03c2.9 3.57 5.72 9.24 3.73 16.6l57.84-44.35c7.26 5.82 17.83 6.16 25.53.25z"/></symbol><symbol id="minuba-3d-appearance-frown" viewBox="0 0 500 500"><path fill="#FFF" d="M265.29 113.09c-.05-.04-5.39-4.16-19-.15l-1.53-5.18c16.49-4.86 23.33.6 24.05 1.24l-3.57 4.05 1.79-2.03-1.74 2.07z"/></symbol><symbol id="minuba-3d-appearance-hardhat" viewBox="0 0 500 500"><path d="M298 60.11s.07-.54.04-.8c0-.19-.16-1.36-.3-1.74-4.44-24.94-27.24-42.48-52.41-39.58-25.32 2.92-43.59 25.44-41.98 50.92-.01.26.04.99.06 1.11.03.33.28.98.28.98 3.08 7.15 24 10.61 48.68 7.76 4.68-.54 4.3-.35 7.02-.85 0 0 7.2 2.42 14.45 3.96 9.29 1.97 22.75.28 35.08-10.06 10.14-8.52-10.92-11.7-10.92-11.7z"/><path fill="#FFF" d="M280.91 82.58c-2.54 0-4.92-.26-7.08-.72-7.24-1.53-14.45-3.96-14.45-3.96-2.71.5-2.34.31-7.02.85-5.86.68-11.51 1-16.76 1-8.96 0-16.73-.94-22.42-2.64-.75 2.25-1.31 4.58-1.67 6.99 7.96 2.33 17.38 2.85 24.09 2.85 5.66 0 11.58-.35 17.59-1.05 1.74-.2 2.75-.3 3.49-.37.83-.08 1.42-.14 2.15-.24 2.68.85 8.04 2.45 13.5 3.61 2.73.58 5.62.87 8.57.87 1.62 0 3.24-.1 4.86-.27-.05-2.45-.3-4.84-.75-7.16-1.39.16-2.77.24-4.1.24z"/></symbol><symbol id="minuba-3d-appearance-tie" viewBox="0 0 500 500"><path fill="#FFF" d="M260.85 143.93a8.01 8.01 0 0 0 1.98-7.35 7.995 7.995 0 0 0-9.63-5.94 8 8 0 0 0-5.94 9.63 7.976 7.976 0 0 0 5.06 5.67c-.04 3.85 1.03 14.98 2.49 28.1l23.88 16.62c-7.14-19.91-15.15-41.51-17.84-46.73z"/></symbol><symbol id="minuba-3d-figure-1" viewBox="0 0 500 500"><path d="M249.02 50.55c-20.61 0-37.38 17.89-37.38 39.88s16.77 39.88 37.38 39.88c20.61 0 37.38-17.89 37.38-39.88s-16.77-39.88-37.38-39.88z"/><path d="M202.98 247.09l.02 3.02v24.7L196.27 426h.02s-.02.15-.02.23c0 8.82 12.26 15.98 27.39 15.98s30.99-7.14 30.99-15.96a.86.86 0 0 0-.03-.24h.1s2.36-120.5 2.36-121.09c0-1.92 1.56-3.48 3.48-3.48s3.48 1.76 3.48 3.68c0 .5 2.41 106.89 2.41 106.89h.09s-.02-.04-.02.04c0 8.82 8.66 15.87 23.79 15.87s27.39-7.01 27.39-15.83c0-.08-.02-.08-.02-.08h.02l-6.7-137.2v-7.56c6 .21 8.51-1.78 11.73-4.99 5.18-5.16 9.52-12.32 10.23-19.7.42-4.36-.56-8.38-4.23-10.97-4.75-3.36-9.49-6.72-14.25-10.07l2.48-32.4c29.87 14.45 81.73 39.52 81.78 39.54 7.84 4.1 16.42-5.6 19.86-11.46 2.77-4.72 4.68-10.22 4.63-15.74-.04-3.86-1.19-8.37-4.88-10.3-4.62-2.44-9.38-4.64-14.07-6.95-10.66-5.26-21.32-10.53-31.98-15.8-19.36-9.56-38.71-19.12-58.07-28.68-.25-.13-16.2-6.97-28.07-9.31-3.41-.96-6.9-1.72-10.45-2.33-7.45 5.91-16.7 9.42-26.72 9.42-8.04 0-15.57-2.27-22.09-6.21-1.56.51-3.1 1.04-4.62 1.63-3.66 1.43-7.23 3.15-10.57 5.23a46.768 46.768 0 0 0-4.76 3.4c-.8.65-1.58 1.24-2.32 1.96-.2.19-1.11 1.48-1.25 1.48-16 13-13.19 40.88-3.65 54l2.5 36.38"/><path fill="#FFF" d="M333.54 226.11c-23.92-16.92-79.33-55.56-83-58.1-1.24 1.84-4 5.86-3.99 5.94.01.08 79.85 55.92 82.58 57.85 5.26 3.72 4.53 11.09 2.68 16.49-2.85 8.34-13.61 24.15-24.28 17.67-6.57-3.99-102.01-61.93-104.02-63.15-2.13-1.29-3.54-3.25-4.87-5.36-7.36-11.67-8.95-28.31-3.48-41.02 1.27-2.94 2.96-5.7 5.07-8.11 2.59-2.96 5.68-5.9 8.86-8.19-2.06-1.33-4.09-2.71-6.15-4.04-.41-.27-3.9 3.09-4.52 3.63-6.79 5.85-10.98 14.14-12.67 22.86-1.86 9.64-.91 19.87 2.34 29.11 1.49 4.25 3.51 8.37 6.22 11.98 1.03 1.38 2.18 2.64 3.4 3.85 1.47 1.45 50.02 30.48 72.2 43.97-2.33.45-4.7.85-7.1 1.15-27.22 3.41-52.18-4.24-60.44-17.29l.84 11.73c10.25 8.54 26.84 13.61 46.11 13.61 4.66 0 9.47-.29 14.39-.91 5.17-.65 10.21-1.63 15.04-2.92 1.18.71 18.43 11.23 25.9 15.75.42.25.82.52 1.25.75 4.82 2.57 11.94 1.02 16.44-1.54 7.19-4.1 12.76-12.08 15.73-19.64 3.3-8.49 3.89-20.26-4.53-26.07z"/><path fill="#FFF" d="M333.54 226.11c-5-3.54-11.39-8.03-18.39-12.94-26.45-18.57-61.71-43.14-64.62-45.15-1.24 1.84-4 5.86-3.99 5.94.01.07 64.79 45.38 79.63 55.78 1.63 1.15 2.67 1.87 2.94 2.07 4.34 3.07 4.6 8.61 3.52 13.49 0 .02-.01.04-.01.06-.17.76-.37 1.5-.6 2.22-.14.45-.3.9-.46 1.35-.04.1-.07.2-.11.3-1.07 2.87-2.57 5.6-4.36 8.1-.03.05-.07.1-.1.15-.17.23-.32.46-.49.69-3.94 5.4-9.39 10.04-15.11 9.23-1.29-.18-2.58-.64-3.88-1.42-6.57-3.99-102.01-61.93-104.02-63.15-1.55-.94-2.71-2.24-3.74-3.68l.73 10.26c10.82 6.85 50.1 30.36 69.41 42.11-2.33.45-4.7.85-7.1 1.15-27.22 3.41-52.18-4.24-60.44-17.29l.84 11.73c10.25 8.54 26.84 13.61 46.11 13.61 4.66 0 9.47-.29 14.39-.91 5.17-.65 10.21-1.63 15.04-2.92 1.18.71 18.43 11.23 25.9 15.75.42.25.82.52 1.25.75 1.64.88 3.55 1.24 5.53 1.29 3.84.08 7.94-1.14 10.91-2.83 7.19-4.1 12.76-12.08 15.73-19.64 3.32-8.52 3.91-20.29-4.51-26.1z"/></symbol><symbol id="minuba-3d-figure-2" viewBox="0 0 500 500"><path d="M198.88 247.22l.12 3.02v24.7L192.07 426h.02s-.02.22-.02.29c0 8.82 12.26 16.01 27.39 16.01s30.99-7.19 30.99-16.01c0-.08-.03-.29-.03-.29h.1s2.36-120.43 2.36-121.03c0-1.92 1.56-3.45 3.48-3.45s3.48 1.71 3.48 3.63c0 .5 2.42 106.84 2.42 106.84h.09s-.02.03-.02.11c0 8.82 8.67 15.9 23.79 15.9 15.13 0 27.39-7.05 27.39-15.88 0-.08-.02-.13-.02-.13h.02L307 274.94v-7.62c2 .13 4-.11 5-.94v.17l1.14 7.27.79 6.08c1.2-.08 2.56-.2 3.8-.42 11.52-1.97 19.97-8.87 18.82-15.59-.01-.05-.02.05-.04.08v.03l.02-.42-1.98-13.36-3.32-22.38-9.31-62.84h-.01l.01.47 3.43 23.23-.03-.01-3.4-22.82c0-.02-.01-.05-.01-.07-1.25-15.56-24.79-35.89-47.12-37.31-7.39 5.75-16.51 9.15-26.37 9.15-8.64 0-16.7-2.61-23.54-7.12-12.12 3.43-21.8 8.99-27.28 15.94-14.21 13.84-11.27 39.97-2.05 52.63l2.55 36.41"/><path d="M248.42 50.55c-20.61 0-37.38 17.89-37.38 39.88s16.77 39.88 37.38 39.88c20.61 0 37.38-17.89 37.38-39.88s-16.77-39.88-37.38-39.88z"/><path fill="#FFF" d="M330.59 227.84c0-.56-.88-1.1-1.58-1.59-7-4.96-13.87-9.89-20.88-14.83l-1.95-23.57-7.13.63 1.62 17.58c2.08 1.46-50.66-35.37-54.34-37.91-1.24 1.84-3.95 5.82-3.98 5.89-.04.11 79.85 55.98 82.57 57.9 5.26 3.72 4.53 11.09 2.68 16.49-1.96 5.75-7.69 15.05-14.55 18.15-1.42.64-3.19 1.01-4.69 1.03 1.37-.03 2.65-.4 3.65-1.03v-.01l.41-.17c-1.94.83-3.41 1.07-5.41.94v.19c-2-.18-2.49-.64-3.79-1.42-14.97-9.09-101.96-61.93-103.97-63.15-1.54-.93-2.67-2.22-3.7-3.66l.74 10.25c10.84 6.86 50.1 30.36 69.4 42.1-2.33.45-4.69.85-7.1 1.15-27.22 3.41-52.17-4.24-60.43-17.28l.83 11.73c10.25 8.54 26.84 13.61 46.1 13.61 4.66 0 9.48-.29 14.39-.91 5.17-.65 10.17-1.66 15-2.95 1.79 1.09 19.21 11.7 25.94 15.77.42.25.82.64 1.25.87 1.57.83 3.38 1.39 5.26 1.39l.53 5.74 6.71-1.06.03-.03-.53-6.64h-.01c1.62 0 3.15-.72 4.45-1.46 7.19-4.1 12.76-11.87 15.73-19.43.26-.65.17-1.33.39-2.02l-.11-.69c2.26-7.39 3.46-16.14-3.53-21.6z"/></symbol><symbol id="minuba-3d-figure-2b" viewBox="0 0 500 500"><path d="M318.11 271.54c7.19-4.1 12.76-11.87 15.73-19.44.26-.65.17-1.33.39-2.02l-.11-.69c.08-.25.15-.5.22-.75l-3.09-20.81-9.33-62.83h-.01l.01.47 3.43 23.23-.03-.01-3.4-22.82c0-.02-.01-.05-.01-.07-1.24-15.56-24.79-35.89-47.12-37.31-7.39 5.75-16.51 9.15-26.37 9.15-8.64 0-16.7-2.61-23.54-7.12-12.11 3.43-21.8 8.99-27.28 15.94-14.21 13.84-11.27 39.97-2.05 52.63l2.59 36.41.73 11.72.12 3.02v24.7L192.07 426h.02s-.02.22-.02.29c0 8.82 12.26 16.01 27.39 16.01s30.99-7.19 30.99-16.01c0-.08-.02-.29-.03-.29h.1s2.36-120.43 2.36-121.03c0-1.92 1.56-3.45 3.48-3.45s3.48 1.71 3.48 3.63c0 .5 2.42 106.84 2.42 106.84h.09s-.02.03-.02.11c0 8.82 8.66 15.9 23.79 15.9 15.13 0 27.39-7.05 27.39-15.88 0-.08-.02-.13-.02-.13h.02l-6.34-137.78 10.94-2.67z"/><path d="M248.42 50.55c-20.61 0-37.38 17.89-37.38 39.88s16.77 39.88 37.38 39.88c20.61 0 37.38-17.89 37.38-39.88s-16.78-39.88-37.38-39.88z"/><path fill="#FFF" d="M330.59 227.84c0-.56-.88-1.1-1.58-1.59-7-4.96-79.01-55.56-82.69-58.1-1.25 1.84-3.95 5.82-3.98 5.89-.04.11 79.85 55.98 82.57 57.9 5.26 3.72 4.53 11.09 2.68 16.49-1.96 5.75-7.69 15.05-14.55 18.15-1.42.64-3.89.89-5.85.75 0 0-2.58-.44-3.88-1.23-14.97-9.09-102.01-61.93-104.02-63.15-1.54-.93-2.7-2.22-3.72-3.66l.73 10.25c10.84 6.86 50.1 30.36 69.39 42.1-2.33.45-4.7.85-7.11 1.15-27.22 3.41-52.17-4.24-60.44-17.28l.83 11.73c10.25 8.54 26.84 13.61 46.1 13.61 4.66 0 9.47-.29 14.39-.91 5.17-.65 10.17-1.66 15-2.95 1.79 1.09 19.21 11.7 25.94 15.77.41.25.82.64 1.25.87 1.57.83 3.38 1.39 5.26 1.39l6.74-.72s3.14-1.95 4.45-2.69c7.19-4.1 12.76-11.89 15.73-19.46.26-.65.17-1.35.39-2.03l-.11-.7c2.27-7.36 3.47-16.12-3.52-21.58z"/></symbol><symbol id="minuba-3d-figure-handshake" viewBox="0 0 500 500"><path fill="currentColor" d="M339.53 96.75c-20.61 0-37.38 17.89-37.38 39.88s16.77 39.88 37.38 39.88c20.61 0 37.38-17.89 37.38-39.88s-16.77-39.88-37.38-39.88z"/><path fill="currentColor" d="M388 327.41v-12.4l1.73-23.27.66-11.65 2.01-28.32c1.05-.64 1.62-.99 1.62-.99 11.45-11.41 16.17-42.52-1.15-57.01-3.84-4.1-9.2-7.71-15.69-10.61-4.47-2.35-9.62-4.31-15.24-5.84-6.59 4.06-14.24 6.4-22.41 6.4-9.94 0-19.12-3.45-26.54-9.28-14.08 2.91-36.54 11.33-46.27 32.61-.58 1.7-1.07 3.47-1.49 5.18-17.1 1.75-28.8 2.98-28.8 2.98-6.79.6-11.46 10.53-10.41 22.17 1.04 11.63 4.97 16.37 11.01 18.21l22.08-.79c-3.55 26.83-7.97 60.34-7.98 60.38-.56 6.79 7.64 13.25 19.29 14.22.95.04 1.83.06 2.69.06h.43c.87 0 1.7 0 2.49-.03.47-.02.92-.04 1.36-.07.1-.01.2-.01.3-.02.75-.05 1.45.07 2.13-.02L272.79 479h.02s-.02-.05-.02.03c0 8.82 12.26 15.88 27.39 15.88s30.99-6.99 30.99-15.81c0-.09-.02-.09-.03-.09h.1s2.36-120.7 2.36-121.29c0-1.92 1.56-3.58 3.48-3.58s3.48 1.41 3.48 3.33c0 .5 2.42 106.54 2.42 106.54h.09s-.02.26-.02.34c0 8.82 8.66 16.02 23.79 16.02 15.13 0 27.39-7.23 27.39-16.05 0-.08-.02-.31-.02-.31h.02L388 327.41z"/><path fill="#FFF" d="M296.89 322.92a10534.13 10534.13 0 0 0 .82-13.76c8.22 2.67 17.77 4.14 28.09 4.14 4.66 0 9.47-.29 14.39-.91 17.37-2.18 33.26-8.11 44.76-16.71a58.91 58.91 0 0 0 4.58-3.81l.84-11.79c-2.33 3.4-5.57 6.72-9.73 9.83-10.51 7.86-25.19 13.31-41.34 15.33-15.28 1.91-29.84.34-41.14-3.71-3.51-.47-7.97-1.05-7.97-1.05.4 6.99-.11 15.67-.28 18.42-.12 2.06-.19 3.26-.2 3.34-.1 1.16-.47 2.17-1.1 3.03-.04.05-.07.11-.11.16-.04.05-.08.1-.13.15-1.37 1.78-3.95 3.03-8.56 3.57l-.35 7.47c10.04-.73 16.79-5.96 17.43-13.7zM263.46 221.95s.53-4.56 1.78-9.73c-2.66.27-5.18.53-7.55.77-.89 4.22-1.3 7.61-1.37 8.16-1.72 13.05-3.21 24.26-4.48 33.9l7.29-.26c2.35-17.9 4.33-32.84 4.33-32.84z"/><g><path d="M226.03 252.14c7.19-4.09 12.76-11.87 15.73-19.44.26-.65.17-1.33.39-2.02l-.11-.69c.08-.25.15-.5.22-.75l-3.09-20.61-9.33-62.63h-.01l.01.27 3.43 23.13-.03-.06-3.4-22.84c0-.02-.01-.06-.01-.08-1.24-15.56-24.79-35.89-47.12-37.32-7.39 5.75-16.51 9.15-26.37 9.15-8.64 0-16.7-2.61-23.54-7.12-12.12 3.43-21.8 8.98-27.28 15.94-14.21 13.84-11.27 39.96-2.05 52.63l2.59 36.41 1.27 11.72.66 3.02v24.7l-8 151.45h.02s-.02.02-.02.1c0 8.82 12.26 15.91 27.39 15.91s30.99-7.04 30.99-15.87c0-.08-.02-.14-.03-.14h.1s2.36-120.63 2.36-121.22c0-1.92 1.56-3.55 3.48-3.55s3.48 1.86 3.48 3.78c0 .5 2.42 107 2.42 107h.09s-.02-.18-.02-.09c0 8.82 8.66 15.81 23.79 15.81 15.13 0 27.39-6.91 27.39-15.73 0-.08-.02.02-.02.02h.02l-6.34-137.98 10.94-2.9z"/><path d="M156.34 31.15c-20.61 0-37.38 17.89-37.38 39.88s16.77 39.88 37.38 39.88c20.61 0 37.37-17.89 37.37-39.88s-16.76-39.88-37.37-39.88z"/><path fill="#FFF" d="M238.51 208.44c0-.56-.88-1.1-1.58-1.59-7-4.96-79.01-55.56-82.69-58.1-1.24 1.84-3.95 5.82-3.98 5.89-.04.11 79.85 55.98 82.57 57.9 5.26 3.72 4.53 11.09 2.68 16.49-1.96 5.75-7.69 15.05-14.55 18.15-1.42.64-3.89.89-5.85.75 0 0-2.58-.44-3.88-1.23-14.97-9.09-102.01-61.93-104.02-63.15-1.54-.93-2.7-2.22-3.72-3.66l.73 10.25c10.84 6.86 50.1 30.36 69.39 42.1-2.33.45-4.7.85-7.11 1.15-27.22 3.41-52.17-4.24-60.44-17.28l.83 11.73c10.25 8.54 26.84 13.61 46.1 13.61 4.66 0 9.47-.3 14.39-.91 5.16-.65 10.17-1.66 15-2.95 1.79 1.09 19.21 11.7 25.94 15.77.41.25.82.83 1.25 1.06 1.57.83 3.38 1.59 5.26 1.59l6.74-.92s3.14-2.05 4.45-2.79c7.19-4.09 12.76-11.95 15.73-19.51.26-.65.17-1.37.39-2.06l-.11-.71c2.27-7.35 3.47-16.12-3.52-21.58z"/></g></symbol><symbol id="minuba-icon-building-1" viewBox="0 0 500 500"><path d="M468.64 399.41l-437.24.07-.04-298.59 437.22-.07z"/><path fill="#FFF" d="M53 154h52v53H53zM193 207h-54.98l-.02-53h55z"/><g fill="#FFF"><path d="M277 207.49l-52 .01V154h52zM309 154h53v53h-53zM394 154h55v53h-55z"/></g><g fill="#FFF"><path d="M276.67 304H225v-54h51.65zM309 250h53v54h-53zM449 304h-55v-53.88l55-.02z"/></g><path fill="#FFF" d="M106.04 304H53v-53.81l53.18.24zM191.36 367.45l-53.32.02-.02-117.3 53.32-.02z"/></symbol><symbol id="minuba-icon-building-2" viewBox="0 0 500 500"><path d="M340 449.1l-181-.01V50h181z"/><g fill="#FFF"><path d="M208.37 135H173V99h35.36zM264.2 135H229V99h35.19zM319 135.04l-34 .01V99h34z"/></g><g fill="#FFF"><path d="M173 162h34v34h-34zM229 162h34v34h-34zM319 197.85l-34 .01V162h34z"/></g><g fill="#FFF"><path d="M208.12 260.28l-35.12.37V225h35.37zM229 225h34v34h-34zM285 225h34v34h-34z"/></g><g fill="#FFF"><path d="M208.35 322h-34.89v-34h34.9zM264.04 323.18l-35.04.3V288h35.19zM319 322h-33.87l-.52-34.16 34.39.74z"/></g><path fill="#FFF" d="M264.18 427.96l-34.88-.1-.01-76.86h34.9z"/></symbol><symbol id="minuba-icon-checkmark" viewBox="0 0 500 500"><path d="M367.87 100.41L213.31 312.36l-95.02-69.28-37.31 51.17 146.17 106.59 191.87-263.13z"/></symbol><symbol id="minuba-icon-excavator-1" viewBox="0 0 500 500"><path d="M331.63 356.28c0 23.8-19.3 43.1-43.1 43.1-23.81 0-43.1-19.3-43.1-43.1s19.3-43.1 43.1-43.1 43.1 19.3 43.1 43.1zM164.55 328.64c0 39.07-31.67 70.74-70.74 70.74-39.07 0-70.74-31.67-70.74-70.74 0-39.07 31.67-70.74 70.74-70.74 39.07 0 70.74 31.67 70.74 70.74z"/><path d="M452 336.75v-39.37l-30.48 21.25c-8.1 5.86-14.91 12.28-18.62 21.37L344 303.58v-58.39l-113.55-7.7L184.18 118H61.07L8.12 254.75 7.96 353H19.1c-2.46-8-3.8-15.82-3.8-24.23 0-43.3 35.22-78.58 78.52-78.58s78.52 35.32 78.52 78.62c0 8.4-1.34 16.19-3.8 24.19h69.27c1.83-27 23.88-47.33 50.74-47.33 26.86 0 48.91 20.33 50.74 47.33H344v-34.21l55.93 34.53c-.07.98-.21 1.96-.21 2.96 0 22.12 16.61 40.15 38.07 42.62l.03.1H496.05L452 336.75z"/><path fill="#FFF" d="M113 238V129h60.87l42.69 109zM99 238V129H71.38L28.69 238z"/></symbol><symbol id="minuba-icon-excavator-2" viewBox="0 0 500 500"><path d="M491.05 252.42L420.92 104.1l-80.96 18.39L312.21 281h-52.67l-29.63-179H69.65L40.02 281H11v47h23.32c-1.35 1-2.6 2.37-3.74 4.05l4.71 2.85c-1.69 2.31-3.1 4.66-4.2 7.36L26 340.22c-1.92 5-2.9 10.24-2.9 15.64 0 4.61.72 9.13 2.15 13.48l5.34-1.69a35.13 35.13 0 0 0 3.86 7.61l-5.05 3.07a43.87 43.87 0 0 0 22.59 18.45l2.5-6.96c2.58.74 5.28 1.21 8.06 1.37l-.92 8.19c1.69.2 3.41.63 5.11.63H87v-8h9v8h23v-8h9v8h24v-8h8v8h24v-8h8v8h23v-8h9v8h24v-8h9v8h23v-8H285.02c1.29 0 2.56-.45 3.82-.57l1.27 7.5c9.87-1.63 18.93-6.79 25.52-14.36l-4.64-4.08c2.01-2.04 3.77-4.34 5.24-6.82l5.01 2.65c3.32-6.26 5.07-13.35 5.07-20.5 0-2.8-.27-5.59-.78-8.31l-5.01.94a35.47 35.47 0 0 0-2.67-8.2l4.92-1.51c-1.85-4.21-4.4-8.74-7.47-10.74H334V283.5l24.89-143.24 50.02-11.33 59.52 125.98-47.19 20.25-2.67-6.19-6.05 2.59 2.65 6.19-6.19 2.66-2.66-6.19-6.19 2.66 2.66 6.19-6.19 2.66-2.66-6.19-6.19 2.66 2.66 6.19c11.47 25.64 41.43 37.42 67.33 26.3 23.77-10.2 35.9-36.17 29.48-60.45l3.83-1.82z"/><path fill="#FFF" d="M217.77 117H81.79L57.68 265h184.18z"/><circle fill="#FFF" cx="275.7" cy="355.8" r="12.55"/><circle fill="#FFF" cx="174.7" cy="355.8" r="12.55"/><circle fill="#FFF" cx="73.69" cy="355.8" r="12.55"/></symbol><symbol id="minuba-icon-graph" viewBox="0 0 500 500"><path d="M52 201h61v198H52zM162 138h64v261h-64zM273 225h64v174h-64zM386 101h61v298h-61z"/></symbol><symbol id="minuba-icon-hammer" viewBox="0 0 500 500"><path d="M411.4 219.7l-14.67 14.67-7.33-7.34 7.33-7.33L246.35 69.32c-1.83 2.9-4.81 4.81-7.34 7.34-18.23 18.23-47.79 18.23-66.02 0l-7.34 7.33 99.03 99.03L55.63 392.08l36.68 36.68L301.37 219.7l47.68 47.68 7.34-7.34 7.33 7.34-18.34 18.34 36.68 36.68 66.02-66.02-36.68-36.68z"/></symbol><symbol id="minuba-icon-legal" viewBox="0 0 500 500"><path d="M313.13 147.68c-11.87-5.54-28.49-11.08-52.25-11.08-22.96 0-35.22 7.52-35.22 19 0 11.87 13.85 19 42.35 27.7 42.75 12.67 75.2 28.5 75.2 69.27 0 20.98-11.87 37.2-28.49 47.89 7.52 5.94 17.42 19 17.42 36.81 0 48.29-51.06 63.33-87.87 63.33-23.75 0-52.64-3.96-74.02-17.42l11.48-36.41C193.6 353.5 217.74 363 241.88 363c20.98 0 35.62-6.72 35.62-20.18 0-13.06-11.87-20.19-41.95-29.69-41.95-12.67-78.76-28.89-78.76-68.08 0-17.41 10.69-37.6 32.85-48.29-8.31-6.73-15.84-21.37-15.84-36.02 0-39.98 38-61.35 86.68-61.35 22.56 0 43.94 3.57 62.14 11.88l-9.49 36.41zm-75.2 117.56c18.21 6.72 37.6 12.27 46.31 17.02 7.12-4.36 11.88-12.67 11.88-20.59 0-11.47-7.92-20.98-27.31-28.49-16.63-6.33-39.19-13.86-51.06-19.4-8.31 4.35-14.25 11.48-14.25 20.98-.01 12.67 10.68 22.17 34.43 30.48z"/></symbol><symbol id="minuba-icon-man-hardhat-tie" viewBox="0 0 500 500"><use xlink:href="#minuba-2d-figure-1"/><use xlink:href="#minuba-2d-appearance-tie"/><use xlink:href="#minuba-2d-appearance-hardhat-side"/></symbol><symbol id="minuba-icon-man-timer" viewBox="0 0 500 500"><use xlink:href="#minuba-2d-figure-1"/><use xlink:href="#minuba-2d-accessories-timer"/></symbol><symbol id="minuba-icon-man" viewBox="0 0 500 500"><use xlink:href="#minuba-2d-figure-1"/></symbol><symbol id="minuba-icon-mobile" viewBox="0 0 500 500"><path d="M125 202.45v206.13l91-32.25V170.2z"/><circle fill="#FFF" cx="183.64" cy="218.91" r="12.07"/><g><path d="M321.63 91.42l-17.06 17.06c28.41 28.41 46 67.63 46 110.88s-17.59 82.47-46 110.88l17.06 17.05c32.77-32.78 53.08-78.03 53.08-127.93 0-49.91-20.3-95.16-53.08-127.94z"/><path d="M287.51 125.54l-17.06 17.06c19.67 19.67 31.85 46.82 31.85 76.76 0 29.94-12.18 57.09-31.85 76.76l17.06 17.06c24.04-24.04 38.92-57.23 38.92-93.82s-14.88-69.79-38.92-93.82z"/><path d="M253.4 159.66l-17.06 17.05c10.93 10.93 17.69 26.01 17.69 42.65 0 16.63-6.77 31.72-17.69 42.64l17.06 17.06c15.3-15.29 24.77-36.41 24.77-59.7 0-23.3-9.47-44.41-24.77-59.7z"/></g></symbol><symbol id="minuba-icon-timer" viewBox="0 0 500 500"><path fill="#FFF" d="M250 83.13c-91.19 0-165.38 74.19-165.38 165.38S158.81 413.89 250 413.89s165.38-74.19 165.38-165.38c0-91.18-74.19-165.38-165.38-165.38z"/><path fill="currentColor" d="M250 112.37v135.16l120.93-53.35c0-.01-5.78-67.59-120.93-81.81z"/><path fill="#FFF" d="M250 168.17l-3.44 13.1-16.35 62.22c-1.24 1.19-2.33 3.44-2.33 7.7 0 11.85 9.51 20.78 22.12 20.78 12.82 0 22.12-8.46 22.12-20.12 0-3.84-.83-6.7-2.31-8.28l-16.37-62.31-3.44-13.09z"/><path d="M266.62 248h.07L250 184.42 233.3 248h.07c-1.2 0-1.94 1.39-1.94 4.31 0 10.25 8.31 16.66 18.57 16.66 10.25 0 18.56-5.47 18.56-15.72 0-2.91-.73-5.25-1.94-5.25z"/><path fill="#FFF" d="M353.63 202.15l-17.74 4.05-91.3 20.84c-.6.1-2.7.47-4.34 1.2-11.11 4.93-15.88 17.68-10.85 29.01 3.61 8.13 11.43 13.38 19.92 13.38 2.96 0 5.88-.63 8.66-1.86 1.66-.74 3.54-2.14 3.98-2.48l76.77-53.71 14.9-10.43z"/><path d="M259.85 263.43l76.83-53.76-91.42 20.87s-2.13.32-3.58.96c-9.37 4.16-13.19 14.94-9.04 24.32 4.16 9.37 14.52 13.87 23.88 9.71 1.46-.65 3.33-2.1 3.33-2.1z"/><path d="M250 93.81c-85.44 0-154.71 69.26-154.71 154.71 0 85.44 69.26 154.71 154.71 154.71 85.44 0 154.71-69.27 154.71-154.71 0-85.45-69.27-154.71-154.71-154.71zm8 280.73V354h-16v20.57C179 371.11 128.94 321 124.15 258H144v-14h-20.14C126.19 178 179 126.01 242 122.46V145h16v-22.52C322 126.17 373.82 178 376.14 244H357v14h18.85C371.07 321 322 370.95 258 374.54z"/></symbol><symbol id="minuba-icon-van" viewBox="0 0 500 500"><path d="M403.44 101H42v252h21.29c0-28 22.57-50.32 50.32-50.32S163.93 325 163.93 353h178.96c0-28 22.57-50.32 50.32-50.32 27.74 0 50.32 22.32 50.32 50.32H458V240.31L403.44 101z"/><path fill="#FFF" d="M335 239V113h53.77l49.34 126z"/><path d="M157.94 352.83c0 24.48-19.85 44.33-44.33 44.33-24.48 0-44.33-19.84-44.33-44.33 0-24.48 19.85-44.33 44.33-44.33 24.48.01 44.33 19.85 44.33 44.33zM437.54 352.83c0 24.48-19.85 44.33-44.33 44.33-24.48 0-44.33-19.84-44.33-44.33 0-24.48 19.85-44.33 44.33-44.33 24.48.01 44.33 19.85 44.33 44.33z"/></symbol><symbol id="minuba-icon-wrench" viewBox="0 0 500 500"><path d="M192.2 94.19c-17.74-16.07-41.63-21.25-63.25-15.9l48.59 44.03-11.37 53.57-51.3 17.4-49.69-45.05c-3.37 22.2 4.08 45.66 21.96 61.85 23.95 21.72 59.07 23.57 84.8 6.41l197.64 179.11c1.12 7.26 4.63 14.2 10.5 19.52 13.59 12.33 34.6 11.29 46.93-2.3 12.32-13.59 11.28-34.61-2.32-46.92-5.85-5.31-13.12-8.14-20.44-8.56L206.7 178.32c14.77-27.35 9.54-62.34-14.5-84.13zm222.53 307.52c-6.18 6.83-16.72 7.33-23.53 1.16-6.81-6.18-7.32-16.72-1.15-23.54 6.18-6.81 16.69-7.34 23.51-1.15 6.82 6.19 7.33 16.72 1.17 23.53z"/></symbol><symbol id="minuba-symbol-equals" viewBox="0 0 500 500"><path fill="#862342" d="M223.22 227.97h53.57v16.41h-53.57v-16.41zm0 27.5h53.57v16.56h-53.57v-16.56z"/></symbol><symbol id="minuba-symbol-minus" viewBox="0 0 500 500"><path fill="#862342" d="M223.22 258.21V241.8h53.57v16.41h-53.57z"/></symbol><symbol id="minuba-symbol-plus" viewBox="0 0 500 500"><path fill="#862342" d="M240.78 258.21h-17.57V241.8h17.57v-21.74h18.43v21.74h17.57v16.41h-17.57v21.75h-18.43v-21.75z"/></symbol><symbol id="minuba-symbol-process-arrow" viewBox="0 0 500 500"><path d="M233.66 325.61l-21.89-15.8L254.94 250l-43.17-59.81 21.89-15.8L288.23 250z"/></symbol><symbol id="minuba" viewBox="0 0 500 118.078"><path d="M102.742 69.312a95.8 95.8 0 0 1 .14 5.398v41.64H86.46V75.48c0-1.438-.05-2.778-.134-4.02-.097-1.247-.258-2.33-.492-3.257-.502-2.034-1.5-3.68-2.975-4.924-1.483-1.253-3.558-1.895-6.237-1.943-1.43 0-2.912.21-4.436.624a23.95 23.95 0 0 0-4.535 1.77 25.045 25.045 0 0 0-4.302 2.78 25.595 25.595 0 0 0-3.7 3.628v46.21H43.23V75.48c0-1.438-.045-2.778-.138-4.02-.093-1.247-.254-2.33-.488-3.257-.51-2.034-1.49-3.68-2.94-4.924-1.46-1.253-3.548-1.895-6.27-1.943-1.438 0-2.914.21-4.44.624a24.036 24.036 0 0 0-4.532 1.77 24.702 24.702 0 0 0-4.297 2.78 25.45 25.45 0 0 0-3.708 3.628v46.21H0V49.222h13.58l1.524 9.348h.28c.964-1.38 2.188-2.75 3.666-4.084 1.478-1.34 3.154-2.518 5.02-3.54 1.872-1.008 3.93-1.83 6.173-2.45 2.24-.628 4.605-.942 7.1-.942 4.437 0 8.416.988 11.95 2.947 3.535 1.963 6.225 5.018 8.073 9.177h.277a32.615 32.615 0 0 1 4.33-4.92 26.805 26.805 0 0 1 5.3-3.81 28.338 28.338 0 0 1 6.27-2.49c2.24-.6 4.63-.904 7.17-.904 4.803.045 8.83 1.054 12.09 3.014 3.257 1.968 5.76 4.66 7.51 8.074.468.877.86 1.84 1.183 2.875.327 1.04.59 2.21.796 3.5a45.94 45.94 0 0 1 .45 4.297zm18.562 47.038h16.423V49.22h-16.423v67.13zm-.413-82.517h17.25v-17.8h-17.25v17.8zm120.31 28.41c-.828-2.584-1.97-4.82-3.428-6.685-1.45-1.873-3.124-3.398-5.02-4.576-1.893-1.178-3.984-2.042-6.27-2.596a30.047 30.047 0 0 0-7.103-.835c-2.59 0-5.022.315-7.308.943-2.286.62-4.378 1.442-6.27 2.45a25.582 25.582 0 0 0-5.06 3.54c-1.478 1.335-2.7 2.704-3.665 4.084h-.28l-1.524-9.347H181.69v67.13h16.423V70.14c2.262-2.86 4.855-5.044 7.795-6.55 2.93-1.496 5.995-2.252 9.178-2.252 2.4 0 4.44.463 6.13 1.385 1.684.935 2.946 2.455 3.775 4.58.37.968.627 2.1.768 3.39.134 1.3.203 2.845.203 4.647v41.01h16.42V72.77c0-2.21-.08-4.16-.24-5.855-.164-1.687-.478-3.24-.94-4.672zm62.767 26.607c0 3.878-.53 6.896-1.588 9.07-1.067 2.266-2.647 3.952-4.746 5.06-2.1 1.108-4.635 1.663-7.59 1.663-2.82 0-5.243-.496-7.276-1.488-2.026-.992-3.597-2.506-4.705-4.54-.65-1.198-1.133-2.62-1.46-4.258-.317-1.646-.483-3.597-.483-5.854V49.22H259.7v41.01c0 3.044.29 5.822.864 8.32.582 2.487 1.476 4.777 2.674 6.853 2.262 3.878 5.606 6.962 10.038 9.253 4.44 2.28 10.025 3.423 16.768 3.423 3.556 0 6.784-.332 9.666-1.002 2.886-.67 5.474-1.62 7.76-2.844 2.286-1.224 4.27-2.695 5.96-4.432a23.002 23.002 0 0 0 4.123-5.788c1.89-3.737 2.836-8.334 2.836-13.783V49.22h-16.422v39.63zm124.187-22.275c1.62 4.366 2.43 9.385 2.43 15.073 0 6.044-.875 11.4-2.632 16.065-1.757 4.663-4.047 8.5-6.892 11.5-2.845 3.002-6.044 5.234-9.59 6.69-3.564 1.446-7.137 2.174-10.746 2.174-2.534 0-4.824-.307-6.858-.926-2.033-.628-3.812-1.405-5.333-2.323-1.525-.926-2.807-1.893-3.845-2.91-1.037-1.017-1.86-1.918-2.46-2.703h-.276l-1.596 7.135H366.78c.09-1.985.174-4.45.244-7.384.065-2.928.103-5.714.103-8.343V16.036h16.42V43.95c0 1.99-.016 3.828-.032 5.51-.03 1.688-.062 2.99-.107 3.916h.14a39.846 39.846 0 0 1 3.46-2.15 30.76 30.76 0 0 1 4.09-1.873 29.268 29.268 0 0 1 4.78-1.31 28.77 28.77 0 0 1 5.406-.493c3.737 0 7.375.686 10.91 2.05 3.53 1.36 6.668 3.435 9.42 6.23 2.745 2.8 4.928 6.376 6.54 10.745zm-14.544 15.9c0-4.208-.508-7.82-1.52-10.84-1.02-3.025-2.346-5.34-3.986-6.937-1.638-1.59-3.35-2.67-5.127-3.22a17.714 17.714 0 0 0-5.3-.83c-2.4 0-4.85.482-7.342 1.458a25.633 25.633 0 0 0-6.788 3.882v32.14c.64.743 1.438 1.52 2.39 2.322.942.81 2.01 1.546 3.188 2.216a19.228 19.228 0 0 0 3.84 1.662c1.39.446 2.86.66 4.437.66 2.675 0 5.022-.545 7.032-1.628 2.01-1.09 3.69-2.62 5.052-4.605 1.372-1.984 2.394-4.35 3.088-7.103.69-2.744 1.036-5.812 1.036-9.176zm86.536 33.875h-14.833l-.687-7.135h-.277c-.93.967-2.038 1.96-3.328 2.984-1.294 1.008-2.77 1.967-4.437 2.868-1.657.9-3.51 1.63-5.535 2.183-2.038.555-4.233.828-6.59.828-3.184 0-6.16-.496-8.93-1.488-2.773-.992-5.15-2.423-7.144-4.29-1.984-1.87-3.543-4.136-4.67-6.79-1.14-2.653-1.696-5.622-1.696-8.904 0-3.604.653-6.838 1.968-9.698 1.314-2.86 3.154-5.292 5.507-7.276 2.356-1.984 5.176-3.497 8.458-4.54 3.274-1.04 6.903-1.554 10.872-1.554 2.91 0 5.59.19 8.037.555 2.447.37 4.598.81 6.445 1.314v-2.704c0-1.57-.27-3.084-.798-4.54-.53-1.446-1.39-2.744-2.564-3.877-1.174-1.13-2.712-2.03-4.61-2.703-1.89-.666-4.203-1-6.924-1-3.323 0-6.655.367-9.976 1.103-3.328.744-6.924 1.856-10.81 3.328V52.197c3.372-1.48 6.948-2.608 10.74-3.394 3.782-.786 7.755-1.208 11.914-1.252 4.895 0 9.178.608 12.853 1.803 3.67 1.203 6.742 2.853 9.215 4.957 2.473 2.1 4.316 4.585 5.54 7.45 1.224 2.856 1.835 5.98 1.835 9.355v25.283c0 4.432.05 8.244.14 11.427.092 3.192.183 6.028.283 8.525zm-16.838-28.608a64.322 64.322 0 0 0-5.403-1.01 42.482 42.482 0 0 0-6.168-.445c-4.02 0-7.193.793-9.525 2.38-2.33 1.597-3.506 4.036-3.506 7.31 0 1.53.27 2.854.807 3.986.53 1.132 1.244 2.066 2.146 2.81.9.737 1.95 1.29 3.15 1.663 1.202.372 2.47.554 3.81.554 1.663 0 3.233-.215 4.714-.66a21.073 21.073 0 0 0 4.084-1.663 19.86 19.86 0 0 0 3.365-2.25c.984-.834 1.832-1.636 2.526-2.422V87.742zm-138.65-21.14c-7.764 0-14.052 6.29-14.052 14.055s6.288 14.064 14.052 14.064c7.765 0 14.06-6.3 14.06-14.063S352.424 66.6 344.66 66.6zM154.678 49.82h10.526V0h-10.527v49.82z"/></symbol><symbol id="twitter" viewBox="0 0 32 32"><path d="M32 6.076a13.142 13.142 0 0 1-3.77 1.034 6.598 6.598 0 0 0 2.886-3.632c-1.27.752-2.674 1.3-4.17 1.593A6.55 6.55 0 0 0 22.156 3a6.566 6.566 0 0 0-6.565 6.565c0 .515.06 1.016.17 1.496A18.65 18.65 0 0 1 2.23 4.2a6.564 6.564 0 0 0 2.032 8.765 6.563 6.563 0 0 1-2.975-.82v.083a6.568 6.568 0 0 0 5.265 6.437 6.566 6.566 0 0 1-2.964.112 6.574 6.574 0 0 0 6.133 4.56A13.186 13.186 0 0 1 0 26.054a18.573 18.573 0 0 0 10.063 2.95c12.076 0 18.68-10.004 18.68-18.68 0-.285-.007-.568-.02-.85A13.298 13.298 0 0 0 32 6.077z"/></symbol><symbol id="youtube-square" viewBox="0 0 500 500"><path d="M449.5 258.367c-2.415-10.976-7.766-20.183-16.04-27.62-8.28-7.44-17.812-11.81-28.608-13.114-34.22-3.72-85.837-5.578-154.853-5.578-69.013 0-120.54 1.86-154.583 5.578-10.97 1.305-20.548 5.676-28.735 13.113-8.187 7.44-13.582 16.648-16.187 27.62-4.836 21.583-7.254 54.134-7.254 97.66 0 44.27 2.42 76.825 7.255 97.66 2.42 10.97 7.772 20.184 16.047 27.618 8.28 7.44 17.812 11.72 28.6 12.836 34.228 3.907 85.852 5.86 154.86 5.86 69.006 0 120.63-1.953 154.85-5.86 10.796-1.116 20.274-5.394 28.46-12.835 8.195-7.435 13.586-16.648 16.19-27.618 4.835-21.58 7.256-54.132 7.256-97.66 0-44.27-2.422-76.824-7.258-97.66zm-288.225 28.188H131.42v158.758h-27.902V286.555H74.22v-26.228h87.055v26.228zm75.332 158.757h-24.832v-15.07c-10.047 11.352-19.535 17.023-28.46 17.023-8.556 0-13.954-3.444-16.185-10.324-1.485-4.464-2.23-11.256-2.23-20.37V307.477h24.83V409.04c0 5.95.093 9.206.28 9.765.562 3.906 2.512 5.86 5.86 5.86 5.022 0 10.327-3.907 15.905-11.72V307.477h24.832v137.835zm94.87-41.296c0 13.578-.837 22.886-2.51 27.91-3.163 10.223-9.765 15.34-19.81 15.34-8.924 0-17.58-5.117-25.953-15.34v13.39h-24.83v-184.99h24.83v60.548c8.007-10.04 16.648-15.062 25.952-15.062 10.047 0 16.648 5.21 19.812 15.625 1.672 4.836 2.51 14.043 2.51 27.62v54.96zm94.304-22.875h-49.937v24.274c0 12.836 4.274 19.25 12.83 19.25 6.14 0 9.858-3.344 11.163-10.047.367-1.86.555-7.53.555-17.016h25.392v3.626c0 9.117-.188 14.508-.555 16.188-.556 5.017-2.51 10.04-5.86 15.062-6.695 9.86-16.748 14.79-30.14 14.79-12.828 0-22.875-4.747-30.133-14.228-5.39-6.883-8.086-17.672-8.086-32.367V352.4c0-14.695 2.602-25.484 7.806-32.367 7.257-9.483 17.21-14.226 29.858-14.226 12.468 0 22.327 4.742 29.578 14.227 5.023 6.884 7.53 17.673 7.53 32.368v28.743z"/><path d="M295.758 328.406c-4.28 0-8.46 2.053-12.555 6.14v83.98c4.094 4.09 8.274 6.138 12.555 6.138 7.25 0 10.883-6.228 10.883-18.695V347.1c0-12.465-3.63-18.696-10.882-18.696zM388.397 328.406c-8.374 0-12.555 6.327-12.555 18.97v12.835h25.11v-12.835c0-12.648-4.193-18.97-12.555-18.97zM145.098 111.328v75.617H173v-75.617L206.755 0h-28.458l-18.97 73.383L139.518 0H109.94c5.21 15.628 11.256 33.02 18.14 52.18 8.74 25.668 14.413 45.386 17.018 59.148zM244.143 188.898c12.834 0 22.693-4.742 29.576-14.23 5.202-6.883 7.81-17.86 7.81-32.922V92.914c0-14.88-2.608-25.762-7.81-32.645-6.884-9.49-16.743-14.23-29.577-14.23-12.468 0-22.234 4.74-29.297 14.23-5.208 6.882-7.812 17.764-7.812 32.644v48.832c0 14.88 2.602 25.855 7.812 32.922 7.066 9.488 16.828 14.23 29.297 14.23zm-12-101.007c0-12.835 4-19.253 12-19.253s11.998 6.418 11.998 19.254v58.595c0 13.023-3.997 19.53-11.997 19.53s-12-6.51-12-19.53V87.89zM320.867 188.898c9.305 0 18.89-5.766 28.742-17.3v15.344H375V47.714h-25.39V154.02c-5.58 8-10.877 11.996-15.907 11.996-3.35 0-5.304-2.047-5.86-6.137-.186-.376-.28-3.633-.28-9.77V47.714h-25.39v109.934c0 9.485.75 16.458 2.233 20.926 2.422 6.883 7.906 10.324 16.46 10.324z"/></symbol><symbol id="youtube" viewBox="0 0 500 500"><path d="M449.5 258.367c-2.415-10.976-7.766-20.183-16.04-27.62-8.28-7.44-17.812-11.81-28.608-13.114-34.22-3.72-85.837-5.578-154.853-5.578-69.013 0-120.54 1.86-154.583 5.578-10.97 1.305-20.548 5.676-28.735 13.113-8.187 7.44-13.582 16.648-16.187 27.62-4.836 21.583-7.254 54.134-7.254 97.66 0 44.27 2.42 76.825 7.255 97.66 2.42 10.97 7.772 20.184 16.047 27.618 8.28 7.44 17.812 11.72 28.6 12.836 34.228 3.907 85.852 5.86 154.86 5.86 69.006 0 120.63-1.953 154.85-5.86 10.796-1.116 20.274-5.394 28.46-12.835 8.195-7.435 13.586-16.648 16.19-27.618 4.835-21.58 7.256-54.132 7.256-97.66 0-44.27-2.422-76.824-7.258-97.66zm-288.225 28.188H131.42v158.758h-27.902V286.555H74.22v-26.228h87.055v26.228zm75.332 158.757h-24.832v-15.07c-10.047 11.352-19.535 17.023-28.46 17.023-8.556 0-13.954-3.444-16.185-10.324-1.485-4.464-2.23-11.256-2.23-20.37V307.477h24.83V409.04c0 5.95.093 9.206.28 9.765.562 3.906 2.512 5.86 5.86 5.86 5.022 0 10.327-3.907 15.905-11.72V307.477h24.832v137.835zm94.87-41.296c0 13.578-.837 22.886-2.51 27.91-3.163 10.223-9.765 15.34-19.81 15.34-8.924 0-17.58-5.117-25.953-15.34v13.39h-24.83v-184.99h24.83v60.548c8.007-10.04 16.648-15.062 25.952-15.062 10.047 0 16.648 5.21 19.812 15.625 1.672 4.836 2.51 14.043 2.51 27.62v54.96zm94.304-22.875h-49.937v24.274c0 12.836 4.274 19.25 12.83 19.25 6.14 0 9.858-3.344 11.163-10.047.367-1.86.555-7.53.555-17.016h25.392v3.626c0 9.117-.188 14.508-.555 16.188-.556 5.017-2.51 10.04-5.86 15.062-6.695 9.86-16.748 14.79-30.14 14.79-12.828 0-22.875-4.747-30.133-14.228-5.39-6.883-8.086-17.672-8.086-32.367V352.4c0-14.695 2.602-25.484 7.806-32.367 7.257-9.483 17.21-14.226 29.858-14.226 12.468 0 22.327 4.742 29.578 14.227 5.023 6.884 7.53 17.673 7.53 32.368v28.743z"/><path d="M295.758 328.406c-4.28 0-8.46 2.053-12.555 6.14v83.98c4.094 4.09 8.274 6.138 12.555 6.138 7.25 0 10.883-6.228 10.883-18.695V347.1c0-12.465-3.63-18.696-10.882-18.696zM388.397 328.406c-8.374 0-12.555 6.327-12.555 18.97v12.835h25.11v-12.835c0-12.648-4.193-18.97-12.555-18.97zM145.098 111.328v75.617H173v-75.617L206.755 0h-28.458l-18.97 73.383L139.518 0H109.94c5.21 15.628 11.256 33.02 18.14 52.18 8.74 25.668 14.413 45.386 17.018 59.148zM244.143 188.898c12.834 0 22.693-4.742 29.576-14.23 5.202-6.883 7.81-17.86 7.81-32.922V92.914c0-14.88-2.608-25.762-7.81-32.645-6.884-9.49-16.743-14.23-29.577-14.23-12.468 0-22.234 4.74-29.297 14.23-5.208 6.882-7.812 17.764-7.812 32.644v48.832c0 14.88 2.602 25.855 7.812 32.922 7.066 9.488 16.828 14.23 29.297 14.23zm-12-101.007c0-12.835 4-19.253 12-19.253s11.998 6.418 11.998 19.254v58.595c0 13.023-3.997 19.53-11.997 19.53s-12-6.51-12-19.53V87.89zM320.867 188.898c9.305 0 18.89-5.766 28.742-17.3v15.344H375V47.714h-25.39V154.02c-5.58 8-10.877 11.996-15.907 11.996-3.35 0-5.304-2.047-5.86-6.137-.186-.376-.28-3.633-.28-9.77V47.714h-25.39v109.934c0 9.485.75 16.458 2.233 20.926 2.422 6.883 7.906 10.324 16.46 10.324z"/></symbol></svg>