<?xml version="1.0" standalone="no"?>
<!DOCTYPE svg PUBLIC "-//W3C//DTD SVG 1.1//EN" "http://www.w3.org/Graphics/SVG/1.1/DTD/svg11.dtd" >
<svg xmlns="http://www.w3.org/2000/svg">
<metadata>
This is a custom SVG webfont generated by Font Squirrel.
Copyright   : Copyright c 2008 by Process Type Foundry All rights reserved
Designer    : Eric Olson
Foundry     : Process Type Foundry
Foundry URL : httpwwwprocesstypefoundrycom
</metadata>
<defs>
<font id="KlavikaLightCondensed" horiz-adv-x="360" >
<font-face units-per-em="2048" ascent="1536" descent="-512" />
<missing-glyph horiz-adv-x="378" />
<glyph unicode=" "  horiz-adv-x="378" />
<glyph unicode="&#x09;" horiz-adv-x="378" />
<glyph unicode="&#xa0;" horiz-adv-x="378" />
<glyph unicode="!" horiz-adv-x="380" d="M133 0v176h115v-176h-115zM133 678v686h115v-686l-23 -342h-69z" />
<glyph unicode="&#x22;" horiz-adv-x="630" d="M123 866v498h102v-498h-102zM406 866v498h102v-498h-102z" />
<glyph unicode="#" horiz-adv-x="1052" d="M102 422l4 92h170l19 375h-172l4 92h172l20 383h97l-21 -383h283l20 383h97l-21 -383h166l-4 -92h-166l-18 -375h172l-4 -92h-172l-21 -422h-96l20 422h-282l-21 -422h-96l20 422h-170zM373 514h282l19 375h-283z" />
<glyph unicode="$" horiz-adv-x="782" d="M98 1032q0 158 63.5 230.5t182.5 91.5v200h109v-198q109 0 204 -39l-16 -98q-111 37 -223 36q-117 0 -161 -48t-44 -173q0 -129 28.5 -171t159.5 -103q125 -57 178.5 -98t79 -110t25.5 -196q0 -299 -252 -346v-200h-108v196q-123 10 -213 47l20 101q119 -45 223 -45 q113 0 164 56t51 179q0 152 -33.5 203t-185.5 117q-156 68 -204 138t-48 230z" />
<glyph unicode="%" horiz-adv-x="1415" d="M113 895v231q0 121 60 189.5t175 68.5t175.5 -68.5t60.5 -189.5v-231q0 -121 -60.5 -189.5t-175.5 -68.5t-175 68.5t-60 189.5zM211 891q0 -86 31.5 -125t105.5 -39t105.5 39t31.5 125v239q0 86 -31.5 125t-105.5 39t-105.5 -38.5t-31.5 -125.5v-239zM434 6l451 1383 l88 -33l-453 -1381zM821 238v231q0 121 60.5 189.5t175 68.5t175 -68.5t60.5 -189.5v-231q0 -121 -60.5 -189.5t-175 -68.5t-175 68.5t-60.5 189.5zM920 233q0 -86 31.5 -124.5t105 -38.5t105.5 38.5t32 124.5v240q0 86 -32 125t-105.5 39t-105 -39t-31.5 -125v-240z" />
<glyph unicode="&#x26;" horiz-adv-x="964" d="M102 287v151q0 209 162 258q-74 37 -102.5 94.5t-28.5 143.5v156q0 158 85 228.5t251 70.5q156 0 262 -35l-14 -101q-119 33 -248 33q-123 0 -172 -43t-49 -153v-170q0 -174 168 -175h450v-100h-129v-627q-119 -43 -305 -43q-330 1 -330 312zM217 293q0 -121 49 -170 t172 -49q115 0 191 16v555h-215q-104 0 -150.5 -51t-46.5 -158v-143z" />
<glyph unicode="'" horiz-adv-x="348" d="M123 866v498h102v-498h-102z" />
<glyph unicode="(" horiz-adv-x="573" d="M154 680q0 283 62.5 496t205.5 462l86 -43q-125 -240 -182.5 -450.5t-57.5 -464.5t57.5 -465t182.5 -451l-86 -43q-143 250 -205.5 463t-62.5 496z" />
<glyph unicode=")" horiz-adv-x="573" d="M66 -236q125 240 182 451t57 465t-57.5 465t-181.5 450l86 43q143 -250 205.5 -462.5t62.5 -495.5t-62.5 -496t-205.5 -463z" />
<glyph unicode="*" horiz-adv-x="794" d="M92 1071v72h242l-121 209l63 37l121 -211l123 211l64 -37l-123 -209h241v-72h-241l123 -211l-64 -35l-123 209l-121 -209l-63 35l123 211h-244z" />
<glyph unicode="+" horiz-adv-x="974" d="M123 657v91h315v380h99v-380h315v-91h-315v-381h-99v381h-315z" />
<glyph unicode="," horiz-adv-x="362" d="M100 -190l64 190h-43v193h119v-193l-88 -211z" />
<glyph unicode="-" horiz-adv-x="645" d="M123 547v98h399v-98h-399z" />
<glyph unicode="." d="M123 0v193h115v-193h-115z" />
<glyph unicode="/" horiz-adv-x="747" d="M102 -240l433 1624h110l-436 -1624h-107z" />
<glyph unicode="0" horiz-adv-x="929" d="M123 330v704q0 164 83 259.5t259 95.5t259 -95.5t83 -259.5v-704q0 -164 -83 -259.5t-259 -95.5t-259 95.5t-83 259.5zM238 324q0 -131 52 -188.5t175 -57.5t175 57.5t52 188.5v716q0 131 -52 188.5t-175 57.5t-175 -57.5t-52 -188.5v-716z" />
<glyph unicode="1" horiz-adv-x="567" d="M43 1124l281 240h100v-1364h-115v1217l-209 -166z" />
<glyph unicode="2" horiz-adv-x="784" d="M90 0v102l305 439q94 135 131 232t37 241v51q0 121 -44 171t-167 50q-109 0 -207 -43l-22 98q109 47 246 48q158 0 233.5 -72t75.5 -244v-53q0 -166 -37 -267.5t-137 -242.5l-297 -408h471v-102h-588z" />
<glyph unicode="3" horiz-adv-x="804" d="M86 25l20 98q113 -45 242 -45q125 0 177.5 55t52.5 164v139q0 106 -50.5 157.5t-158.5 51.5h-197v103h166q217 0 217 202v142q0 104 -47 149t-156 45q-115 0 -223 -45l-23 98q109 49 248 50q317 0 318 -289v-139q0 -203 -176 -261q197 -33 196 -262v-145 q0 -147 -87 -232.5t-257 -85.5q-153 1 -262 50z" />
<glyph unicode="4" horiz-adv-x="894" d="M78 369v102l446 893h154v-897h141v-98h-141v-369h-111v369h-489zM188 467h379v776z" />
<glyph unicode="5" horiz-adv-x="819" d="M106 10l15 103q115 -35 231 -35q262 0 262 239v103q0 121 -62.5 174t-193.5 53h-225v717h563v-102h-448v-512h127q154 0 254 -79t100 -233v-125q0 -158 -97 -248t-278 -90q-148 0 -248 35z" />
<glyph unicode="6" horiz-adv-x="884" d="M123 305v635q0 229 86 339t293 110q143 0 248 -35l-17 -103q-104 35 -225 35q-158 0 -214 -79t-56 -267v-244q123 72 266 72q289 0 289 -297v-168q0 -152 -92.5 -240t-247.5 -88q-162 0 -246 89t-84 241zM238 299q0 -223 215 -223q225 0 225 221v170q0 104 -48 152.5 t-157 48.5q-117 0 -235 -64v-305z" />
<glyph unicode="7" horiz-adv-x="817" d="M102 1262v102h633v-98l-448 -1266h-117l451 1262h-519z" />
<glyph unicode="8" horiz-adv-x="921" d="M119 295v63q0 123 56 201t173 143q-113 72 -157 146t-44 178v57q0 305 313.5 305.5t313.5 -305.5v-57q0 -104 -44 -178t-157 -146q117 -66 173.5 -143.5t56.5 -200.5v-63q0 -319 -342 -319t-342 319zM233 297q0 -121 55.5 -172t172.5 -51t172 51t55 172v61q0 102 -47 161 t-180 132q-133 -74 -180.5 -132t-47.5 -161v-61zM260 1018q0 -92 42 -142.5t159 -127.5q117 78 159 128t42 142v69q0 102 -47.5 152.5t-154 50.5t-153.5 -50t-47 -153v-69z" />
<glyph unicode="9" horiz-adv-x="886" d="M94 893v168q0 158 90 243t250 85q166 0 248 -86t82 -244v-656q0 -223 -92 -325.5t-293 -102.5q-123 0 -227 35l16 101q94 -33 190 -33q160 0 225.5 64.5t65.5 263.5v262q-123 -72 -266 -72q-141 0 -215 75t-74 222zM209 897q0 -106 47 -153.5t158 -47.5q121 0 235 64v305 q0 223 -215 223q-225 0 -225 -221v-170z" />
<glyph unicode=":" horiz-adv-x="380" d="M133 0v193h115v-193h-115zM133 659v193h115v-193h-115z" />
<glyph unicode=";" horiz-adv-x="380" d="M111 -190l63 190h-41v193h115v-193l-86 -211zM133 659v193h115v-193h-115z" />
<glyph unicode="&#x3c;" horiz-adv-x="995" d="M133 655v95l686 378l43 -86l-622 -340l622 -340l-43 -86z" />
<glyph unicode="=" horiz-adv-x="1015" d="M143 498v90h729v-90h-729zM143 817v90h729v-90h-729z" />
<glyph unicode="&#x3e;" horiz-adv-x="995" d="M133 362l623 340l-623 340l43 86l686 -378v-95l-686 -379z" />
<glyph unicode="?" horiz-adv-x="745" d="M92 1339q104 49 250 50q156 0 228.5 -69t72.5 -212v-92q0 -117 -35 -194t-110 -154l-209 -215l-74 77l170 177q78 80 110.5 144t32.5 161v90q0 102 -44 143t-150 41q-119 0 -219 -45zM229 0v176h115v-176h-115z" />
<glyph unicode="@" horiz-adv-x="1273" d="M113 641q0 334 165.5 541t438.5 207q236 0 371 -140.5t135 -376.5q0 -217 -87 -333.5t-239 -116.5q-78 0 -139 51q-86 -57 -180 -57q-66 0 -99 38t-20 103l51 291q27 152 182 151q111 0 205 -49l-78 -436q29 -10 70 -10q238 0 237 362q0 211 -106.5 321.5t-306.5 110.5 q-227 0 -365.5 -180t-138.5 -477q0 -272 135 -426t379 -154q164 0 285 52l18 -84q-129 -53 -319 -54q-270 0 -432 184.5t-162 481.5zM547 569q-12 -70 59 -69q74 0 133 37l64 358q-47 20 -115 20q-80 0 -94 -79z" />
<glyph unicode="A" horiz-adv-x="909" d="M45 0l346 1364h127l346 -1364h-112l-88 362h-420l-86 -362h-113zM268 465h371l-184 782z" />
<glyph unicode="B" horiz-adv-x="907" d="M133 0v1364h387q248 0 248 -256v-176q0 -162 -135 -221q92 -16 142 -82t50 -170v-174q0 -129 -77.5 -207t-219.5 -78h-395zM248 100h272q190 0 191 183v170q0 195 -172 194h-291v-547zM248 748h235q170 0 170 178v190q0 147 -133 148h-272v-516z" />
<glyph unicode="C" horiz-adv-x="780" d="M113 358v648q0 193 85 288t267 95q141 0 244 -37l-17 -99q-121 33 -223 33q-131 0 -186.5 -64.5t-55.5 -220.5v-639q0 -156 55.5 -220t186.5 -64q102 0 223 33l17 -99q-102 -37 -244 -37q-182 0 -267 95t-85 288z" />
<glyph unicode="D" horiz-adv-x="921" d="M133 0v1364h318q190 0 274 -99.5t84 -293.5v-578q0 -195 -84 -294t-274 -99h-318zM248 102h203q129 0 186 70t57 221v578q0 152 -57 221.5t-186 69.5h-203v-1160z" />
<glyph unicode="E" horiz-adv-x="798" d="M133 0v1364h584v-102h-469v-514h432v-103h-432v-543h469v-102h-584z" />
<glyph unicode="F" horiz-adv-x="782" d="M133 0v1364h588v-102h-473v-547h436v-103h-436v-612h-115z" />
<glyph unicode="G" horiz-adv-x="903" d="M113 360v629q0 207 94 303.5t305 96.5q147 0 268 -41l-14 -101q-135 39 -254 39q-158 0 -221.5 -65.5t-63.5 -235.5v-618q0 -154 58.5 -222.5t212.5 -68.5q82 0 172 14v520h110v-596q-133 -39 -291 -39q-376 0 -376 385z" />
<glyph unicode="H" horiz-adv-x="970" d="M133 0v1364h115v-610h475v610h115v-1364h-115v651h-475v-651h-115z" />
<glyph unicode="I" horiz-adv-x="393" d="M139 0v1364h115v-1364h-115z" />
<glyph unicode="J" horiz-adv-x="380" d="M-14 -356q147 156 147 311v1409h115v-1419q0 -201 -185 -369z" />
<glyph unicode="K" horiz-adv-x="858" d="M133 0v1364h115v-1364h-115zM276 694l402 670h131l-408 -670l422 -694h-131z" />
<glyph unicode="L" horiz-adv-x="741" d="M133 0v1364h115v-1262h440v-102h-555z" />
<glyph unicode="M" horiz-adv-x="1191" d="M117 0l33 1364h129l317 -913l317 913h129l33 -1364h-108l-21 1174l-289 -836h-122l-289 836l-21 -1174h-108z" />
<glyph unicode="N" horiz-adv-x="995" d="M133 0v1364h119l502 -1145v1145h108v-1364h-119l-501 1145v-1145h-109z" />
<glyph unicode="O" horiz-adv-x="950" d="M113 360v644q0 385 362.5 385t362.5 -385v-644q0 -184 -90.5 -284.5t-272.5 -100.5t-272 100.5t-90 284.5zM227 350q0 -141 59.5 -206.5t188.5 -65.5t188.5 65.5t59.5 206.5v654q0 150 -57.5 216t-190.5 66t-190.5 -66.5t-57.5 -215.5v-654z" />
<glyph unicode="P" horiz-adv-x="858" d="M133 0v1364h359q158 0 228.5 -80t70.5 -235v-154q0 -143 -80 -229t-236 -86h-227v-580h-115zM248 682h223q106 0 155.5 50t49.5 163v154q0 117 -43 165t-150 48h-235v-580z" />
<glyph unicode="Q" horiz-adv-x="950" d="M113 360v644q0 385 362.5 385t362.5 -385v-644q0 -311 -242 -370l121 -232l-96 -49l-148 266q-180 0 -270 100.5t-90 284.5zM227 350q0 -141 59.5 -206.5t188.5 -65.5t188.5 65.5t59.5 206.5v654q0 150 -57.5 216t-190.5 66t-190.5 -66.5t-57.5 -215.5v-654z" />
<glyph unicode="R" horiz-adv-x="935" d="M133 0v1364h379q158 0 228.5 -80t70.5 -235v-150q0 -242 -205 -301l268 -598h-124l-254 584h-248v-584h-115zM248 686h244q106 0 155 50t49 163v150q0 117 -43 165t-149 48h-256v-576z" />
<glyph unicode="S" horiz-adv-x="755" d="M72 1042q0 186 80.5 266.5t255.5 80.5q150 0 256 -48l-17 -100q-131 45 -241 45q-129 0 -174.5 -53t-45.5 -186q0 -125 32 -165t177 -112q131 -63 188.5 -109.5t84 -118t26.5 -202.5q0 -176 -88 -270.5t-266 -94.5q-143 0 -252 43l18 105q117 -43 238 -43 q131 0 183.5 63.5t52.5 188.5q0 154 -39 210t-185 120q-180 78 -232 153t-52 227z" />
<glyph unicode="T" horiz-adv-x="770" d="M45 1262v102h680v-102h-283v-1262h-114v1262h-283z" />
<glyph unicode="U" horiz-adv-x="970" d="M129 340v1024h115v-1030q0 -139 57 -197.5t184 -58.5t184.5 58.5t57.5 197.5v1030h115v-1024q0 -178 -89 -271.5t-267.5 -93.5t-267.5 93.5t-89 271.5z" />
<glyph unicode="V" horiz-adv-x="823" d="M33 1364h112l267 -1202l266 1202h113l-316 -1364h-127z" />
<glyph unicode="W" horiz-adv-x="1368" d="M41 1364h111l210 -1198l259 1198h127l258 -1198l211 1198h110l-258 -1364h-125l-260 1235l-260 -1235h-125z" />
<glyph unicode="X" horiz-adv-x="839" d="M41 0l319 690l-311 674h119l252 -563l252 563h119l-312 -674l320 -690h-119l-260 582l-260 -582h-119z" />
<glyph unicode="Y" horiz-adv-x="774" d="M25 1364h120l242 -670l242 670h121l-306 -789v-575h-114v575z" />
<glyph unicode="Z" horiz-adv-x="843" d="M98 0v104l537 1158h-510v102h625v-104l-537 -1158h545v-102h-660z" />
<glyph unicode="[" horiz-adv-x="540" d="M164 -258v1876h305v-102h-190v-1672h190v-102h-305z" />
<glyph unicode="\" horiz-adv-x="747" d="M102 1384h111l432 -1624h-106z" />
<glyph unicode="]" horiz-adv-x="540" d="M72 -156h190v1672h-190v102h305v-1876h-305v102z" />
<glyph unicode="^" horiz-adv-x="819" d="M102 776l250 588h115l250 -588l-94 -35l-213 523l-213 -523z" />
<glyph unicode="_" horiz-adv-x="575" d="M-2 -174h580v-62h-580v62z" />
<glyph unicode="`" horiz-adv-x="712" d="M225 1278l58 84q88 -80 204 -162l-51 -76q-94 60 -211 154z" />
<glyph unicode="a" horiz-adv-x="776" d="M82 262.5q0 282.5 254 282.5h223v215q0 78 -35 106.5t-114 28.5q-127 0 -250 -51l-23 96q117 57 279 57q131 0 194.5 -52t63.5 -175v-770h-92l-15 72q-39 -35 -105.5 -63.5t-133.5 -28.5q-246 0 -246 282.5zM197 264q0 -94 29.5 -140t113.5 -46q115 0 219 72v299h-207 q-92 0 -123.5 -46.5t-31.5 -138.5z" />
<glyph unicode="b" horiz-adv-x="825" d="M123 16v1389l115 16v-508q119 84 264 84q111 0 168 -68.5t57 -187.5v-442q0 -160 -87 -239.5t-249 -79.5q-139 -1 -268 36zM238 94q66 -14 151 -14q223 0 223 219v430q0 92 -32.5 129t-108.5 37q-129 0 -233 -76v-725z" />
<glyph unicode="c" horiz-adv-x="632" d="M94 272v433q0 137 76 214.5t215 77.5q121 0 199 -30l-17 -99q-80 27 -170 27q-100 0 -144 -48t-44 -153v-411q0 -104 44 -152.5t144 -48.5q90 0 170 27l17 -99q-78 -31 -199 -30q-139 0 -215 77.5t-76 214.5z" />
<glyph unicode="d" horiz-adv-x="825" d="M98 240v481q0 276 285 276q125 0 205 -30v438l114 16v-1421h-98l-10 72q-119 -92 -270 -92q-226 0 -226 260zM213 236q0 -156 127 -156q135 0 248 78v708q-78 29 -195 29q-96 0 -138 -42t-42 -134v-483z" />
<glyph unicode="e" horiz-adv-x="753" d="M94 303v383q0 160 82 235.5t219 75.5q281 0 281 -321v-225h-467v-152q0 -115 48 -167t161 -52q133 0 235 43l19 -96q-113 -47 -260 -47q-318 -1 -318 323zM209 549h356v131q0 111 -34.5 165t-135.5 54q-186 0 -186 -203v-147z" />
<glyph unicode="f" horiz-adv-x="524" d="M51 874v103h133v213q0 127 58.5 181t169.5 54q76 0 133 -22l-15 -96q-49 16 -108 16q-66 0 -94.5 -28.5t-28.5 -106.5v-211h209l-8 -103h-201v-874h-115v874h-133z" />
<glyph unicode="g" horiz-adv-x="765" d="M66 641v12q0 344 301 344q72 0 137 -20h237v-76l-118 -27q45 -82 45 -221v-12q0 -166 -76 -254t-225 -88q-27 0 -39 2q-49 -68 -49 -125q0 -59 75 -70l123 -18q115 -16 170 -74.5t55 -167.5q0 -141 -82.5 -205.5t-248.5 -64.5q-127 0 -238 33l14 96q111 -31 222 -31 q119 0 169 36t50 130q0 74 -31 103.5t-117 42.5l-110 16q-166 23 -166 162q0 86 72 158q-170 67 -170 319zM176 637q0 -135 47 -187.5t144 -52.5q94 0 142 54.5t48 185.5v20q0 135 -44 188.5t-146 53.5q-104 0 -147.5 -52t-43.5 -190v-20z" />
<glyph unicode="h" horiz-adv-x="833" d="M123 0v1405l115 16v-514q129 90 282 90q201 0 201 -194v-803h-115v780q0 111 -112.5 111t-255.5 -72v-819h-115z" />
<glyph unicode="i" d="M123 0v977h115v-977h-115zM123 1161v217h115v-217h-115z" />
<glyph unicode="j" d="M-23 -354q145 156 146 309v1022h115v-1032q0 -201 -183 -369zM123 1161v217h115v-217h-115z" />
<glyph unicode="k" horiz-adv-x="724" d="M123 0v1405l115 16v-1421h-115zM262 506l305 471h138l-316 -471l322 -506h-131z" />
<glyph unicode="l" d="M123 0v1405l115 16v-1421h-115z" />
<glyph unicode="m" horiz-adv-x="1296" d="M123 0v977h98l10 -72q127 92 279 92q133 0 180 -92q133 92 293 92q201 0 201 -194v-803h-115v780q0 111 -113 111q-111 0 -245 -72v-819h-115v780q0 111 -113 111q-111 0 -245 -72v-819h-115z" />
<glyph unicode="n" horiz-adv-x="833" d="M123 0v977h98l10 -72q131 92 289 92q201 0 201 -194v-803h-115v780q0 111 -112.5 111t-255.5 -72v-819h-115z" />
<glyph unicode="o" horiz-adv-x="819" d="M94 279v419q0 145 85 222t230.5 77t230.5 -76.5t85 -222.5v-419q0 -145 -85 -222t-230.5 -77t-230.5 77t-85 222zM209 276q0 -197 200.5 -196.5t200.5 196.5v424q0 197 -200.5 197t-200.5 -197v-424z" />
<glyph unicode="p" horiz-adv-x="825" d="M123 -420v1397h98l10 -72q121 92 271 92q225 0 225 -260v-481q0 -276 -285 -276q-125 0 -204 30v-413zM238 111q78 -29 194 -29q96 0 138 42t42 134v483q0 156 -127 156q-135 0 -247 -78v-708z" />
<glyph unicode="q" horiz-adv-x="829" d="M102 236v442q0 319 336 319q133 0 269 -39v-1361l-115 -17v483q-119 -84 -264 -83q-111 0 -168.5 68.5t-57.5 187.5zM217 246q0 -92 33 -129t108 -37q129 0 234 76v725q-66 14 -152 14q-121 0 -172 -51t-51 -166v-432z" />
<glyph unicode="r" horiz-adv-x="487" d="M123 0v977h100l6 -115q80 86 238 131l10 -112q-154 -53 -239 -111v-770h-115z" />
<glyph unicode="s" horiz-adv-x="659" d="M72 741q0 256 282 256q123 0 221 -36l-16 -97q-104 35 -207 35q-98 0 -132 -37t-34 -121q0 -82 29 -113.5t145 -70.5q139 -47 188.5 -106.5t49.5 -192.5q0 -279 -289 -278q-117 0 -221 36l18 97q102 -35 197 -35q96 0 138 41t42 129q0 96 -28.5 132t-143.5 73 q-139 45 -189 105t-50 183z" />
<glyph unicode="t" horiz-adv-x="552" d="M41 874v103h137v256l117 14v-270h219l-6 -103h-213v-706q0 -45 20.5 -65.5t71.5 -20.5q59 0 111 18l12 -96q-61 -25 -145 -24q-186 0 -187 182v712h-137z" />
<glyph unicode="u" horiz-adv-x="825" d="M119 174v803h114v-784q0 -111 113 -111q106 0 242 72v823h114v-977h-98l-10 72q-127 -92 -275 -92q-200 -1 -200 194z" />
<glyph unicode="v" horiz-adv-x="729" d="M31 977h116l218 -864l217 864h116l-266 -977h-135z" />
<glyph unicode="w" horiz-adv-x="1093" d="M37 977h115l135 -811l198 811h123l199 -811l135 811h115l-193 -977h-110l-207 850l-207 -850h-111z" />
<glyph unicode="x" horiz-adv-x="696" d="M31 0l260 492l-256 485h121l192 -379l193 379h121l-259 -485l263 -492h-121l-197 385l-196 -385h-121z" />
<glyph unicode="y" horiz-adv-x="729" d="M31 977h116l218 -875l217 875h116l-260 -977l-104 -403h-111l109 403h-41z" />
<glyph unicode="z" horiz-adv-x="712" d="M92 0v98l416 781h-397v98h514v-98l-414 -781h420v-98h-539z" />
<glyph unicode="{" horiz-adv-x="565" d="M92 629v102h33q49 0 69.5 19.5t20.5 64.5v608q0 104 44 149.5t138 45.5h103v-102h-103q-37 0 -52 -19.5t-15 -62.5v-611q0 -131 -129 -143q129 -6 129 -143v-611q0 -43 15 -62.5t52 -19.5h103v-102h-103q-94 0 -138 45t-44 150v608q0 45 -20.5 64.5t-69.5 19.5h-33z" />
<glyph unicode="|" horiz-adv-x="512" d="M205 -258v1876h102v-1876h-102z" />
<glyph unicode="}" horiz-adv-x="565" d="M66 -156h102q37 0 52.5 19.5t15.5 62.5v611q0 137 129 143q-129 12 -129 143v611q0 43 -15.5 62.5t-52.5 19.5h-102v102h102q94 0 138 -45t44 -150v-608q0 -45 20.5 -64.5t69.5 -19.5h33v-102h-33q-49 0 -69.5 -19.5t-20.5 -64.5v-608q0 -104 -44 -149.5t-138 -45.5h-102 v102z" />
<glyph unicode="~" horiz-adv-x="876" d="M113 582q12 127 54 188t124 61q43 0 77.5 -17t90.5 -66q10 -8 27.5 -23.5t24.5 -22t19.5 -16.5t19.5 -13t16 -6t20 -3q31 0 51 26.5t28.5 54t22.5 89.5l76 -21q-41 -236 -176 -235q-16 0 -32.5 4t-27 7t-28 15t-23.5 16.5t-28.5 23t-28.5 24.5q-8 6 -25.5 21.5 t-23.5 20.5t-18.5 13t-19.5 11t-17.5 6t-20.5 3q-49 0 -69.5 -42t-30.5 -132z" />
<glyph unicode="&#xa1;" horiz-adv-x="401" d="M143 283l23 342h70l22 -342v-686h-115v686zM143 801v176h115v-176h-115z" />
<glyph unicode="&#xa2;" horiz-adv-x="751" d="M123 471v422q0 127 61.5 202.5t175.5 92.5v176h107v-174q96 -4 172 -35l-14 -96q-92 29 -199 28q-98 0 -143 -49t-45 -153v-406q0 -104 44 -153.5t144 -49.5q104 0 199 29l14 -96q-74 -31 -172 -35v-174h-107v176q-115 16 -176 92t-61 203z" />
<glyph unicode="&#xa3;" horiz-adv-x="864" d="M102 0v102q170 248 183 512h-176v101h176v342q0 332 311 332q123 0 211 -33l-16 -99q-90 29 -187 29q-109 0 -157 -53t-48 -180v-338h310l-7 -101h-305q-8 -270 -184 -512h526v-102h-637z" />
<glyph unicode="&#xa4;" horiz-adv-x="987" d="M113 209l129 129q-49 76 -49 199v292q0 123 49 197l-129 131l71 72l131 -131q70 43 178.5 43t178.5 -43l131 131l71 -72l-131 -131q51 -76 52 -197v-292q0 -119 -52 -199l131 -129l-71 -72l-131 131q-70 -43 -178.5 -43t-178.5 43l-131 -131zM303 532q0 -117 49 -162.5 t141.5 -45.5t141.5 46t49 162v302q0 117 -49 162.5t-141.5 45.5t-141.5 -46t-49 -162v-302z" />
<glyph unicode="&#xa5;" horiz-adv-x="811" d="M82 1364h121l203 -657l202 657h121l-192 -563h168v-99h-201l-41 -118v-84h242v-94h-242v-406h-115v406h-242v94h242v84l-41 118h-201v99h166z" />
<glyph unicode="&#xa6;" horiz-adv-x="512" d="M205 -258v754h102v-754h-102zM205 864v754h102v-754h-102z" />
<glyph unicode="&#xa7;" horiz-adv-x="968" d="M133 1145q0 244 252 244q113 0 207 -41l-19 -97q-88 37 -184 37q-80 0 -111.5 -35.5t-31.5 -115.5q0 -434 221 -1102l-96 -35q-238 678 -238 1145zM408 -342l18 96q88 -37 184 -37q80 0 112 36t32 116q0 434 -222 1102l97 35q238 -678 237 -1145q0 -244 -252 -244 q-112 0 -206 41z" />
<glyph unicode="&#xa8;" horiz-adv-x="835" d="M225 1155v141h111v-141h-111zM500 1155v141h110v-141h-110z" />
<glyph unicode="&#xa9;" horiz-adv-x="1630" d="M113 682q0 303 188 503.5t514 200.5t514.5 -200.5t188.5 -503.5q0 -301 -188.5 -501.5t-514.5 -200.5t-514 200.5t-188 501.5zM182 682q0 -276 170 -457.5t463 -181.5t463 181.5t170 457.5t-170 458.5t-463 182.5t-463 -182.5t-170 -458.5zM586 555v262q0 225 229 225 q94 0 189 -24l-15 -94q-82 20 -158 20q-78 0 -109.5 -28.5t-31.5 -100.5v-258q0 -72 32 -100.5t109 -28.5q76 0 158 21l15 -95q-94 -25 -189 -24q-229 0 -229 225z" />
<glyph unicode="&#xaa;" horiz-adv-x="684" d="M143 926q0 96 41 138t129 42h146v108q0 59 -22.5 79t-88.5 20q-76 0 -162 -33l-14 70q84 39 182.5 39t142.5 -36t44 -126v-469h-68l-10 51q-25 -25 -70 -45.5t-90 -20.5q-80 0 -120 48.5t-40 134.5zM225 924q0 -109 94 -109q66 0 140 53v166h-135q-59 0 -79 -23.5 t-20 -86.5z" />
<glyph unicode="&#xab;" horiz-adv-x="946" d="M133 541l232 417l94 -47l-211 -370l211 -371l-94 -47zM467 541l231 417l95 -47l-211 -370l211 -371l-95 -47z" />
<glyph unicode="&#xac;" horiz-adv-x="1005" d="M133 850v90h729v-471h-98v381h-631z" />
<glyph unicode="&#xad;" horiz-adv-x="645" d="M123 547v98h399v-98h-399z" />
<glyph unicode="&#xae;" horiz-adv-x="964" d="M113 1054.5q0 159.5 98 265t272 105.5t271.5 -105.5t97.5 -265t-97.5 -265t-271.5 -105.5t-272 105.5t-98 265zM160 1055q0 -137 83 -232.5t240.5 -95.5t239.5 95.5t82 232.5t-82 232t-239.5 95t-240.5 -95t-83 -232zM369 893v340h155q88 0 88 -88v-51q0 -57 -49 -78 l92 -123h-73l-80 113h-74v-113h-59zM428 1055h80q45 0 45 43v43q0 43 -45 43h-80v-129z" />
<glyph unicode="&#xaf;" horiz-adv-x="849" d="M225 1159v96h400v-96h-400z" />
<glyph unicode="&#xb0;" horiz-adv-x="671" d="M123 1173.5q0 92.5 57.5 154t155.5 61.5t155.5 -61.5t57.5 -153.5q0 -90 -57.5 -151.5t-155.5 -61.5q-100 0 -156.5 60t-56.5 152.5zM201 1173.5q0 -63.5 34.5 -103.5t100 -40t100.5 40t35 103.5t-35 104.5t-100.5 41t-100 -41t-34.5 -104.5z" />
<glyph unicode="&#xb1;" horiz-adv-x="1036" d="M154 0v90h729v-90h-729zM154 657v91h315v380h98v-380h316v-91h-316v-381h-98v381h-315z" />
<glyph unicode="&#xb2;" horiz-adv-x="755" d="M164 836v79l207 242q66 76 95.5 131t29.5 125v55q0 66 -28 92.5t-99 26.5q-88 0 -174 -31l-17 86q82 35 195 35q219 0 219 -209v-43q0 -168 -119 -292l-192 -207h303v-90h-420z" />
<glyph unicode="&#xb3;" horiz-adv-x="735" d="M154 844l16 84q78 -25 168 -25q137 0 137 117v74q0 113 -121 112h-141v88h131q119 0 119 99v86q0 63 -28.5 86.5t-96.5 23.5q-84 0 -162 -28l-14 86q76 31 178 30q113 0 166 -44t53 -140v-84q0 -121 -102 -156q115 -31 114 -166v-65q0 -96 -58 -151.5t-167 -55.5 q-112 0 -192 29z" />
<glyph unicode="&#xb4;" horiz-adv-x="714" d="M225 1200q133 94 205 162l59 -84q-82 -72 -210 -154z" />
<glyph unicode="&#xb5;" horiz-adv-x="833" d="M123 -420v1397h115v-784q0 -59 24.5 -85t87.5 -26q113 0 246 72v823h115v-977h-99l-10 72q-127 -92 -278 -92q-61 0 -86 28v-411z" />
<glyph unicode="&#xb6;" horiz-adv-x="892" d="M123 944.5q0 190.5 112.5 303t272.5 116.5v-840q-160 4 -272.5 117t-112.5 303.5zM469 -358q18 27 51 72.5t44 62t29.5 47.5t25 47t11.5 38.5t5 45.5v1409h115v-1405q0 -88 -33 -151.5t-162 -231.5z" />
<glyph unicode="&#xb7;" d="M123 565v193h115v-193h-115z" />
<glyph unicode="&#xb8;" horiz-adv-x="747" d="M223 -408l15 82q41 -14 90 -14q92 0 92 70q0 37 -22.5 54t-71.5 26l-66 10l33 180h86l-19 -119l13 -2q150 -25 149 -147q0 -74 -49 -115t-139 -41q-58 0 -111 16z" />
<glyph unicode="&#xb9;" horiz-adv-x="569" d="M123 1511l188 150h74v-821h-94v692l-127 -86z" />
<glyph unicode="&#xba;" horiz-adv-x="667" d="M133 942v248q0 96 53.5 147.5t147.5 51.5t147.5 -51.5t53.5 -147.5v-248q0 -96 -53.5 -147.5t-147.5 -51.5t-147.5 51.5t-53.5 147.5zM215 950q0 -133 119 -133t119 133v232q0 133 -119 133t-119 -133v-232z" />
<glyph unicode="&#xbb;" horiz-adv-x="946" d="M154 170l211 371l-211 370l94 47l231 -417l-231 -418zM487 170l211 371l-211 370l95 47l231 -417l-231 -418z" />
<glyph unicode="&#xbc;" horiz-adv-x="1449" d="M143 1214l189 150h74v-821h-95v692l-127 -86zM389 -59l469 1474l84 -31l-469 -1474zM795 201v82l278 538h113v-536h100v-84h-100v-201h-86v201h-305zM883 285h217v426z" />
<glyph unicode="&#xbd;" horiz-adv-x="1474" d="M143 1214l189 150h74v-821h-95v692l-127 -86zM389 -59l469 1474l84 -31l-469 -1474zM881 0v80l206 242q66 76 95.5 131t29.5 125v55q0 66 -27.5 92.5t-99.5 26.5q-88 0 -174 -31l-16 86q82 35 195 35q219 0 219 -209v-43q0 -168 -119 -293l-193 -207h303v-90h-419z" />
<glyph unicode="&#xbe;" horiz-adv-x="1538" d="M137 551l17 84q78 -25 168 -25q137 0 137 117v74q0 113 -121 112h-141v88h131q119 0 118 99v86q0 63 -28.5 86.5t-95.5 23.5q-84 0 -162 -28l-15 86q76 31 179 30q113 0 166 -44t53 -140v-84q0 -121 -103 -155q115 -31 115 -166v-66q0 -96 -58.5 -151.5t-166.5 -55.5 q-113 0 -193 29zM477 -59l469 1474l84 -31l-469 -1474zM883 201v82l278 538h113v-536h100v-84h-100v-201h-86v201h-305zM971 285h217v426z" />
<glyph unicode="&#xbf;" horiz-adv-x="761" d="M92 -37q0 117 35 193.5t111 154.5l208 215l74 -77l-170 -177q-78 -80 -110.5 -144.5t-32.5 -160.5v-90q0 -102 44 -143t150 -41q119 0 220 45l22 -98q-104 -49 -250 -50q-156 0 -228.5 69t-72.5 212v92zM391 801v176h115v-176h-115z" />
<glyph unicode="&#xc0;" horiz-adv-x="909" d="M45 0l346 1364h127l346 -1364h-112l-88 362h-420l-86 -362h-113zM264 1620l60 82q78 -72 194 -156l-49 -73q-119 73 -205 147zM268 465h371l-184 782z" />
<glyph unicode="&#xc1;" horiz-adv-x="909" d="M45 0l346 1364h127l346 -1364h-112l-88 362h-420l-86 -362h-113zM268 465h371l-184 782zM391 1546q117 84 195 156l59 -82q-94 -80 -205 -147z" />
<glyph unicode="&#xc2;" horiz-adv-x="909" d="M45 0l346 1364h127l346 -1364h-112l-88 362h-420l-86 -362h-113zM264 1538q127 106 191 164q63 -57 190 -164l-49 -65q-86 63 -141 108q-55 -45 -142 -108zM268 465h371l-184 782z" />
<glyph unicode="&#xc3;" horiz-adv-x="909" d="M45 0l346 1364h127l346 -1364h-112l-88 362h-420l-86 -362h-113zM229 1552q55 106 140 107q49 0 100 -33t78 -33q39 0 74 58l69 -39q-55 -109 -143 -109q-45 0 -100.5 33t-73.5 33q-8 0 -14.5 -1t-12.5 -5t-10 -7.5t-10.5 -10.5t-8.5 -10l-9 -13.5t-9 -14.5zM268 465h371 l-184 782z" />
<glyph unicode="&#xc4;" horiz-adv-x="909" d="M45 0l346 1364h127l346 -1364h-112l-88 362h-420l-86 -362h-113zM266 1516v141h111v-141h-111zM268 465h371l-184 782zM535 1516v141h110v-141h-110z" />
<glyph unicode="&#xc5;" horiz-adv-x="909" d="M45 0l338 1333q-45 31 -45 97q0 49 30.5 81.5t86 32.5t86 -32.5t30.5 -81.5q0 -66 -47 -97l340 -1333h-112l-88 362h-420l-86 -362h-113zM268 465h371l-184 790zM403 1430q0 -55 51.5 -55.5t51.5 55.5q0 57 -51.5 57t-51.5 -57z" />
<glyph unicode="&#xc6;" horiz-adv-x="1234" d="M45 0l342 1364h766v-102h-606l129 -514h440v-103h-414l136 -543h315v-102h-401l-88 362h-420l-86 -362h-113zM268 465h371l-184 784z" />
<glyph unicode="&#xc7;" horiz-adv-x="780" d="M113 358v648q0 193 85 288t267 95q141 0 244 -37l-17 -99q-121 33 -223 33q-131 0 -186.5 -64.5t-55.5 -220.5v-639q0 -156 55.5 -220t186.5 -64q102 0 223 33l17 -99q-96 -33 -228 -37l-14 -94l12 -2q150 -25 150 -147q0 -74 -49.5 -115t-139.5 -41q-57 0 -110 16l14 82 q41 -14 90 -14q92 0 92 70q0 37 -22.5 54t-71.5 26l-65 10l28 160q-282 32 -282 378z" />
<glyph unicode="&#xc8;" horiz-adv-x="798" d="M133 0v1364h584v-102h-469v-514h432v-103h-432v-543h469v-102h-584zM274 1620l60 82q78 -72 194 -156l-49 -73q-119 73 -205 147z" />
<glyph unicode="&#xc9;" horiz-adv-x="798" d="M133 0v1364h584v-102h-469v-514h432v-103h-432v-543h469v-102h-584zM317 1546q117 84 195 156l59 -82q-94 -80 -204 -147z" />
<glyph unicode="&#xca;" horiz-adv-x="798" d="M133 0v1364h584v-102h-469v-514h432v-103h-432v-543h469v-102h-584zM242 1538q127 106 190 164q63 -57 191 -164l-50 -65q-86 63 -141 108q-55 -45 -141 -108z" />
<glyph unicode="&#xcb;" horiz-adv-x="798" d="M133 0v1364h584v-102h-469v-514h432v-103h-432v-543h469v-102h-584zM238 1516v141h110v-141h-110zM506 1516v141h110v-141h-110z" />
<glyph unicode="&#xcc;" horiz-adv-x="393" d="M12 1620l60 82q78 -72 194 -156l-49 -73q-119 73 -205 147zM139 0v1364h115v-1364h-115z" />
<glyph unicode="&#xcd;" horiz-adv-x="393" d="M139 0v1364h115v-1364h-115zM139 1546q117 84 195 156l59 -82q-94 -80 -205 -147z" />
<glyph unicode="&#xce;" horiz-adv-x="393" d="M6 1538q127 106 191 164q63 -57 190 -164l-49 -65q-86 63 -141 108q-55 -45 -142 -108zM139 0v1364h115v-1364h-115z" />
<glyph unicode="&#xcf;" horiz-adv-x="393" d="M8 1516v141h111v-141h-111zM139 0v1364h115v-1364h-115zM276 1516v141h111v-141h-111z" />
<glyph unicode="&#xd0;" horiz-adv-x="966" d="M82 631v102h96v631h318q190 0 274 -99.5t84 -293.5v-578q0 -195 -84 -294t-274 -99h-318v631h-96zM293 102h203q129 0 186 70t57 221v578q0 152 -57 221.5t-186 69.5h-203v-529h199v-102h-199v-529z" />
<glyph unicode="&#xd1;" horiz-adv-x="995" d="M133 0v1364h119l502 -1145v1145h108v-1364h-119l-501 1145v-1145h-109zM274 1552q55 106 140 107q49 0 100 -33t78 -33q39 0 74 58l69 -39q-55 -109 -143 -109q-45 0 -100.5 33t-73.5 33q-8 0 -14.5 -1t-12.5 -5t-10 -7.5t-10 -10.5t-8.5 -10t-9.5 -13.5t-9 -14.5z" />
<glyph unicode="&#xd2;" horiz-adv-x="950" d="M113 360v644q0 385 362.5 385t362.5 -385v-644q0 -184 -90.5 -284.5t-272.5 -100.5t-272 100.5t-90 284.5zM227 350q0 -141 59.5 -206.5t188.5 -65.5t188.5 65.5t59.5 206.5v654q0 150 -57.5 216t-190.5 66t-190.5 -66.5t-57.5 -215.5v-654zM311 1620l60 82 q78 -72 194 -156l-49 -73q-119 73 -205 147z" />
<glyph unicode="&#xd3;" horiz-adv-x="950" d="M113 360v644q0 385 362.5 385t362.5 -385v-644q0 -184 -90.5 -284.5t-272.5 -100.5t-272 100.5t-90 284.5zM227 350q0 -141 59.5 -206.5t188.5 -65.5t188.5 65.5t59.5 206.5v654q0 150 -57.5 216t-190.5 66t-190.5 -66.5t-57.5 -215.5v-654zM397 1546q117 84 195 156 l59 -82q-94 -80 -205 -147z" />
<glyph unicode="&#xd4;" horiz-adv-x="950" d="M113 360v644q0 385 362.5 385t362.5 -385v-644q0 -184 -90.5 -284.5t-272.5 -100.5t-272 100.5t-90 284.5zM227 350q0 -141 59.5 -206.5t188.5 -65.5t188.5 65.5t59.5 206.5v654q0 150 -57.5 216t-190.5 66t-190.5 -66.5t-57.5 -215.5v-654zM285 1538q127 106 190 164 q63 -57 191 -164l-50 -65q-86 63 -141 108q-55 -45 -141 -108z" />
<glyph unicode="&#xd5;" horiz-adv-x="950" d="M113 360v644q0 385 362.5 385t362.5 -385v-644q0 -184 -90.5 -284.5t-272.5 -100.5t-272 100.5t-90 284.5zM227 350q0 -141 59.5 -206.5t188.5 -65.5t188.5 65.5t59.5 206.5v654q0 150 -57.5 216t-190.5 66t-190.5 -66.5t-57.5 -215.5v-654zM242 1552q55 106 139 107 q49 0 100 -33t78 -33q39 0 74 58l69 -39q-55 -109 -143 -109q-45 0 -100.5 33t-73.5 33q-8 0 -14 -1t-12.5 -5t-10.5 -7.5t-10 -10.5t-8 -10t-9.5 -13.5t-9.5 -14.5z" />
<glyph unicode="&#xd6;" horiz-adv-x="950" d="M113 360v644q0 385 362.5 385t362.5 -385v-644q0 -184 -90.5 -284.5t-272.5 -100.5t-272 100.5t-90 284.5zM227 350q0 -141 59.5 -206.5t188.5 -65.5t188.5 65.5t59.5 206.5v654q0 150 -57.5 216t-190.5 66t-190.5 -66.5t-57.5 -215.5v-654zM287 1516v141h110v-141h-110z M555 1516v141h111v-141h-111z" />
<glyph unicode="&#xd7;" horiz-adv-x="983" d="M143 418l285 284l-285 285l64 64l285 -285l284 285l64 -64l-285 -285l285 -284l-64 -64l-284 285l-285 -285z" />
<glyph unicode="&#xd8;" horiz-adv-x="950" d="M113 -92l75 184q-76 96 -75 268v644q0 385 362 385q133 0 223 -58l64 156l76 -31l-76 -184q76 -96 76 -268v-644q0 -184 -90.5 -284.5t-272.5 -100.5q-133 0 -223 58l-64 -156zM227 350q0 -76 15 -125l413 1004q-57 57 -180 57q-133 0 -190.5 -66.5t-57.5 -215.5v-654z M295 135q57 -57 180 -57q129 0 188.5 65.5t59.5 206.5v654q0 74 -16 135z" />
<glyph unicode="&#xd9;" horiz-adv-x="970" d="M129 340v1024h115v-1030q0 -139 57 -197.5t184 -58.5t184.5 58.5t57.5 197.5v1030h115v-1024q0 -178 -89 -271.5t-267.5 -93.5t-267.5 93.5t-89 271.5zM334 1620l59 82q78 -72 195 -156l-49 -73q-119 73 -205 147z" />
<glyph unicode="&#xda;" horiz-adv-x="970" d="M129 340v1024h115v-1030q0 -139 57 -197.5t184 -58.5t184.5 58.5t57.5 197.5v1030h115v-1024q0 -178 -89 -271.5t-267.5 -93.5t-267.5 93.5t-89 271.5zM391 1546q117 84 195 156l59 -82q-94 -80 -205 -147z" />
<glyph unicode="&#xdb;" horiz-adv-x="970" d="M129 340v1024h115v-1030q0 -139 57 -197.5t184 -58.5t184.5 58.5t57.5 197.5v1030h115v-1024q0 -178 -89 -271.5t-267.5 -93.5t-267.5 93.5t-89 271.5zM295 1538q127 106 190 164q63 -57 191 -164l-49 -65q-86 63 -142 108q-55 -45 -141 -108z" />
<glyph unicode="&#xdc;" horiz-adv-x="966" d="M127 340v1024h115v-1030q0 -139 57 -197.5t184 -58.5t184.5 58.5t57.5 197.5v1030h115v-1024q0 -178 -89 -271.5t-267.5 -93.5t-267.5 93.5t-89 271.5zM295 1516v141h111v-141h-111zM563 1516v141h111v-141h-111z" />
<glyph unicode="&#xdd;" horiz-adv-x="774" d="M25 1364h120l242 -670l242 670h121l-306 -789v-575h-114v575zM313 1546q117 84 195 156l59 -82q-94 -80 -205 -147z" />
<glyph unicode="&#xde;" horiz-adv-x="858" d="M133 0v1364h115v-285h244q158 0 228.5 -79.5t70.5 -235.5v-154q0 -143 -80 -229t-236 -86h-227v-295h-115zM248 397h223q106 0 155.5 50.5t49.5 162.5v154q0 117 -43 165t-150 48h-235v-580z" />
<glyph unicode="&#xdf;" horiz-adv-x="927" d="M123 0v1073q0 168 93 251t235 83q127 0 206.5 -73.5t79.5 -194.5q0 -127 -73 -275q-12 -23 -32 -59.5t-27 -53t-14 -38t-7 -41.5q0 -37 21.5 -61.5t111.5 -100.5q94 -78 125.5 -130t31.5 -153q0 -113 -62 -175t-187 -62q-100 0 -174 28l14 101q74 -27 149 -27 q80 0 113 32t33 99q0 80 -24.5 115t-114.5 104q-92 72 -122 119t-30 109q0 27 8 56.5t15.5 45.5t31 61.5t29.5 59.5q70 139 70 240q0 88 -48.5 132t-132.5 44q-205 0 -204 -234v-1075h-115z" />
<glyph unicode="&#xe0;" horiz-adv-x="776" d="M82 262.5q0 282.5 254 282.5h223v215q0 78 -35 106.5t-114 28.5q-127 0 -250 -51l-23 96q117 57 279 57q131 0 194.5 -52t63.5 -175v-770h-92l-15 72q-39 -35 -105.5 -63.5t-133.5 -28.5q-246 0 -246 282.5zM197 264q0 -94 29.5 -140t113.5 -46q115 0 219 72v299h-207 q-92 0 -123.5 -46.5t-31.5 -138.5zM248 1278l57 84q88 -80 205 -162l-51 -76q-94 60 -211 154z" />
<glyph unicode="&#xe1;" horiz-adv-x="776" d="M82 262.5q0 282.5 254 282.5h223v215q0 78 -35 106.5t-114 28.5q-127 0 -250 -51l-23 96q117 57 279 57q131 0 194.5 -52t63.5 -175v-770h-92l-15 72q-39 -35 -105.5 -63.5t-133.5 -28.5q-246 0 -246 282.5zM197 264q0 -94 29.5 -140t113.5 -46q115 0 219 72v299h-207 q-92 0 -123.5 -46.5t-31.5 -138.5zM287 1200q133 94 205 162l59 -84q-82 -72 -211 -154z" />
<glyph unicode="&#xe2;" horiz-adv-x="776" d="M82 262.5q0 282.5 254 282.5h223v215q0 78 -35 106.5t-114 28.5q-127 0 -250 -51l-23 96q117 57 279 57q131 0 194.5 -52t63.5 -175v-770h-92l-15 72q-39 -35 -105.5 -63.5t-133.5 -28.5q-246 0 -246 282.5zM197 264q0 -94 29.5 -140t113.5 -46q115 0 219 72v299h-207 q-92 0 -123.5 -46.5t-31.5 -138.5zM211 1186q96 84 192 176q96 -92 193 -176l-57 -62q-82 70 -136 119q-53 -49 -135 -119z" />
<glyph unicode="&#xe3;" horiz-adv-x="776" d="M82 262.5q0 282.5 254 282.5h223v215q0 78 -35 106.5t-114 28.5q-127 0 -250 -51l-23 96q117 57 279 57q131 0 194.5 -52t63.5 -175v-770h-92l-15 72q-39 -35 -105.5 -63.5t-133.5 -28.5q-246 0 -246 282.5zM182 1174q55 106 140 106q49 0 100 -33t78 -33q25 0 40 13.5 t33 44.5l70 -39q-55 -109 -143 -109q-45 0 -100.5 33t-73.5 33q-8 0 -14.5 -1t-12.5 -5t-10 -7t-10.5 -10.5t-8.5 -10.5t-9 -13t-9 -15zM197 264q0 -94 29.5 -140t113.5 -46q115 0 219 72v299h-207q-92 0 -123.5 -46.5t-31.5 -138.5z" />
<glyph unicode="&#xe4;" horiz-adv-x="776" d="M82 262.5q0 282.5 254 282.5h223v215q0 78 -35 106.5t-114 28.5q-127 0 -250 -51l-23 96q117 57 279 57q131 0 194.5 -52t63.5 -175v-770h-92l-15 72q-39 -35 -105.5 -63.5t-133.5 -28.5q-246 0 -246 282.5zM197 264q0 -94 29.5 -140t113.5 -46q115 0 219 72v299h-207 q-92 0 -123.5 -46.5t-31.5 -138.5zM225 1155v141h111v-141h-111zM500 1155v141h110v-141h-110z" />
<glyph unicode="&#xe5;" horiz-adv-x="776" d="M82 262.5q0 282.5 254 282.5h223v215q0 78 -35 106.5t-114 28.5q-127 0 -250 -51l-23 96q117 57 279 57q131 0 194.5 -52t63.5 -175v-770h-92l-15 72q-39 -35 -105.5 -63.5t-133.5 -28.5q-246 0 -246 282.5zM197 264q0 -94 29.5 -140t113.5 -46q115 0 219 72v299h-207 q-92 0 -123.5 -46.5t-31.5 -138.5zM289 1243q0 53 31.5 86t89 33t89 -33t31.5 -86q0 -51 -31.5 -85t-89 -34t-89 34t-31.5 85zM354 1243q0 -59 55.5 -59t55.5 59q0 61 -55.5 61t-55.5 -61z" />
<glyph unicode="&#xe6;" horiz-adv-x="1218" d="M82 262q0 287 254 287h223v182q0 94 -43 129t-133 35q-123 0 -233 -51l-23 96q113 57 260 57q164 0 236 -102q78 102 237 102q281 0 281 -321v-223h-467v-177q0 -197 211 -196q127 0 233 41l19 -96q-111 -45 -258 -45q-180 0 -258 102q-117 -102 -283 -102 q-256 -1 -256 282zM197 264q0 -94 30.5 -140t122.5 -46q123 0 232 76q-23 59 -23 149v150h-207q-92 0 -123.5 -47.5t-31.5 -141.5zM674 549h356v131q0 111 -34.5 165t-135.5 54q-186 0 -186 -203v-147z" />
<glyph unicode="&#xe7;" horiz-adv-x="632" d="M94 272v433q0 137 76 214.5t215 77.5q121 0 199 -30l-17 -99q-80 27 -170 27q-100 0 -144 -48t-44 -153v-411q0 -104 44 -152.5t144 -48.5q90 0 170 27l17 -99q-57 -23 -174 -30l-15 -99l13 -2q150 -25 149 -147q0 -74 -49 -115t-139 -41q-57 0 -111 16l14 82 q41 -14 90 -14q92 0 93 70q0 37 -22.5 54t-72.5 26l-65 10l29 164q-111 14 -170.5 90.5t-59.5 197.5z" />
<glyph unicode="&#xe8;" horiz-adv-x="753" d="M94 303v383q0 160 82 235.5t219 75.5q281 0 281 -321v-225h-467v-152q0 -115 48 -167t161 -52q133 0 235 43l19 -96q-113 -47 -260 -47q-318 -1 -318 323zM209 549h356v131q0 111 -34.5 165t-135.5 54q-186 0 -186 -203v-147zM225 1278l58 84q88 -80 204 -162l-51 -76 q-94 60 -211 154z" />
<glyph unicode="&#xe9;" horiz-adv-x="753" d="M94 303v383q0 160 82 235.5t219 75.5q281 0 281 -321v-225h-467v-152q0 -115 48 -167t161 -52q133 0 235 43l19 -96q-113 -47 -260 -47q-318 -1 -318 323zM209 549h356v131q0 111 -34.5 165t-135.5 54q-186 0 -186 -203v-147zM274 1200q133 94 205 162l60 -84 q-82 -72 -211 -154z" />
<glyph unicode="&#xea;" horiz-adv-x="753" d="M94 303v383q0 160 82 235.5t219 75.5q281 0 281 -321v-225h-467v-152q0 -115 48 -167t161 -52q133 0 235 43l19 -96q-113 -47 -260 -47q-318 -1 -318 323zM199 1186q96 84 192 176q96 -92 193 -176l-58 -62q-82 70 -135 119q-53 -49 -135 -119zM209 549h356v131 q0 111 -34.5 165t-135.5 54q-186 0 -186 -203v-147z" />
<glyph unicode="&#xeb;" horiz-adv-x="753" d="M94 303v383q0 160 82 235.5t219 75.5q281 0 281 -321v-225h-467v-152q0 -115 48 -167t161 -52q133 0 235 43l19 -96q-113 -47 -260 -47q-318 -1 -318 323zM195 1155v141h110v-141h-110zM209 549h356v131q0 111 -34.5 165t-135.5 54q-186 0 -186 -203v-147zM469 1155v141 h111v-141h-111z" />
<glyph unicode="&#xec;" d="M-12 1278l57 84q88 -80 205 -162l-51 -76q-94 60 -211 154zM123 0v977h115v-977h-115z" />
<glyph unicode="&#xed;" d="M109 1200q133 94 204 162l60 -84q-82 -72 -211 -154zM123 0v977h115v-977h-115z" />
<glyph unicode="&#xee;" d="M-12 1186q96 84 192 176q96 -92 193 -176l-58 -62q-82 70 -135 119q-53 -49 -135 -119zM123 0v977h115v-977h-115z" />
<glyph unicode="&#xef;" d="M-12 1155v141h110v-141h-110zM123 0v977h115v-977h-115zM262 1155v141h111v-141h-111z" />
<glyph unicode="&#xf0;" horiz-adv-x="847" d="M113 342v281q0 168 83 245.5t218 77.5q111 0 207 -45q-8 158 -113 268l-268 -141l-39 78l239 125q-115 84 -266 123l27 92q203 -53 336 -166l161 86l39 -76l-137 -73q135 -150 135 -422v-453q0 -164 -75.5 -263t-235.5 -99q-311 0 -311 362zM227 332q0 -135 43 -195.5 t154 -60.5q109 0 153 62.5t44 193.5v477q-96 35 -197 35q-104 0 -150.5 -50.5t-46.5 -172.5v-289z" />
<glyph unicode="&#xf1;" horiz-adv-x="833" d="M123 0v977h98l10 -72q131 92 289 92q201 0 201 -194v-803h-115v780q0 111 -112.5 111t-255.5 -72v-819h-115zM195 1174q55 106 139 106q49 0 100 -33t78 -33q25 0 40 13.5t34 44.5l69 -39q-55 -109 -143 -109q-45 0 -100.5 33t-73.5 33q-8 0 -14.5 -1t-12.5 -5t-10 -7 t-10 -10.5t-8 -10.5t-9.5 -13t-9.5 -15z" />
<glyph unicode="&#xf2;" horiz-adv-x="819" d="M94 279v419q0 145 85 222t230.5 77t230.5 -76.5t85 -222.5v-419q0 -145 -85 -222t-230.5 -77t-230.5 77t-85 222zM209 276q0 -197 200.5 -196.5t200.5 196.5v424q0 197 -200.5 197t-200.5 -197v-424zM227 1278l58 84q88 -80 204 -162l-51 -76q-94 60 -211 154z" />
<glyph unicode="&#xf3;" horiz-adv-x="819" d="M94 279v419q0 145 85 222t230.5 77t230.5 -76.5t85 -222.5v-419q0 -145 -85 -222t-230.5 -77t-230.5 77t-85 222zM209 276q0 -197 200.5 -196.5t200.5 196.5v424q0 197 -200.5 197t-200.5 -197v-424zM309 1200q133 94 205 162l59 -84q-82 -72 -211 -154z" />
<glyph unicode="&#xf4;" horiz-adv-x="819" d="M94 279v419q0 145 85 222t230.5 77t230.5 -76.5t85 -222.5v-419q0 -145 -85 -222t-230.5 -77t-230.5 77t-85 222zM209 276q0 -197 200.5 -196.5t200.5 196.5v424q0 197 -200.5 197t-200.5 -197v-424zM217 1186q96 84 193 176q96 -92 192 -176l-57 -62q-82 70 -135 119 q-53 -49 -136 -119z" />
<glyph unicode="&#xf5;" horiz-adv-x="819" d="M94 279v419q0 145 85 222t230.5 77t230.5 -76.5t85 -222.5v-419q0 -145 -85 -222t-230.5 -77t-230.5 77t-85 222zM186 1174q55 106 140 106q49 0 100 -33t78 -33q25 0 40 13.5t34 44.5l69 -39q-55 -109 -143 -109q-45 0 -100.5 33t-73.5 33q-8 0 -14.5 -1t-12.5 -5 t-10 -7t-10.5 -10.5t-8.5 -10.5t-9 -13t-9 -15zM209 276q0 -197 200.5 -196.5t200.5 196.5v424q0 197 -200.5 197t-200.5 -197v-424z" />
<glyph unicode="&#xf6;" horiz-adv-x="819" d="M94 279v419q0 145 85 222t230.5 77t230.5 -76.5t85 -222.5v-419q0 -145 -85 -222t-230.5 -77t-230.5 77t-85 222zM209 276q0 -197 200.5 -196.5t200.5 196.5v424q0 197 -200.5 197t-200.5 -197v-424zM217 1155v141h111v-141h-111zM492 1155v141h110v-141h-110z" />
<glyph unicode="&#xf7;" horiz-adv-x="995" d="M133 657v91h729v-91h-729zM440 276v177h115v-177h-115zM440 952v176h115v-176h-115z" />
<glyph unicode="&#xf8;" horiz-adv-x="819" d="M94 -70l68 142q-68 78 -68 207v419q0 145 85 222t231 77q102 0 178 -41l69 144l68 -33l-76 -158q76 -68 76 -211v-419q0 -145 -85 -222t-230 -77q-111 0 -189 43l-59 -125zM209 276q0 -47 10 -83l324 669q-49 35 -133 35q-201 0 -201 -197v-424zM268 119q47 -39 142 -39 q201 0 200 196v424q0 53 -16 97z" />
<glyph unicode="&#xf9;" horiz-adv-x="825" d="M119 174v803h114v-784q0 -111 113 -111q106 0 242 72v823h114v-977h-98l-10 72q-127 -92 -275 -92q-200 -1 -200 194zM258 1278l57 84q88 -80 205 -162l-51 -76q-94 60 -211 154z" />
<glyph unicode="&#xfa;" horiz-adv-x="825" d="M119 174v803h114v-784q0 -111 113 -111q106 0 242 72v823h114v-977h-98l-10 72q-127 -92 -275 -92q-200 -1 -200 194zM313 1200q133 94 205 162l60 -84q-82 -72 -211 -154z" />
<glyph unicode="&#xfb;" horiz-adv-x="825" d="M119 174v803h114v-784q0 -111 113 -111q106 0 242 72v823h114v-977h-98l-10 72q-127 -92 -275 -92q-200 -1 -200 194zM229 1186q96 84 193 176q96 -92 192 -176l-57 -62q-82 70 -135 119q-53 -49 -135 -119z" />
<glyph unicode="&#xfc;" horiz-adv-x="825" d="M119 174v803h114v-784q0 -111 113 -111q106 0 242 72v823h114v-977h-98l-10 72q-127 -92 -275 -92q-200 -1 -200 194zM229 1155v141h111v-141h-111zM504 1155v141h110v-141h-110z" />
<glyph unicode="&#xfd;" horiz-adv-x="729" d="M31 977h116l218 -875l217 875h116l-260 -977l-104 -403h-111l109 403h-41zM268 1200q133 94 205 162l59 -84q-82 -72 -210 -154z" />
<glyph unicode="&#xfe;" horiz-adv-x="825" d="M123 -420v1825l115 16v-512q125 88 264 88q225 0 225 -260v-481q0 -276 -285 -276q-125 0 -204 30v-413zM238 111q78 -29 194 -29q96 0 138 42t42 134v483q0 156 -127 156q-135 0 -247 -78v-708z" />
<glyph unicode="&#xff;" horiz-adv-x="729" d="M31 977h116l218 -875l217 875h116l-260 -977l-104 -403h-111l109 403h-41zM170 1155v141h111v-141h-111zM444 1155v141h111v-141h-111z" />
<glyph unicode="&#x152;" horiz-adv-x="1318" d="M113 385v594q0 385 362 385h762v-102h-469v-514h432v-103h-432v-543h469v-102h-762q-362 0 -362 385zM227 385q0 -150 57.5 -216.5t190.5 -66.5h178v1160h-178q-133 0 -190.5 -67t-57.5 -216v-594z" />
<glyph unicode="&#x153;" horiz-adv-x="1269" d="M94 279v419q0 145 85 222t231 77q170 0 256 -118q76 119 245 118q281 0 281 -321v-225h-467v-175q0 -102 51 -149t162 -47q125 0 231 41l19 -96q-111 -45 -258 -45q-90 0 -160 32.5t-102 89.5q-88 -123 -260 -122q-147 0 -230.5 77t-83.5 222zM209 276q0 -197 199 -196 q203 0 202 196v426q0 195 -200.5 195t-200.5 -197v-424zM725 549h356v131q0 111 -34.5 165t-135.5 54q-186 0 -186 -203v-147z" />
<glyph unicode="&#x178;" horiz-adv-x="774" d="M25 1364h120l242 -670l242 670h121l-306 -789v-575h-114v575zM199 1516v141h110v-141h-110zM467 1516v141h111v-141h-111z" />
<glyph unicode="&#x2c6;" horiz-adv-x="815" d="M215 1186q96 84 193 176q96 -92 192 -176l-57 -62q-82 70 -135 119q-53 -49 -136 -119z" />
<glyph unicode="&#x2dc;" horiz-adv-x="911" d="M225 1174q55 106 140 106q49 0 100 -33t78 -33q39 0 73 58l70 -39q-55 -109 -143 -109q-45 0 -100.5 33t-73.5 33q-8 0 -14.5 -1t-12.5 -5t-10 -7t-10.5 -10.5t-8.5 -10.5t-9 -13t-9 -15z" />
<glyph unicode="&#x2000;" horiz-adv-x="849" />
<glyph unicode="&#x2001;" horiz-adv-x="1701" />
<glyph unicode="&#x2002;" horiz-adv-x="849" />
<glyph unicode="&#x2003;" horiz-adv-x="1701" />
<glyph unicode="&#x2004;" horiz-adv-x="567" />
<glyph unicode="&#x2005;" horiz-adv-x="423" />
<glyph unicode="&#x2006;" horiz-adv-x="282" />
<glyph unicode="&#x2007;" horiz-adv-x="282" />
<glyph unicode="&#x2008;" horiz-adv-x="210" />
<glyph unicode="&#x2009;" horiz-adv-x="339" />
<glyph unicode="&#x200a;" horiz-adv-x="94" />
<glyph unicode="&#x2010;" horiz-adv-x="645" d="M123 547v98h399v-98h-399z" />
<glyph unicode="&#x2011;" horiz-adv-x="645" d="M123 547v98h399v-98h-399z" />
<glyph unicode="&#x2012;" horiz-adv-x="645" d="M123 547v98h399v-98h-399z" />
<glyph unicode="&#x2013;" horiz-adv-x="946" d="M123 547v98h700v-98h-700z" />
<glyph unicode="&#x2014;" horiz-adv-x="1298" d="M123 547v98h1053v-98h-1053z" />
<glyph unicode="&#x2018;" horiz-adv-x="354" d="M123 915v197l96 270l53 -18l-75 -252h41v-197h-115z" />
<glyph unicode="&#x2019;" horiz-adv-x="333" d="M82 915l76 252h-41v197h114v-197l-96 -270z" />
<glyph unicode="&#x201a;" horiz-adv-x="362" d="M90 -252l76 252h-41v197h115v-197l-97 -270z" />
<glyph unicode="&#x201c;" horiz-adv-x="630" d="M123 915v197l96 270l53 -18l-75 -252h41v-197h-115zM399 915v197l97 270l53 -18l-76 -252h41v-197h-115z" />
<glyph unicode="&#x201d;" horiz-adv-x="610" d="M82 915l76 252h-41v197h114v-197l-96 -270zM358 915l76 252h-41v197h115v-197l-96 -270z" />
<glyph unicode="&#x201e;" horiz-adv-x="638" d="M90 -252l76 252h-41v197h115v-197l-97 -270zM367 -252l75 252h-41v197h115v-197l-96 -270z" />
<glyph unicode="&#x2022;" horiz-adv-x="784" d="M143 661.5q0 104.5 70 176t178.5 71.5t179 -71.5t70.5 -176t-70.5 -176t-179 -71.5t-178.5 71.5t-70 176z" />
<glyph unicode="&#x2026;" horiz-adv-x="1081" d="M123 0v176h115v-176h-115zM483 0v176h115v-176h-115zM844 0v176h114v-176h-114z" />
<glyph unicode="&#x202f;" horiz-adv-x="339" />
<glyph unicode="&#x2039;" horiz-adv-x="612" d="M133 541l232 417l94 -47l-211 -370l211 -371l-94 -47z" />
<glyph unicode="&#x203a;" horiz-adv-x="612" d="M154 170l211 371l-211 370l94 47l231 -417l-231 -418z" />
<glyph unicode="&#x205f;" horiz-adv-x="423" />
<glyph unicode="&#x20ac;" horiz-adv-x="890" d="M102 471v92h138v238h-138v92h138v98q0 201 79.5 299.5t266.5 98.5q125 0 213 -31l-15 -98q-84 27 -192 26q-139 0 -188.5 -69.5t-49.5 -229.5v-94h385v-92h-385v-238h385v-92h-385v-94q0 -160 49.5 -229.5t188.5 -69.5q109 0 192 26l15 -98q-88 -31 -213 -31 q-186 0 -266 98.5t-80 299.5v98h-138z" />
<glyph unicode="&#x2122;" horiz-adv-x="966" d="M92 1309v55h303v-55h-121v-351h-61v351h-121zM465 958l14 406h72l119 -305l118 305h72l14 -406h-63l-6 293l-94 -241h-82l-94 241l-7 -293h-63z" />
<glyph unicode="&#xe000;" horiz-adv-x="975" d="M0 975h975v-975h-975v975z" />
<glyph unicode="&#xfb01;" horiz-adv-x="864" d="M51 874v103h133v197q0 121 51.5 175t157.5 54q78 0 133 -19l-8 -98q-61 14 -110 14q-59 0 -84 -25.5t-25 -98.5v-199h193l-5 -103h-188v-874h-115v874h-133zM627 0v977h114v-977h-114zM627 1161v217h114v-217h-114z" />
<glyph unicode="&#xfb02;" horiz-adv-x="878" d="M51 874v103h133v217q0 229 222 229q76 0 137 -18l-11 -98q-57 14 -112 14q-66 0 -93.5 -26.5t-27.5 -98.5v-219h205l-4 -103h-201v-874h-115v874h-133zM641 0v1405l115 16v-1421h-115z" />
<glyph unicode="&#xfb03;" horiz-adv-x="1409" d="M1172 0v977h115v-977h-115zM1172 1161v217h115v-217h-115zM575 874v103h133v213q0 127 58.5 181t169.5 54q76 0 133 -22l-15 -96q-49 16 -108 16q-66 0 -94.5 -28.5t-28.5 -106.5v-211h209l-8 -103h-201v-874h-115v874h-133zM51 874v103h133v213q0 127 58.5 181t169.5 54 q76 0 133 -22l-15 -96q-49 16 -108 16q-66 0 -94.5 -28.5t-28.5 -106.5v-211h209l-8 -103h-201v-874h-115v874h-133z" />
<glyph unicode="&#xfb04;" horiz-adv-x="1409" d="M1172 0v1405l115 16v-1421h-115zM575 874v103h133v213q0 127 58.5 181t169.5 54q76 0 133 -22l-15 -96q-49 16 -108 16q-66 0 -94.5 -28.5t-28.5 -106.5v-211h209l-8 -103h-201v-874h-115v874h-133zM51 874v103h133v213q0 127 58.5 181t169.5 54q76 0 133 -22l-15 -96 q-49 16 -108 16q-66 0 -94.5 -28.5t-28.5 -106.5v-211h209l-8 -103h-201v-874h-115v874h-133z" />
</font>
</defs>
</svg>
