<svg xmlns="http://www.w3.org/2000/svg" width="500" height="500" viewBox="0 0 500 500" preserveAspectRatio="true">


<g id="minuba-2d-figure-3">
	<path d="M411.03,189.85c-0.04-0.03-104.88-51.86-104.88-51.86l-0.01-0.04c-5.51-2.54-17.18-7.42-30.28-9.62
		c-7.4,5.77-16.53,9.18-26.41,9.18c-9.37,0-18.06-3.07-25.24-8.31c-12.68,1.92-42.59,10.17-45.08,19.33
		c0,0-32.07,112.43-32.08,112.49c-1.72,6.59,6.06,14.33,17.37,17.27c11.31,2.94,21.86-0.01,23.58-6.6c0.01-0.02,3-12.61,6.95-29.4
		l0.08,0.54v39.17c0,0-2.4,151.35-2.4,151.43c0,8.82,12.62,15.98,27.75,15.98c15.13,0,27.38-6.85,27.38-15.67
		c0-0.09,0-127.74,0-127.74h0.16c-0.04,0-0.1-0.62-0.1-0.79c0-1.27,1.03-2.45,2.3-2.45c1.27,0,2.3,1.25,2.3,2.52
		c0,0.18-0.06,0.72-0.1,0.72h0.11c0,0-0.08,127.66-0.08,127.74c0,8.82,12.17,15.81,27.3,15.81c15.13,0,27.21-7.22,27.21-16.05
		c0-0.08-3.9-151.46-3.9-151.46s0.67-21.64,0.8-23.19l5.42-71.27c29.79,14.4,82.24,39.76,82.28,39.78
		c6.04,3.16,15.31-2.68,20.73-13.03C417.57,203.98,417.07,193.01,411.03,189.85z"/>
	<path d="M249.44,50.55c20.61,0,37.38,17.89,37.38,39.88c0,21.99-16.77,39.88-37.38,39.88
		c-20.61,0-37.38-17.89-37.38-39.88C212.06,68.44,228.83,50.55,249.44,50.55z"/>
	<path fill="#FFFFFF" d="M195,267.47v-9.96c9,11.1,30.79,19.09,54.32,19.09s45.33-8.21,54.51-18.96l-0.43,9.99
		c-12.6,9.81-31.64,16.17-54.07,16.17S207,277.28,195,267.47z"/>
</g>
<g id="minuba-2d-figure-2">
	<g>
		<path d="M256.3,129.67c-2.18-0.13-4.38-0.21-6.61-0.21c-2.25,0-4.5,0.07-6.72,0.19c2.18,0.42,4.42,0.66,6.72,0.66
			C251.94,130.31,254.15,130.08,256.3,129.67z"/>
		<path d="M371.1,251.1c-0.03-0.05-54.67-103.42-54.67-103.42c-4.24-8.14-36.29-15.75-45.11-16.12
			c-6.42,3.79-13.83,5.96-21.69,5.96c-7.85,0-14.93-2.16-21.34-5.94c-1.22,0.26-1.3,0.52-3.3,0.82c0-0.01,0-0.03,0-0.04
			c-7,0-54.56,12.3-57.28,35.4l-2.12,18.1c-2.48,18.78-11.78,88.55-11.79,88.61c-0.56,6.79,7.59,13.25,19.24,14.22
			c11.64,0.97,18.7-3.66,19.26-10.45c0-0.02,1.14-15.4,2.3-34.98l1.38,16.18v22.57c0,0-3.09,151.35-3.09,151.43
			c0,8.82,12.03,15.98,27.16,15.98c15.13,0,27.33-6.85,27.33-15.67c0-0.09-0.05-127.74-0.05-127.74h0.16c-0.04,0-0.1-0.62-0.1-0.79
			c0-1.27,1.03-2.45,2.3-2.45c1.27,0,2.3,1.25,2.3,2.52c0,0.18-0.06,0.72-0.1,0.72h0.11c0,0,0.04,127.66,0.04,127.74
			c0,8.82,12.3,15.81,27.43,15.81s27.69-7.22,27.69-16.05c0-0.08-3.17-151.5-3.17-151.5v-18.73c0-0.57-0.08-1.14-0.08-1.72
			l3.26-47.31c12.86,27.36,26.12,55.73,26.14,55.76c3.04,6.1,13.95,6.8,24.41,1.58C368.17,266.37,374.14,257.19,371.1,251.1z"/>
	</g>
	<path fill="#FFFFFF" d="M195.53,267.54l-0.12-9.8c9,11.1,30.59,18.86,54.12,18.86s45.44-7.99,54.44-19.09
		l-0.44,10.03c-12.6,9.81-31.57,16.26-54,16.26C227.1,283.81,208.13,277.35,195.53,267.54z"/>
	<path d="M249.68,50.55c20.61,0,37.38,17.89,37.38,39.88c0,21.99-16.77,39.88-37.38,39.88
		c-20.61,0-37.38-17.89-37.38-39.88C212.3,68.44,229.07,50.55,249.68,50.55z"/>
</g>
<g id="minuba-2d-figure-1">
	<path d="M371.12,248.35c-0.02-0.05-54.66-103.42-54.66-103.42c-3.78-7.25-29.6-14.08-41.44-15.76
		c-7.19,5.25-15.9,8.34-25.28,8.34c-9.34,0-18.02-3.06-25.19-8.27c-12.03,1.78-37.25,8.53-40.98,15.69
		c0,0-54.64,103.36-54.66,103.42c-3.04,6.09,2.96,15.27,13.42,20.49c10.45,5.22,21.39,4.52,24.43-1.58
		c0.03-0.06,24.6-53.46,24.6-53.46l2.66,45.01V282c0,0-2.78,151.35-2.78,151.43c0,8.82,12.64,15.97,27.77,15.97
		c15.13,0,27.58-6.84,27.58-15.66c0-0.09,0.2-127.74,0.2-127.74h0.11c-0.04,0-0.1-0.62-0.1-0.79c0-1.27,1.03-2.45,2.3-2.45
		c1.27,0,2.3,1.25,2.3,2.52c0,0.18-0.06,0.72-0.1,0.72h0.16c0,0,0.01,127.66,0.01,127.74c0,8.82,12.26,15.82,27.39,15.82
		c15.13,0,26.64-7.23,26.64-16.05C305.48,433.43,302,282,302,282v-23.2l4-48.34c0,0,26.96,56.73,26.99,56.79
		c3.04,6.1,14.12,6.8,24.57,1.58C368.01,263.62,374.16,254.44,371.12,248.35z"/>
	<path fill="#FFFFFF" d="M302,267.54v-9.67c-9,11.1-30.47,18.73-54,18.73c-23.53,0-43-7.64-54-18.73v9.67
		c13,9.81,31.57,16.26,54,16.26S291,277.35,302,267.54z"/>
	<path d="M249.73,50.55c-20.61,0-37.38,17.89-37.38,39.88c0,21.99,16.77,39.88,37.38,39.88
		c20.61,0,37.38-17.89,37.38-39.88C287.11,68.44,270.34,50.55,249.73,50.55z"/>
</g>

<g id="minuba-2d-appearance-tie">
	<path fill="#FFFFFF" d="M254.39,147.96c2.18-1.43,3.62-3.89,3.62-6.69c0-4.42-3.58-8-8-8c-4.42,0-8,3.58-8,8
		c0,2.8,1.44,5.26,3.62,6.69c-2.69,10.89-10.5,84.21-10.5,88.11c0,1.26,0.48,2.52,1.44,3.48l9.96,9.96c1.92,1.92,5.04,1.92,6.96,0
		l9.96-9.96c0.96-0.96,1.44-2.22,1.44-3.48C264.89,232.17,257.08,158.85,254.39,147.96z"/>
</g>
<g id="minuba-2d-appearance-bowtie">
	<path fill="#FFFFFF" d="M259.13,147.97l-3.9,2.39c-1.34-1.34-3.19-2.17-5.23-2.17c-2.04,0-3.89,0.83-5.23,2.17
		l-3.9-2.39c-4.86-3.04-8.27-1.65-8.27,0v7.6v7.6c0,1.65,3.4,3.04,8.27,0l3.9-2.39c1.34,1.34,3.19,2.17,5.23,2.17
		c2.04,0,3.89-0.83,5.23-2.17l3.9,2.39c4.86,3.04,8.27,1.65,8.27,0v-7.6v-7.6C267.4,146.32,264,144.93,259.13,147.97z"/>
	<path fill="#FFFFFF" d="M255.16,188.77c0,2.85-2.31,5.15-5.15,5.15c-2.85,0-5.16-2.31-5.16-5.15
		c0-2.85,2.31-5.16,5.16-5.16C252.85,183.61,255.16,185.92,255.16,188.77z"/>
	<path fill="#FFFFFF" d="M255.16,217.27c0,2.84-2.31,5.15-5.15,5.15c-2.85,0-5.16-2.31-5.16-5.15
		c0-2.85,2.31-5.16,5.16-5.16C252.85,212.11,255.16,214.42,255.16,217.27z"/>
	<path fill="#FFFFFF" d="M255.16,245.77c0,2.85-2.31,5.15-5.15,5.15c-2.85,0-5.16-2.31-5.16-5.15
		c0-2.85,2.31-5.16,5.16-5.16C252.85,240.61,255.16,242.92,255.16,245.77z"/>
</g>
<g id="minuba-2d-appearance-suspenders">
	<g>
		<path fill="#FFFFFF" d="M228,276.07l-13.46-144.93c-2.26,0.54-4.62,1.16-7.04,1.86l13.15,141.12L228,276.07z"/>
		<path fill="#FFFFFF" d="M272,276.07l13.46-144.93c2.25,0.54,4.62,1.16,7.04,1.86l-13.15,141.12L272,276.07z"/>
	</g>
</g>
<g id="minuba-2d-appearance-pocket">
	<polygon fill="#FFFFFF" points="234,192.41 223,196.81 212,192.41 212,171 234,171 		"/>
</g>
<g id="minuba-2d-appearance-hardhat-front">
	<path d="M297.24,72.79c-1.55-25.28-22.19-45.33-47.52-45.33c-25.48,0-46.22,20.28-47.55,45.77
		c-0.04,0.25-0.08,0.99-0.06,1.11c-0.01,0.34,0.17,1,0.17,1c1.31,4.37,8.87,8.18,19.9,10.59c1.41,6.57,13.17,11.7,27.55,11.7
		c14.38,0,26.12-5.13,27.55-11.69c11.05-2.41,18.63-6.23,19.94-10.6c0,0,0.13-0.53,0.13-0.79
		C297.36,74.36,297.34,73.19,297.24,72.79z"/>
	<path fill="#FFFFFF" d="M286.73,83.22c-2.74,1.03-5.92,1.95-9.46,2.72c-1.43,6.56-13.17,11.69-27.55,11.69
		c-14.38,0-26.13-5.13-27.55-11.7c-3.54-0.77-6.72-1.69-9.45-2.73c-0.24,1.82-0.37,3.68-0.37,5.58c0,0.65,0.02,1.31,0.05,1.95
		c1.47,0.49,3.04,0.95,4.7,1.39c4.91,7.67,17.38,12.71,32.63,12.71c13.19,0,27.36-3.97,32.71-12.72c1.63-0.43,3.17-0.88,4.62-1.37
		c0.03-0.65,0.05-1.31,0.05-1.96C287.1,86.9,286.97,85.04,286.73,83.22z"/>
</g>
<g id="minuba-2d-appearance-hardhat-side">
	<path d="M294.19,49.2c0,0-0.05-0.54-0.15-0.79c-0.04-0.19-0.47-1.28-0.7-1.62
		c-10.2-23.19-36.5-34.85-60.27-26.08c-23.91,8.82-36.35,35.02-28.78,59.39c0.05,0.25,0.27,0.96,0.33,1.07
		c0.11,0.32,0.5,0.88,0.5,0.88c4.68,6.22,25.83,4.64,49.14-3.95c4.42-1.63,4.1-1.36,6.62-2.48c0,0,7.57,0.65,14.97,0.43
		c9.49-0.28,22.18-5.1,31.71-18.06C315.4,47.33,294.19,49.2,294.19,49.2z"/>
	<path fill="#FFFFFF" d="M275.84,76.05c-1.07,0.03-2.13,0.04-3.18,0.04c-6.24,0-11.79-0.48-11.79-0.48
		c-2.52,1.12-2.2,0.85-6.62,2.48c-13.82,5.1-26.88,7.73-36.2,7.73c-1.98,0-3.76-0.13-5.37-0.37c-0.21,1.72-0.33,3.46-0.33,5.23
		c0,0.67,0.02,1.33,0.05,1.98c1.75,0.23,3.62,0.35,5.65,0.35c10.51,0,24.61-2.98,38.69-8.17c1.64-0.61,2.61-0.94,3.31-1.18
		c0.79-0.27,1.35-0.47,2.04-0.75c2.23,0.15,6.23,0.37,10.58,0.37c1.12,0,2.26-0.01,3.4-0.05c3.38-0.1,6.76-0.64,10.07-1.58
		c-0.52-2.39-1.23-4.69-2.14-6.89C281.13,75.57,278.37,75.98,275.84,76.05z"/>
</g>
<g id="minuba-2d-appearance-smile">
	<path fill="#FFFFFF" d="M231.46,106c3.01,7,10.05,12.11,18.26,12.11S264.98,113,267.98,106H231.46z"/>
</g>
<g id="minuba-2d-appearance-labcoat">
	<g>
		<path d="M303.82,258.91l0.14-1.91H195.18l0.14,1.91l-9.75,98.75l62.42,7.15v-4.09l63.53-6.71l-8.26-92.77
			C303.44,260.46,303.82,259.71,303.82,258.91z"/>
		<polygon fill="#FFFFFF" points="313.42,350.43 252,356.44 252,304.92 252,178.67 272,161.11 269.18,150.75 280.66,142.21 
			275.01,128.79 269.71,127.47 249.32,181.68 228.91,127.47 223.6,128.79 217.9,142.21 229.3,150.75 226.05,161.11 245,178.27 
			245,304.92 245,357.15 245,360.78 185.96,354.04 184.92,361.19 252,368.85 252,363.67 313.95,357.6 			"/>
	</g>
</g>
<g id="minuba-2d-appearance-pens-1">
	<path fill="#FFFFFF" d="M212,171v-5.89c0-1.05,0.95-1.9,2-1.9s2,0.85,2,1.9V171h2v-5.89c0-1.05,0.45-1.9,1.5-1.9
		s1.5,0.85,1.5,1.9V171h9v21.41c0,0-2.4,4.4-10.5,4.4c-8.1,0-10.5-4.4-10.5-4.4V171H212z"/>
</g>
<g id="minuba-2d-appearance-pens-2">
	<path fill="#FFFFFF" d="M228,270v-5.89c0-1.05-0.45-1.89-1.5-1.89s-1.5,0.85-1.5,1.89V270h-2v-5.89
		c0-1.05-0.95-1.89-2-1.89s-2,0.85-2,1.89V270h-9v21.41c0,0,2.9,4.4,11,4.4c8.1,0,11-4.4,11-4.4V270H228z"/>
</g>
<g id="minuba-2d-appearance-stethoscope">
	<path d="M253.57,197.85c1.83-3.27,3.89-6.96,4.72-11.56c0.12-0.68,0.2-1.35,0.24-2.03
		c4.02-1.31,7.67-3.65,10.91-7.01c8.33-8.63,13.75-24.05,16.19-45.86c-1.84-0.44-3.62-0.84-5.3-1.18c-1.96-0.4-3.76-0.72-5.35-0.95
		c-0.19-0.03-0.38-0.06-0.55-0.08c-1.67,1.22-3.43,2.31-5.26,3.29c-2.1,16.4-6,27.95-11.39,33.54c-2.2,2.27-4.39,3.29-7.12,3.29
		c-8.62,0-16.03-13.41-20.12-36.11c-2.12-1.03-4.15-2.23-6.07-3.58c-0.17-0.12-0.35-0.23-0.52-0.35c-1.45,0.21-3.09,0.5-4.86,0.85
		c-1.66,0.33-3.44,0.72-5.29,1.15c3.36,22.22,11.04,46.71,28.4,52.81c-0.48,1.78-1.55,3.7-2.78,5.88
		c-0.73,1.32-1.57,2.81-2.31,4.38c-4.19,8.92-4.78,20.86-1.46,29.71c0.08,0.21,0.15,0.41,0.23,0.61c-2.5,2.82-3.92,6.47-3.92,10.36
		c0,8.63,7.02,15.66,15.66,15.66c8.63,0,15.66-7.02,15.66-15.66c0-7.35-5.09-13.53-11.92-15.21c-0.17-0.48-0.35-0.96-0.53-1.45
		c-1.77-4.71-1.34-12.23,0.96-17.13C252.28,200.16,252.91,199.04,253.57,197.85z"/>
	<path fill="#FFFFFF" d="M261.67,169.75c-3.21,3.33-6.81,4.94-11,4.94c-15.37,0-22.86-23.38-26.19-45.09
		c-0.17-0.12-0.35-0.23-0.52-0.35c-1.45,0.21-3.09,0.5-4.86,0.85c3.13,20.95,10.42,46.11,27.49,49.58
		c0.83,1.53,1.41,2.87,1.08,4.69c-0.51,2.83-1.98,5.45-3.52,8.22c-0.73,1.3-1.48,2.65-2.13,4.03c-3.56,7.57-4.09,18.06-1.3,25.51
		c0.56,1.49,1.03,2.88,1.43,4.2c-2.87,1.82-4.78,5.01-4.78,8.66c0,5.66,4.59,10.26,10.26,10.26c5.66,0,10.25-4.59,10.25-10.26
		c0-5.66-4.59-10.25-10.25-10.25c-0.11,0-0.21,0.01-0.31,0.02c-0.44-1.43-0.94-2.93-1.54-4.52c-2.29-6.1-1.81-15.06,1.13-21.32
		c0.57-1.21,1.24-2.42,1.96-3.69c1.69-3.03,3.45-6.17,4.12-9.89c0.37-2.06,0.12-3.82-0.37-5.33c4.87-0.46,9.21-2.63,12.94-6.5
		c9.05-9.38,13.05-27.51,14.78-43.28c-1.96-0.4-3.76-0.72-5.35-0.95C273.39,144.26,269.78,161.34,261.67,169.75z"/>
</g>

<g id="minuba-2d-accessories-suitcase">
	<polygon points="153,288 153,261 142,261 142,288 128,288 128,389 167,389 167,288 		"/>
</g>
<g id="minuba-2d-accessories-graph">
	<rect x="174" y="216" fill="currentColor" width="150" height="99"/>
	<path fill="#FFFFFF" d="M324,216v99H174v-99H324 M331,209h-6.57H175.57H167v6.77v98.64V322h8.57h148.87H331
		v-7.59v-98.64V209L331,209z"/>
	<rect x="210" y="263" fill="#FFFFFF" width="9" height="28"/>
	<rect x="234" y="254" fill="#FFFFFF" width="9" height="37"/>
	<rect x="255" y="266" fill="#FFFFFF" width="9" height="25"/>
	<rect x="279" y="248" fill="#FFFFFF" width="9" height="43"/>
</g>
<g id="minuba-2d-accessories-checkmarks">
	<rect x="174" y="216" fill="currentColor" width="150" height="99"/>
	<path fill="#FFFFFF" d="M324,216v99H174v-99H324 M331,209h-6.57H175.57H167v6.77v98.64V322h8.57h148.87H331
		v-7.59v-98.64V209L331,209z"/>
	<polygon fill="#FFFFFF" points="225.65,245.48 205.66,272.9 193.36,263.94 188.54,270.55 207.45,284.34 
		232.27,250.31 		"/>
	<polygon fill="#FFFFFF" points="265.25,245.48 245.26,272.9 232.96,263.94 228.14,270.55 247.04,284.34 
		271.87,250.31 		"/>
	<polygon fill="#FFFFFF" points="304.85,245.48 284.86,272.9 272.56,263.94 267.74,270.55 286.65,284.34 
		311.47,250.31 		"/>
</g>
<g id="minuba-2d-accessories-timer">
	<path fill="#FFFFFF" d="M351.43,200.62c-46.15,0-83.7,37.55-83.7,83.7c0,46.15,37.55,83.7,83.7,83.7
		c46.15,0,83.69-37.55,83.69-83.7C435.12,238.16,397.58,200.62,351.43,200.62L351.43,200.62z"/>
	<path fill="currentColor" d="M352,215.41v68.4l61.2-27C413.2,256.81,409,222.61,352,215.41z"/>
	<path fill="#FFFFFF" d="M351.43,243.65l-1.74,6.63l-8.28,31.49c-0.63,0.6-1.18,1.74-1.18,3.9
		c0,6,4.81,10.52,11.2,10.52c6.49,0,11.19-4.28,11.19-10.18c0-1.94-0.42-3.39-1.17-4.19l-8.28-31.53L351.43,243.65L351.43,243.65z"
		/>
	<path d="M359.84,284h0.04l-8.45-32.17L342.98,284h0.04c-0.61,0-0.98,0.73-0.98,2.21
		c0,5.19,4.21,8.45,9.4,8.45c5.19,0,9.39-2.78,9.39-7.97C360.82,285.2,360.45,284,359.84,284z"/>
	<path fill="#FFFFFF" d="M403.88,260.85l-8.98,2.05l-46.21,10.55c-0.3,0.05-1.37,0.24-2.2,0.6
		c-5.62,2.5-8.04,8.95-5.49,14.68c1.83,4.11,5.78,6.77,10.08,6.77c1.5,0,2.97-0.32,4.38-0.94c0.84-0.38,1.79-1.09,2.01-1.26
		l38.85-27.18L403.88,260.85L403.88,260.85z"/>
	<path d="M356.42,291.86l38.88-27.21l-46.27,10.56c0,0-1.08,0.16-1.81,0.49
		c-4.74,2.1-6.68,7.56-4.57,12.3c2.1,4.74,7.35,7.02,12.09,4.92C355.47,292.6,356.42,291.86,356.42,291.86z"/>
	<path d="M351.43,206.02c-43.24,0-78.3,35.05-78.3,78.3c0,43.24,35.05,78.3,78.3,78.3
		c43.24,0,78.29-35.05,78.29-78.3C429.72,241.07,394.67,206.02,351.43,206.02z M355,348.1V338h-7v10.11
		c-32-1.75-57.83-28.11-60.26-58.11H298v-8h-10.41c1.18-34,28.41-59.68,60.41-61.48V232h7v-11.47c33,1.87,59.09,27.47,60.27,61.47
		H406v8h9.12C412.7,320,388,346.28,355,348.1z"/>
</g>
<g id="minuba-2d-accessories-calculator">
	<path fill="#FFFFFF" d="M179.53,173.39l-98.46,33.06l35.98,107.16l98.46-33.06L179.53,173.39L179.53,173.39z"/>
	<polygon fill="currentColor" points="175,182.5 206.39,276.01 121.58,304.49 90.18,210.98 		"/>
	<g>
		
			<rect x="106.95" y="207.87" transform="matrix(0.948 -0.3183 0.3183 0.948 -61.7858 55.6376)" fill="#FFFFFF" width="64.8" height="18"/>
		
			<rect x="152.3" y="232.5" transform="matrix(0.3181 0.9481 -0.9481 0.3181 331.8591 14.4268)" fill="#FFFFFF" width="7.2" height="10.8"/>
		
			<rect x="118.18" y="243.96" transform="matrix(-0.3182 -0.948 0.948 -0.3182 -75.8749 444.1435)" fill="#FFFFFF" width="7.2" height="10.8"/>
		
			<rect x="169.37" y="226.77" transform="matrix(0.3181 0.948 -0.948 0.3181 338.0432 -5.6725)" fill="#FFFFFF" width="7.2" height="10.8"/>
		
			<rect x="135.24" y="238.23" transform="matrix(0.318 0.9481 -0.9481 0.318 325.6779 34.5301)" fill="#FFFFFF" width="7.2" height="10.8"/>
		
			<rect x="173.38" y="238.71" transform="matrix(0.3182 0.948 -0.948 0.3182 352.0975 -1.3343)" fill="#FFFFFF" width="7.2" height="10.8"/>
		
			<rect x="137.45" y="251.97" transform="matrix(0.9479 -0.3185 0.3185 0.9479 -73.9585 58.8049)" fill="#FFFFFF" width="10.8" height="7.2"/>
		
			<rect x="154.51" y="246.24" transform="matrix(-0.948 0.3183 -0.3183 -0.948 391.0357 435.7838)" fill="#FFFFFF" width="10.8" height="7.2"/>
		
			<rect x="122.18" y="255.9" transform="matrix(-0.3183 -0.948 0.948 -0.3183 -81.895 463.7063)" fill="#FFFFFF" width="7.2" height="10.8"/>
		
			<rect x="126.2" y="267.85" transform="matrix(-0.3181 -0.9481 0.9481 -0.3181 -87.9728 483.2153)" fill="#FFFFFF" width="7.2" height="10.8"/>
		
			<rect x="141.46" y="263.91" transform="matrix(0.948 -0.3184 0.3184 0.948 -77.5333 60.6817)" fill="#FFFFFF" width="10.8" height="7.2"/>
		
			<rect x="158.52" y="258.19" transform="matrix(-0.948 0.3183 -0.3183 -0.948 402.657 457.7701)" fill="#FFFFFF" width="10.8" height="7.2"/>
		
			<rect x="177.39" y="250.66" transform="matrix(0.3181 0.9481 -0.9481 0.3181 366.1725 3.0211)" fill="#FFFFFF" width="7.2" height="10.8"/>
		
			<rect x="164.33" y="268.33" transform="matrix(-0.3182 -0.948 0.948 -0.3182 -38.1334 520.0371)" fill="#FFFFFF" width="7.2" height="10.8"/>
		
			<rect x="147.27" y="274.06" transform="matrix(-0.3184 -0.948 0.948 -0.3184 -66.0128 511.4575)" fill="#FFFFFF" width="7.2" height="10.8"/>
		
			<rect x="181.4" y="262.6" transform="matrix(0.3184 0.948 -0.948 0.3184 380.1514 7.303)" fill="#FFFFFF" width="7.2" height="10.8"/>
		
			<rect x="130.21" y="279.79" transform="matrix(-0.3184 -0.948 0.948 -0.3184 -93.94 502.8339)" fill="#FFFFFF" width="7.2" height="10.8"/>
	</g>
</g>
<g id="minuba-2d-accessories-screwdriver">
	<path fill="#FFFFFF" d="M411.03,189.85c-0.01,0-4.09-2.02-10.63-5.26c-6.5,2.06-9.72,7.23-8.69,14.34l0.09,0.62
		c1.06,7.32,6.33,14.74,14.33,14.74c0.6,0,1.21-0.05,1.82-0.13l4.61-0.67C417.52,203.39,416.91,192.93,411.03,189.85z"/>
	<path fill="currentColor" d="M443.65,172.43l24.68-15.8l1.22-5.55l23.02-8.11L476,161.15l-4.5-0.14
		l-25.12,16.08c0.92,3.68-0.57,6.77-3.4,8.59l-33.27,21.29c-3.73,2.39-8.41-0.73-10.8-4.46l-0.33-0.52
		c-2.39-3.73-1.33-6.27,2.4-8.66l33.26-21.29C437.27,170.1,440.83,169.96,443.65,172.43z"/>
</g>
<g id="minuba-2d-accessories-beaker">
	<path fill="#FFFFFF" d="M362,238.67v0.76c0,9.52,6.52,17.57,14.37,17.57h53.85c7.71,0,12.77-8.3,12.77-17.78
		v-1.24l0.52-0.51c-0.27-3.37-1.42-6.64-3.35-9.35L417,196.23V175.6c4-1.82,6-5.19,6-8.94v-0.28c0-3.84-2.2-7.28-5.61-9.07
		c2.48-2.13,4.22-5.26,4.22-8.78c0-3.52-1.5-6.68-3.99-8.81c1.41-1.68,2.3-3.85,2.3-6.21c0-5.33-4.32-9.67-9.66-9.67
		c-4.81,0-8.8,3.53-9.54,8.14c-0.47,0.22-0.91,0.48-1.33,0.77c-1.21-0.41-2.51-0.64-3.86-0.64c-6.63,0-12.02,5.39-12.02,12.02
		c0,3.63,1.62,6.88,4.16,9.09c-0.13,0.64-0.2,1.3-0.2,1.97c0,1.06-0.27,2.07,0.04,3.02c-2.45,1.92-4.51,4.89-4.51,8.17v0.28
		c0,3.75,2,7.12,6,8.94v20.63l-22.96,31.9c-2.12,2.98-3.71,6.54-3.86,10.12L362,238.67z"/>
	<path fill="currentColor" d="M369.65,239.09c-0.02-2.45,0.81-4.88,2.16-6.78L396,198.55V171h-1.9
		c-1.64,0-4.1-2.69-4.1-4.34v-0.28c0-1.65,2.46-2.38,4.1-2.38h18.43c1.64,0,3.47,0.73,3.47,2.38v0.28c0,1.65-1.82,4.34-3.47,4.34
		H410v27.55l24.51,33.76c1.31,1.84,2.21,4.19,2.24,6.57l0.19,0.73c0,5.28-2.95,10.39-6.71,10.39h-53.85c-3.76,0-6.8-4.9-6.8-10.18
		L369.65,239.09z"/>
	<path fill="currentColor" d="M405.55,147.83c0.09,0,0.18,0.02,0.27,0.03c0.33-2.11,2.13-3.73,4.33-3.73
		c2.43,0,4.4,1.97,4.4,4.4c0,2.43-1.97,4.4-4.4,4.4c-0.32,0-0.62-0.04-0.92-0.1c-0.49,1.58-1.94,2.73-3.68,2.73
		c-2.13,0-3.87-1.73-3.87-3.87C401.69,149.56,403.42,147.83,405.55,147.83z M390.71,144.13c0,2.66,2.16,4.82,4.82,4.82
		s4.82-2.16,4.82-4.82c0-2.66-2.16-4.82-4.82-4.82S390.71,141.47,390.71,144.13z M394.67,155.19c0,1.33,1.08,2.42,2.42,2.42
		c1.33,0,2.42-1.08,2.42-2.42c0-1.33-1.08-2.42-2.42-2.42C395.75,152.77,394.67,153.85,394.67,155.19z M407.35,140.71
		c0-1.37-1.11-2.48-2.47-2.48c-1.37,0-2.48,1.11-2.48,2.48s1.11,2.48,2.48,2.48C406.25,143.19,407.35,142.08,407.35,140.71z
		 M412.75,133.51c0-1.37-1.11-2.47-2.48-2.47c-1.37,0-2.47,1.11-2.47,2.47c0,1.37,1.11,2.48,2.47,2.48
		C411.65,135.99,412.75,134.88,412.75,133.51z"/>
	<g>
		<path fill="#FFFFFF" d="M382.95,240.31c0.86,0,1.62-0.62,1.77-1.5c0.17-0.98-0.49-1.91-1.47-2.08l-7.56-1.29
			c-0.98-0.17-1.91,0.49-2.08,1.47c-0.17,0.98,0.49,1.91,1.47,2.08l7.56,1.29C382.75,240.3,382.85,240.31,382.95,240.31z"/>
		<path fill="#FFFFFF" d="M388.81,231.24c0.86,0,1.62-0.62,1.77-1.5c0.17-0.98-0.49-1.91-1.47-2.08l-7.56-1.29
			c-0.97-0.16-1.91,0.49-2.08,1.47c-0.17,0.98,0.49,1.91,1.47,2.08l7.56,1.29C388.61,231.23,388.71,231.24,388.81,231.24z"/>
		<path fill="#FFFFFF" d="M394.67,222.17c0.86,0,1.62-0.62,1.77-1.5c0.17-0.98-0.49-1.91-1.47-2.08l-7.56-1.29
			c-0.98-0.16-1.91,0.49-2.08,1.47c-0.17,0.98,0.49,1.91,1.47,2.08l7.56,1.29C394.47,222.16,394.57,222.17,394.67,222.17z"/>
		<path fill="#FFFFFF" d="M400.54,213.1c0.86,0,1.62-0.62,1.77-1.5c0.17-0.98-0.49-1.91-1.47-2.08l-7.56-1.29
			c-0.98-0.17-1.91,0.49-2.08,1.47c-0.17,0.98,0.49,1.91,1.47,2.08l7.56,1.29C400.33,213.09,400.44,213.1,400.54,213.1z"/>
	</g>
</g>

<g id="minuba-3d-figure-1">
	<path d="M249.02,50.55c-20.61,0-37.38,17.89-37.38,39.88s16.77,39.88,37.38,39.88c20.61,0,37.38-17.89,37.38-39.88
		S269.63,50.55,249.02,50.55z"/>
	<path d="M202.98,247.09l0.02,3.02v24.7L196.27,426h0.02c0,0-0.02,0.15-0.02,0.23c0,8.82,12.26,15.98,27.39,15.98
		s30.99-7.14,30.99-15.96c0-0.09-0.02-0.24-0.03-0.24h0.1c0,0,2.36-120.5,2.36-121.09c0-1.92,1.56-3.48,3.48-3.48
		c1.92,0,3.48,1.76,3.48,3.68c0,0.5,2.41,106.89,2.41,106.89h0.09c0,0-0.02-0.04-0.02,0.04c0,8.82,8.66,15.87,23.79,15.87
		s27.39-7.01,27.39-15.83c0-0.08-0.02-0.08-0.02-0.08h0.02L311,274.81v-7.56c6,0.21,8.51-1.78,11.73-4.99
		c5.18-5.16,9.52-12.32,10.23-19.7c0.42-4.36-0.56-8.38-4.23-10.97c-4.75-3.36-9.49-6.72-14.25-10.07l2.48-32.4
		c29.87,14.45,81.73,39.52,81.78,39.54c7.84,4.1,16.42-5.6,19.86-11.46c2.77-4.72,4.68-10.22,4.63-15.74
		c-0.04-3.86-1.19-8.37-4.88-10.3c-4.62-2.44-9.38-4.64-14.07-6.95c-10.66-5.26-21.32-10.53-31.98-15.8
		c-19.36-9.56-38.71-19.12-58.07-28.68c-0.25-0.13-16.2-6.97-28.07-9.31c-3.41-0.96-6.9-1.72-10.45-2.33
		c-7.45,5.91-16.7,9.42-26.72,9.42c-8.04,0-15.57-2.27-22.09-6.21c-1.56,0.51-3.1,1.04-4.62,1.63l0,0
		c-3.66,1.43-7.23,3.15-10.57,5.23c-1.66,1.03-3.24,2.17-4.76,3.4c-0.8,0.65-1.58,1.24-2.32,1.96c-0.2,0.19-1.11,1.48-1.25,1.48h0
		c-16,13-13.19,40.88-3.65,54l2.5,36.38"/>
	<path fill="#FFFFFF" d="M333.54,226.11c-23.92-16.92-79.33-55.56-83-58.1c-1.24,1.84-4,5.86-3.99,5.94
		c0.01,0.08,79.85,55.92,82.58,57.85c5.26,3.72,4.53,11.09,2.68,16.49c-2.85,8.34-13.61,24.15-24.28,17.67
		c-6.57-3.99-102.01-61.93-104.02-63.15c-2.13-1.29-3.54-3.25-4.87-5.36c-7.36-11.67-8.95-28.31-3.48-41.02
		c1.27-2.94,2.96-5.7,5.07-8.11c2.59-2.96,5.68-5.9,8.86-8.19c-2.06-1.33-4.09-2.71-6.15-4.04c-0.41-0.27-3.9,3.09-4.52,3.63
		c-6.79,5.85-10.98,14.14-12.67,22.86c-1.86,9.64-0.91,19.87,2.34,29.11c1.49,4.25,3.51,8.37,6.22,11.98
		c1.03,1.38,2.18,2.64,3.4,3.85c1.47,1.45,50.02,30.48,72.2,43.97c-2.33,0.45-4.7,0.85-7.1,1.15
		c-27.22,3.41-52.18-4.24-60.44-17.29l0.84,11.73c10.25,8.54,26.84,13.61,46.11,13.61c4.66,0,9.47-0.29,14.39-0.91
		c5.17-0.65,10.21-1.63,15.04-2.92c1.18,0.71,18.43,11.23,25.9,15.75c0.42,0.25,0.82,0.52,1.25,0.75
		c4.82,2.57,11.94,1.02,16.44-1.54c7.19-4.1,12.76-12.08,15.73-19.64C341.37,243.69,341.96,231.92,333.54,226.11z"/>
	<path fill="#FFFFFF" d="M333.54,226.11c-5-3.54-11.39-8.03-18.39-12.94c-26.45-18.57-61.71-43.14-64.62-45.15
		c-1.24,1.84-4,5.86-3.99,5.94c0.01,0.07,64.79,45.38,79.63,55.78c1.63,1.15,2.67,1.87,2.94,2.07c4.34,3.07,4.6,8.61,3.52,13.49
		c0,0.02-0.01,0.04-0.01,0.06c-0.17,0.76-0.37,1.5-0.6,2.22c-0.14,0.45-0.3,0.9-0.46,1.35c-0.04,0.1-0.07,0.2-0.11,0.3
		c-1.07,2.87-2.57,5.6-4.36,8.1c-0.03,0.05-0.07,0.1-0.1,0.15c-0.17,0.23-0.32,0.46-0.49,0.69c-3.94,5.4-9.39,10.04-15.11,9.23
		c-1.29-0.18-2.58-0.64-3.88-1.42c-6.57-3.99-102.01-61.93-104.02-63.15c-1.55-0.94-2.71-2.24-3.74-3.68l0.73,10.26
		c10.82,6.85,50.1,30.36,69.41,42.11c-2.33,0.45-4.7,0.85-7.1,1.15c-27.22,3.41-52.18-4.24-60.44-17.29l0.84,11.73
		c10.25,8.54,26.84,13.61,46.11,13.61c4.66,0,9.47-0.29,14.39-0.91c5.17-0.65,10.21-1.63,15.04-2.92
		c1.18,0.71,18.43,11.23,25.9,15.75c0.42,0.25,0.82,0.52,1.25,0.75c1.64,0.88,3.55,1.24,5.53,1.29c3.84,0.08,7.94-1.14,10.91-2.83
		c7.19-4.1,12.76-12.08,15.73-19.64C341.37,243.69,341.96,231.92,333.54,226.11z"/>
</g>
<g id="minuba-3d-figure-2">
	<path d="M198.88,247.22l0.12,3.02v24.7L192.07,426h0.02c0,0-0.02,0.22-0.02,0.29
		c0,8.82,12.26,16.01,27.39,16.01c15.13,0,30.99-7.19,30.99-16.01c0-0.08-0.03-0.29-0.03-0.29h0.1c0,0,2.36-120.43,2.36-121.03
		c0-1.92,1.56-3.45,3.48-3.45c1.92,0,3.48,1.71,3.48,3.63c0,0.5,2.42,106.84,2.42,106.84h0.09c0,0-0.02,0.03-0.02,0.11
		c0,8.82,8.67,15.9,23.79,15.9c15.13,0,27.39-7.05,27.39-15.88c0-0.08-0.02-0.13-0.02-0.13h0.02L307,274.94v-7.62
		c2,0.13,4-0.11,5-0.94v0.17l1.14,7.27l0.79,6.08c1.2-0.08,2.56-0.2,3.8-0.42c11.52-1.97,19.97-8.87,18.82-15.59
		c-0.01-0.05-0.02,0.05-0.04,0.08c0,0.01,0,0.03,0,0.03s0.02-0.42,0.02-0.42l-1.98-13.36l-3.32-22.38L321.92,165h-0.01
		c0,0,0.01,0.45,0.01,0.47l3.43,23.23l-0.03-0.01l-3.4-22.82c0-0.02-0.01-0.05-0.01-0.07c-1.25-15.56-24.79-35.89-47.12-37.31
		c-7.39,5.75-16.51,9.15-26.37,9.15c-8.64,0-16.7-2.61-23.54-7.12c-12.12,3.43-21.8,8.99-27.28,15.94
		c-14.21,13.84-11.27,39.97-2.05,52.63l2.55,36.41"/>
	<path d="M248.42,50.55c-20.61,0-37.38,17.89-37.38,39.88s16.77,39.88,37.38,39.88
		c20.61,0,37.38-17.89,37.38-39.88S269.03,50.55,248.42,50.55z"/>
	<path fill="#FFFFFF" d="M330.59,227.84c0-0.56-0.88-1.1-1.58-1.59c-7-4.96-13.87-9.89-20.88-14.83l-1.95-23.57
		l-7.13,0.63l1.62,17.58c2.08,1.46-50.66-35.37-54.34-37.91c-1.24,1.84-3.95,5.82-3.98,5.89c-0.04,0.11,79.85,55.98,82.57,57.9
		c5.26,3.72,4.53,11.09,2.68,16.49c-1.96,5.75-7.69,15.05-14.55,18.15c-1.42,0.64-3.19,1.01-4.69,1.03
		c1.37-0.03,2.65-0.4,3.65-1.03v-0.01l0.41-0.17c-1.94,0.83-3.41,1.07-5.41,0.94v0.19c-2-0.18-2.49-0.64-3.79-1.42
		c-14.97-9.09-101.96-61.93-103.97-63.15c-1.54-0.93-2.67-2.22-3.7-3.66l0.74,10.25c10.84,6.86,50.1,30.36,69.4,42.1
		c-2.33,0.45-4.69,0.85-7.1,1.15c-27.22,3.41-52.17-4.24-60.43-17.28l0.83,11.73c10.25,8.54,26.84,13.61,46.1,13.61
		c4.66,0,9.48-0.29,14.39-0.91c5.17-0.65,10.17-1.66,15-2.95c1.79,1.09,19.21,11.7,25.94,15.77c0.42,0.25,0.82,0.64,1.25,0.87
		c1.57,0.83,3.38,1.39,5.26,1.39c0,0,0,0,0,0l0.53,5.74l6.71-1.06l0.03-0.03l-0.53-6.64c0,0-0.01,0-0.01,0
		c1.62,0,3.15-0.72,4.45-1.46c7.19-4.1,12.76-11.87,15.73-19.43c0.26-0.65,0.17-1.33,0.39-2.02l-0.11-0.69
		C336.38,242.05,337.58,233.3,330.59,227.84z"/>
</g>
<g id="minuba-3d-figure-2b">
	<path d="M318.11,271.54c7.19-4.1,12.76-11.87,15.73-19.44c0.26-0.65,0.17-1.33,0.39-2.02
		l-0.11-0.69c0.08-0.25,0.15-0.5,0.22-0.75l-3.09-20.81L321.92,165h-0.01c0,0,0.01,0.45,0.01,0.47l3.43,23.23l-0.03-0.01
		l-3.4-22.82c0-0.02-0.01-0.05-0.01-0.07c-1.24-15.56-24.79-35.89-47.12-37.31c-7.39,5.75-16.51,9.15-26.37,9.15
		c-8.64,0-16.7-2.61-23.54-7.12c-12.11,3.43-21.8,8.99-27.28,15.94c-14.21,13.84-11.27,39.97-2.05,52.63l2.59,36.41l0.73,11.72
		l0.12,3.02v24.7L192.07,426h0.02c0,0-0.02,0.22-0.02,0.29c0,8.82,12.26,16.01,27.39,16.01c15.13,0,30.99-7.19,30.99-16.01
		c0-0.08-0.02-0.29-0.03-0.29h0.1c0,0,2.36-120.43,2.36-121.03c0-1.92,1.56-3.45,3.48-3.45c1.92,0,3.48,1.71,3.48,3.63
		c0,0.5,2.42,106.84,2.42,106.84h0.09c0,0-0.02,0.03-0.02,0.11c0,8.82,8.66,15.9,23.79,15.9c15.13,0,27.39-7.05,27.39-15.88
		c0-0.08-0.02-0.13-0.02-0.13h0.02l-6.34-137.78L318.11,271.54z"/>
	<path d="M248.42,50.55c-20.61,0-37.38,17.89-37.38,39.88s16.77,39.88,37.38,39.88
		c20.61,0,37.38-17.89,37.38-39.88S269.02,50.55,248.42,50.55z"/>
	<path fill="#FFFFFF" d="M330.59,227.84c0-0.56-0.88-1.1-1.58-1.59c-7-4.96-79.01-55.56-82.69-58.1
		c-1.25,1.84-3.95,5.82-3.98,5.89c-0.04,0.11,79.85,55.98,82.57,57.9c5.26,3.72,4.53,11.09,2.68,16.49
		c-1.96,5.75-7.69,15.05-14.55,18.15c-1.42,0.64-3.89,0.89-5.85,0.75c0,0-2.58-0.44-3.88-1.23
		c-14.97-9.09-102.01-61.93-104.02-63.15c-1.54-0.93-2.7-2.22-3.72-3.66l0.73,10.25c10.84,6.86,50.1,30.36,69.39,42.1
		c-2.33,0.45-4.7,0.85-7.11,1.15c-27.22,3.41-52.17-4.24-60.44-17.28l0.83,11.73c10.25,8.54,26.84,13.61,46.1,13.61
		c4.66,0,9.47-0.29,14.39-0.91c5.17-0.65,10.17-1.66,15-2.95c1.79,1.09,19.21,11.7,25.94,15.77c0.41,0.25,0.82,0.64,1.25,0.87
		c1.57,0.83,3.38,1.39,5.26,1.39c0,0,0,0,0,0l6.74-0.72c0,0,3.14-1.95,4.45-2.69c7.19-4.1,12.76-11.89,15.73-19.46
		c0.26-0.65,0.17-1.35,0.39-2.03l-0.11-0.7C336.38,242.06,337.58,233.3,330.59,227.84z"/>
</g>
<g id="minuba-3d-figure-handshake">
	<g>
		<g>
			<path fill="currentColor" d="M339.53,96.75c-20.61,0-37.38,17.89-37.38,39.88s16.77,39.88,37.38,39.88
				c20.61,0,37.38-17.89,37.38-39.88S360.14,96.75,339.53,96.75z"/>
		</g>
		<g>
			<path fill="currentColor" d="M388,327.41v-12.4l1.73-23.27l0.66-11.65l2.01-28.32c1.05-0.64,1.62-0.99,1.62-0.99
				c11.45-11.41,16.17-42.52-1.15-57.01c0,0,0,0,0,0c-3.84-4.1-9.2-7.71-15.69-10.61c-4.47-2.35-9.62-4.31-15.24-5.84
				c-6.59,4.06-14.24,6.4-22.41,6.4c-9.94,0-19.12-3.45-26.54-9.28c-14.08,2.91-36.54,11.33-46.27,32.61
				c-0.58,1.7-1.07,3.47-1.49,5.18c-17.1,1.75-28.8,2.98-28.8,2.98c-6.79,0.6-11.46,10.53-10.41,22.17
				c1.04,11.63,4.97,16.37,11.01,18.21l22.08-0.79c-3.55,26.83-7.97,60.34-7.98,60.38c-0.56,6.79,7.64,13.25,19.29,14.22
				c0.95,0.04,1.83,0.06,2.69,0.06c0.14,0,0.29,0,0.43,0c0.87,0,1.7,0,2.49-0.03c0.47-0.02,0.92-0.04,1.36-0.07
				c0.1-0.01,0.2-0.01,0.3-0.02c0.75-0.05,1.45,0.07,2.13-0.02L272.79,479h0.02c0,0-0.02-0.05-0.02,0.03
				c0,8.82,12.26,15.88,27.39,15.88c15.13,0,30.99-6.99,30.99-15.81c0-0.09-0.02-0.09-0.03-0.09h0.1c0,0,2.36-120.7,2.36-121.29
				c0-1.92,1.56-3.58,3.48-3.58c1.92,0,3.48,1.41,3.48,3.33c0,0.5,2.42,106.54,2.42,106.54h0.09c0,0-0.02,0.26-0.02,0.34
				c0,8.82,8.66,16.02,23.79,16.02c15.13,0,27.39-7.23,27.39-16.05c0-0.08-0.02-0.31-0.02-0.31h0.02L388,327.41z"/>
		</g>
		<path fill="#FFFFFF" d="M296.89,322.92c0-0.02,0-0.04,0.04-0.68c0.07-1.15,0.26-4.31,0.78-13.08c8.22,2.67,17.77,4.14,28.09,4.14
			c4.66,0,9.47-0.29,14.39-0.91c17.37-2.18,33.26-8.11,44.76-16.71c1.65-1.23,3.16-2.51,4.58-3.81l0.84-11.79
			c-2.33,3.4-5.57,6.72-9.73,9.83c-10.51,7.86-25.19,13.31-41.34,15.33c-15.28,1.91-29.84,0.34-41.14-3.71
			c-3.51-0.47-7.97-1.05-7.97-1.05c0.4,6.99-0.11,15.67-0.28,18.42c-0.12,2.06-0.19,3.26-0.2,3.34c-0.1,1.16-0.47,2.17-1.1,3.03
			c-0.04,0.05-0.07,0.11-0.11,0.16c-0.04,0.05-0.08,0.1-0.13,0.15c-1.37,1.78-3.95,3.03-8.56,3.57l-0.35,7.47
			C289.5,335.89,296.25,330.66,296.89,322.92z"/>
		<path fill="#FFFFFF" d="M263.46,221.95c0,0,0.53-4.56,1.78-9.73c-2.66,0.27-5.18,0.53-7.55,0.77c-0.89,4.22-1.3,7.61-1.37,8.16
			c-1.72,13.05-3.21,24.26-4.48,33.9l7.29-0.26C261.48,236.89,263.46,221.95,263.46,221.95z"/>
	</g>
	<g>
		<path d="M226.03,252.14c7.19-4.09,12.76-11.87,15.73-19.44c0.26-0.65,0.17-1.33,0.39-2.02l-0.11-0.69
			c0.08-0.25,0.15-0.5,0.22-0.75l-3.09-20.61L229.84,146h-0.01c0,0,0.01,0.25,0.01,0.27l3.43,23.13l-0.03-0.06l-3.4-22.84
			c0-0.02-0.01-0.06-0.01-0.08c-1.24-15.56-24.79-35.89-47.12-37.32c-7.39,5.75-16.51,9.15-26.37,9.15
			c-8.64,0-16.7-2.61-23.54-7.12c-12.12,3.43-21.8,8.98-27.28,15.94c-14.21,13.84-11.27,39.96-2.05,52.63l2.59,36.41l1.27,11.72
			l0.66,3.02v24.7L99.99,407h0.02c0,0-0.02,0.02-0.02,0.1c0,8.82,12.26,15.91,27.39,15.91c15.13,0,30.99-7.04,30.99-15.87
			c0-0.08-0.02-0.14-0.03-0.14h0.1c0,0,2.36-120.63,2.36-121.22c0-1.92,1.56-3.55,3.48-3.55c1.92,0,3.48,1.86,3.48,3.78
			c0,0.5,2.42,107,2.42,107h0.09c0,0-0.02-0.18-0.02-0.09c0,8.82,8.66,15.81,23.79,15.81c15.13,0,27.39-6.91,27.39-15.73
			c0-0.08-0.02,0.02-0.02,0.02h0.02l-6.34-137.98L226.03,252.14z"/>
		<path d="M156.34,31.15c-20.61,0-37.38,17.89-37.38,39.88s16.77,39.88,37.38,39.88
			c20.61,0,37.37-17.89,37.37-39.88S176.95,31.15,156.34,31.15z"/>
		<path fill="#FFFFFF" d="M238.51,208.44c0-0.56-0.88-1.1-1.58-1.59c-7-4.96-79.01-55.56-82.69-58.1
			c-1.24,1.84-3.95,5.82-3.98,5.89c-0.04,0.11,79.85,55.98,82.57,57.9c5.26,3.72,4.53,11.09,2.68,16.49
			c-1.96,5.75-7.69,15.05-14.55,18.15c-1.42,0.64-3.89,0.89-5.85,0.75c0,0-2.58-0.44-3.88-1.23
			c-14.97-9.09-102.01-61.93-104.02-63.15c-1.54-0.93-2.7-2.22-3.72-3.66l0.73,10.25c10.84,6.86,50.1,30.36,69.39,42.1
			c-2.33,0.45-4.7,0.85-7.11,1.15c-27.22,3.41-52.17-4.24-60.44-17.28l0.83,11.73c10.25,8.54,26.84,13.61,46.1,13.61
			c4.66,0,9.47-0.3,14.39-0.91c5.16-0.65,10.17-1.66,15-2.95c1.79,1.09,19.21,11.7,25.94,15.77c0.41,0.25,0.82,0.83,1.25,1.06
			c1.57,0.83,3.38,1.59,5.26,1.59c0,0,0,0,0,0l6.74-0.92c0,0,3.14-2.05,4.45-2.79c7.19-4.09,12.76-11.95,15.73-19.51
			c0.26-0.65,0.17-1.37,0.39-2.06l-0.11-0.71C244.3,222.67,245.5,213.9,238.51,208.44z"/>
	</g>
</g>

<g id="minuba-3d-appearance-tie">
	<path fill="#FFFFFF" d="M260.85,143.93c1.79-1.89,2.62-4.62,1.98-7.35c-1.02-4.3-5.32-6.96-9.63-5.94
		c-4.3,1.02-6.96,5.33-5.94,9.63c0.65,2.72,2.61,4.79,5.06,5.67c-0.04,3.85,1.03,14.98,2.49,28.1l23.88,16.62
		C271.55,170.75,263.54,149.15,260.85,143.93z"/>
</g>
<g id="minuba-3d-appearance-frown">
	<path fill="#FFFFFF" d="M265.29,113.09c-0.05-0.04-5.39-4.16-19-0.15l-1.53-5.18
		c16.49-4.86,23.33,0.6,24.05,1.24l-3.57,4.05l1.79-2.03L265.29,113.09z"/>
</g>
<g id="minuba-3d-appearance-hardhat">
	<path d="M298,60.11c0,0,0.07-0.54,0.04-0.8c0-0.19-0.16-1.36-0.3-1.74
		c-4.44-24.94-27.24-42.48-52.41-39.58c-25.32,2.92-43.59,25.44-41.98,50.92c-0.01,0.26,0.04,0.99,0.06,1.11
		c0.03,0.33,0.28,0.98,0.28,0.98c3.08,7.15,24,10.61,48.68,7.76c4.68-0.54,4.3-0.35,7.02-0.85c0,0,7.2,2.42,14.45,3.96
		c9.29,1.97,22.75,0.28,35.08-10.06C319.06,63.29,298,60.11,298,60.11z"/>
	<path fill="#FFFFFF" d="M280.91,82.58c-2.54,0-4.92-0.26-7.08-0.72c-7.24-1.53-14.45-3.96-14.45-3.96
		c-2.71,0.5-2.34,0.31-7.02,0.85c-5.86,0.68-11.51,1-16.76,1c-8.96,0-16.73-0.94-22.42-2.64c-0.75,2.25-1.31,4.58-1.67,6.99
		c7.96,2.33,17.38,2.85,24.09,2.85c5.66,0,11.58-0.35,17.59-1.05c1.74-0.2,2.75-0.3,3.49-0.37c0.83-0.08,1.42-0.14,2.15-0.24
		c2.68,0.85,8.04,2.45,13.5,3.61c2.73,0.58,5.62,0.87,8.57,0.87c1.62,0,3.24-0.1,4.86-0.27c-0.05-2.45-0.3-4.84-0.75-7.16
		C283.62,82.5,282.24,82.58,280.91,82.58z"/>
</g>

<g id="minuba-3d-accessories-wrench-1">
	<path fill="#FFFFFF" d="M353.74,100C353.74,100,353.74,100,353.74,100c-5.16,0-9.69,3.99-10.75,9.04
		l-13.77,65.06c-0.67,3.18,0.29,5.56,1.21,6.93c1.11,1.65,2.54,2.63,3.9,3.19l-7.69,39.35l-0.88,4.52l3.71,2.71
		c1.64,1.2,3.6,3.04,4.13,3.86l11.59,9.17l2.16-10.32l9.29-44.34l2.47,0.52l-8.66,70.52l-0.88,7.15l7.15,0.88l8.48,1.04l7.15,0.88
		l0.88-7.14l8.57-69.8c3.83-1.1,6.9-4.24,7.75-8.27l7.56-35.62l1.33-6.27l0,0l1.49-7.04l2.96-13.93
		c1.25-5.93-2.54-11.78-8.47-13.04l-38.38-8.46C355.28,100.4,354.51,100,353.74,100L353.74,100L353.74,100z M359.83,140.5
		l2.92-13.77l14.7,3.12l-0.28,1.21l-1.5,6.94h0l-1.15,5.51L359.83,140.5L359.83,140.5z"/>
	<path fill="currentColor" d="M357.6,261.07l8.48,1.04l9.38-76.33l2.55,0.54
		c2.05,0.43,4.06-0.85,4.5-2.9l7.55-35.62l-8.67-1.84l-0.82,3.86c-0.27,1.29-1.54,2.11-2.82,1.84l-24.12-5.12
		c-1.29-0.27-2.11-1.54-1.83-2.82l4.92-23.2c0.27-1.29,1.54-2.11,2.83-1.83l24.13,5.12c1.29,0.27,2.11,1.54,1.83,2.82l-1.28,6.03
		l8.67,1.84l2.96-13.93c0.43-2.05-0.88-4.07-2.93-4.5l-38.38-8.14c-2.05-0.44-4.07,0.88-4.5,2.93l-13.77,64.91
		c-0.43,2.05,1.32,1.99,3.37,2.42l3.1,0.66l-9.02,46.13c0,0,5.52,4.01,6.6,7.05l10.77-51.41l15.99,3.39L357.6,261.07z"/>
</g>
<g id="minuba-3d-accessories-wrench-2">
	<path fill="#FFFFFF" d="M342.57,255.65l57.6-44.16c3.86,1.93,8.16,2.96,12.53,2.96c6.19,0,12.06-1.99,16.98-5.76
		c7.39-5.67,11.46-14.61,10.88-23.93l-0.23-3.58l-4.72-6.76l-6.63,5.08l-12.28,9.42l-7.54-3.09l-1.15-7.79l12.56-9.63l7.06-5.41
		l-3.66-5.24l-5.45-1.87c-2.94-1.01-6.01-1.52-9.12-1.52c-6.19,0-12.07,1.99-16.98,5.76c-8.61,6.6-12.48,17.38-10.4,27.65
		l-47.42,36.36l-1.09,1.98c0,0,20.16,13.02,0.37,34.13c-2.09,2.23-4.01,4.13-5.81,5.77c3.33-0.24,6.47-1.43,9.15-3.49
		C339.58,260.73,341.42,258.35,342.57,255.65z"/>
	<path fill="currentColor" d="M425.29,202.97c5.68-4.36,8.49-11.11,8.08-17.76l-15.56,11.94l-15.16-6.22
		l-2.37-16.03l15.92-12.21c-6.35-2.18-13.66-1.25-19.38,3.14c-7.67,5.88-10.1,16.12-6.43,24.61l-52.2,40.03
		c2.9,3.57,5.72,9.24,3.73,16.6l57.84-44.35C407.02,208.54,417.59,208.88,425.29,202.97z"/>
</g>
<g id="minuba-3d-accessories-hammer">
	<path fill="#FFFFFF" d="M457.76,245.32l-8.23-16.01l-3.29-6.41l-3.2,1.65l-32.07-62.44l-4.12-8.02l-6.69,5.61
		c-0.16,0.07-0.32,0.14-0.49,0.21c-0.44,0.19-1,0.43-1.6,0.73c-1.29,0.66-2.67,1-4.1,1c-3.4,0-6.47-1.87-8.02-4.89l-3.29-6.41
		l-6.41,3.29l-3.2,1.65l-6.41,3.29l3.29,6.4l18.91,36.83l-52.31,26.86c4.75,4.75,12.03,15.95-2.64,31.59
		c-2.94,3.13-5.55,5.63-7.95,7.62l1.15,2.05l76.55-39.32l5.75,11.21l-4.8,2.46l3.29,6.41l8.22,16.01l3.29,6.4l6.4-3.29l28.82-14.8
		l6.41-3.29L457.76,245.32z"/>
	<path fill="currentColor" d="M417.46,241.73l3.2-1.65l1.64,3.2l-8,4.11l8.22,16.01l28.82-14.8
		l-8.23-16.01l-6.4,3.29l-1.65-3.2l3.2-1.65l-33.72-65.65c-0.91,0.76-2.1,1.08-3.2,1.65c-7.96,4.09-17.73,0.95-21.81-7.01
		l-3.2,1.65l22.2,43.23l-57.74,29.66c2.57,5.29,3.24,12.89-4.03,22.3l70-35.95L417.46,241.73z"/>
</g>
<g id="minuba-3d-accessories-mobile">
	<g>
		<g>
			<path fill="currentColor" d="M320,205.67v13.99c3,2.2,6.23,4.39,9.35,6.59c8.42,5.81,7.83,17.57,4.51,26.06
				c-2.7,6.89-7.85,14.09-13.85,18.42v11.8l34-12.03v-76.87L320,205.67z"/>
		</g>
		<circle fill="#FFFFFF" cx="341.84" cy="211.81" r="4.5"/>
	</g>
	<g>
		<path fill="currentColor" d="M393.3,164.26l-6.36,6.36c10.59,10.59,17.15,25.22,17.15,41.35
			c0,16.13-6.56,30.75-17.15,41.35l6.36,6.36c12.22-12.22,19.79-29.1,19.79-47.71S405.52,176.49,393.3,164.26z"/>
		<path fill="currentColor" d="M380.58,176.99l-6.36,6.36c7.33,7.33,11.88,17.46,11.88,28.62s-4.54,21.29-11.88,28.62
			l6.36,6.36c8.96-8.96,14.51-21.34,14.51-34.99S389.54,185.95,380.58,176.99z"/>
		<path fill="currentColor" d="M367.86,189.71l-6.36,6.36c4.07,4.07,6.6,9.7,6.6,15.9c0,6.2-2.52,11.83-6.6,15.9
			l6.36,6.36c5.7-5.7,9.24-13.58,9.24-22.26C377.09,203.29,373.56,195.41,367.86,189.71z"/>
	</g>
</g>
<g id="minuba-3d-accessories-document">
	<path fill="#FFFFFF" d="M407,108.2l-90,27.2v84.12v3.74l3.05,2.15l2.29,1.61c2.35,1.65,4.7,3.31,7.04,4.97
		c5.51,3.8,3.82,12.82,1.96,17.56c-2.48,6.33-6.68,11.98-11.23,15.12l-3.1,2.15v3.78v28.71l90-27.2V108.2L407,108.2z"/>
	<path fill="currentColor" d="M324,140.74v78.79c3,2.2,6.33,4.39,9.45,6.59
		c8.42,5.81,7.79,17.57,4.46,26.07c-2.7,6.89-6.9,14.09-13.9,18.42v19.01l75-22.83V117.91L324,140.74z"/>
	<g>
		<polygon fill="#FFFFFF" points="338,166.76 338,175.8 386,161.14 386,152.11 			"/>
	</g>
	<g>
		<polygon fill="#FFFFFF" points="338,193.76 338,202.8 386,188.14 386,179.11 			"/>
	</g>
	<g>
		<polygon fill="#FFFFFF" points="338,221.96 338,231 386,216.34 386,207.31 			"/>
	</g>
	<g>
		<polygon fill="#FFFFFF" points="338,249.56 338,258.6 386,243.94 386,234.91 			"/>
	</g>
</g>
<g id="minuba-3d-accessories-checkmarks">
	<path fill="#FFFFFF" d="M454,143.78l-164,53.05v113.78l164-53.05V143.78L454,143.78z"/>
	<polygon fill="currentColor" points="297,202.06 297,300.7 447,252.32 447,153.69 		"/>
	<polygon fill="#FFFFFF" points="332.36,249.28 319.52,245.55 316.87,252.5 336.61,258.24 350.27,222.49 
		343.36,220.49 		"/>
	<polygon fill="#FFFFFF" points="366.92,237.33 354.08,233.6 351.43,240.55 371.17,246.28 384.83,210.54 
		377.92,208.53 		"/>
	<polygon fill="#FFFFFF" points="401.48,225.36 388.65,221.64 385.99,228.59 405.73,234.33 419.39,198.58 
		412.49,196.57 		"/>
</g>
<g id="minuba-3d-accessories-checkmarks-mirror">
	<path fill="#FFFFFF" d="M452,143.78l-163,53.05v113.78l163-53.05V143.78L452,143.78z"/>
	<polygon fill="currentColor" points="296,202.06 296,300.7 445,252.32 445,153.69 		"/>
	<polygon fill="#FFFFFF" points="415.44,222.6 427.73,209.64 432.55,214.7 413.65,234.63 388.83,208.66 
		395.44,201.68 		"/>
	<polygon fill="#FFFFFF" points="375.84,235.47 388.13,222.51 392.95,227.56 374.05,247.49 349.23,221.52 
		355.84,214.55 		"/>
	<polygon fill="#FFFFFF" points="336.24,248.33 348.53,235.38 353.35,240.43 334.45,260.36 309.63,234.39 
		316.24,227.41 		"/>
</g>
<g id="minuba-3d-accessories-faucet">
	<g>
		<g>
			<polygon points="463,101 403,101 403,115 427,115 427,147 439,147 439,115 463,115 				"/>
			<path d="M350.24,144c-1.3,0-12.91-0.49-25,5.52c-17.03,8.46-26.23,23.82-26.23,44.46V207c-4,0-2.7,0-2.75,0
				c-3.06,0-5.55,3.4-5.55,7.89c0,4.49,2.48,8.11,5.55,8.11c0.03,0,26.87,0,26.9,0c3.06,0,5.45-3.61,5.45-8.11
				c0-4.49-2.48-7.89-5.54-7.89c-0.03,0-3.06,0-3.06,0v-13.02c0-12.06,4.85-20.15,13.96-24.9c7.51-3.92,15.93-4.08,16.33-4.08H463
				v-21H350.24z"/>
		</g>
		<path d="M320.57,260.26l-10.91-13.67l-10.91,13.67c-2.08,2.48-3.34,5.67-3.34,9.16c0,7.87,6.38,14.25,14.25,14.25
			c7.87,0,14.25-6.38,14.25-14.25C323.9,265.93,322.65,262.74,320.57,260.26z"/>
		<path d="M320.57,318.58l-10.91-13.67l-10.91,13.67c-2.08,2.48-3.34,5.67-3.34,9.16c0,7.87,6.38,14.25,14.25,14.25
			c7.87,0,14.25-6.38,14.25-14.25C323.9,324.26,322.65,321.07,320.57,318.58z"/>
	</g>
	<g>
		<path d="M101.13,54.15c-20.61,0-37.38,17.89-37.38,39.88s16.77,39.88,37.38,39.88
			c20.61,0,37.37-17.89,37.37-39.88S121.74,54.15,101.13,54.15z"/>
		<path d="M54.54,250.69L54,253.71v24.7L48.38,430h0.02c0,0-0.02-0.05-0.02,0.03c0,8.82,12.26,15.88,27.39,15.88
			c15.13,0,30.99-6.99,30.99-15.81c0-0.09-0.02-0.09-0.03-0.09h0.1c0,0,2.36-120.7,2.36-121.29c0-1.92,1.56-3.58,3.48-3.58
			c1.92,0,3.48,1.91,3.48,3.83c0,0.5,2.42,107.04,2.42,107.04h0.09c0,0-0.02-0.24-0.02-0.16c0,8.82,8.66,15.77,23.79,15.77
			c15.13,0,27.39-6.86,27.39-15.68c0-0.08-0.02,0.07-0.02,0.07h0.02L162,278.41v-7.56c5.4,0.21,9.06-1.78,12.28-4.99
			c5.18-5.16,9.8-12.32,10.51-19.7c0.42-4.36-0.43-8.38-4.09-10.97c-4.75-3.36-9.42-6.72-14.18-10.07l2.52-32.4
			c29.87,14.45,81.75,39.52,81.79,39.54c7.84,4.1,16.43-5.6,19.87-11.46c2.77-4.72,4.68-10.22,4.64-15.74
			c-0.04-3.86-1.19-8.37-4.88-10.3c-4.62-2.44-9.38-4.64-14.06-6.95c-10.66-5.26-21.32-10.53-31.98-15.8
			c-19.35-9.56-38.71-19.12-58.07-28.68c-0.25-0.13-16.2-6.97-28.07-9.31c-3.41-0.96-6.9-1.72-10.44-2.33
			c-7.45,5.91-16.7,9.42-26.72,9.42c-8.04,0-15.57-2.27-22.09-6.21c-1.56,0.51-3.1,1.04-4.62,1.63l-0.01,0
			c-3.66,1.43-7.23,3.15-10.57,5.23c-1.66,1.03-3.24,2.17-4.76,3.4c-0.81,0.65-1.58,1.44-2.32,2.16c-0.2,0.19-1.11,1.68-1.25,1.68
			h0c-16,13-13.19,40.68-3.65,53.8l2.22,36.28"/>
		<path fill="#FFFFFF" d="M185.65,229.71c-23.92-16.92-79.32-55.56-83-58.1c-1.24,1.84-4,5.86-3.99,5.94
			c0.01,0.08,79.85,55.92,82.58,57.85c5.26,3.72,4.53,11.09,2.68,16.49c-2.85,8.34-13.61,24.15-24.28,17.67
			c-6.57-3.99-102.01-61.93-104.02-63.15c-2.13-1.29-3.53-3.25-4.87-5.36c-7.35-11.67-8.95-28.31-3.48-41.02
			c1.27-2.94,2.96-5.7,5.07-8.11c2.59-2.96,5.68-5.9,8.86-8.19c-2.06-1.33-4.09-2.71-6.15-4.04c-0.42-0.27-3.9,3.09-4.52,3.63
			c-6.79,5.85-10.98,14.14-12.67,22.86c-1.86,9.64-0.91,19.87,2.34,29.11c1.49,4.25,3.51,8.37,6.22,11.98
			c1.03,1.38,2.18,2.64,3.4,3.85c1.47,1.45,50.02,30.48,72.2,43.97c-2.33,0.45-4.69,0.85-7.1,1.15
			c-27.22,3.41-52.18-4.24-60.44-17.29l0.84,11.73c10.25,8.54,26.85,13.61,46.11,13.61c4.66,0,9.47-0.29,14.39-0.91
			c5.17-0.65,10.21-1.63,15.04-2.92c1.18,0.71,18.43,11.23,25.9,15.75c0.42,0.25,0.82,0.52,1.25,0.75
			c4.82,2.57,11.94,1.02,16.44-1.54c7.19-4.1,12.76-12.08,15.73-19.64C193.48,247.29,194.07,235.53,185.65,229.71z"/>
		<path fill="#FFFFFF" d="M185.65,229.71c-5-3.54-11.39-8.03-18.39-12.94c-26.45-18.57-61.71-43.14-64.62-45.15
			c-1.24,1.84-4,5.86-3.99,5.94c0.01,0.07,64.79,45.38,79.63,55.78c1.63,1.15,2.67,1.87,2.94,2.07c4.34,3.07,4.6,8.61,3.52,13.49
			c0,0.02-0.01,0.04-0.01,0.06c-0.17,0.76-0.37,1.5-0.6,2.22c-0.14,0.45-0.3,0.9-0.46,1.35c-0.04,0.1-0.07,0.2-0.11,0.3
			c-1.07,2.87-2.57,5.6-4.36,8.1c-0.03,0.05-0.07,0.1-0.1,0.15c-0.17,0.23-0.32,0.46-0.49,0.69c-3.94,5.4-9.39,10.04-15.11,9.23
			c-1.29-0.18-2.58-0.64-3.88-1.42c-6.57-3.99-102.01-61.93-104.02-63.15c-1.55-0.94-2.71-2.24-3.74-3.68l0.73,10.26
			c10.82,6.85,50.1,30.36,69.41,42.11c-2.33,0.45-4.69,0.85-7.1,1.15c-27.22,3.41-52.18-4.24-60.44-17.29l0.84,11.73
			c10.25,8.54,26.85,13.61,46.11,13.61c4.66,0,9.47-0.29,14.39-0.91c5.17-0.65,10.21-1.63,15.04-2.92
			c1.18,0.71,18.43,11.23,25.9,15.75c0.42,0.25,0.82,0.52,1.25,0.75c1.64,0.88,3.55,1.24,5.53,1.29c3.84,0.08,7.94-1.14,10.91-2.83
			c7.19-4.1,12.76-12.08,15.73-19.64C193.48,247.29,194.07,235.53,185.65,229.71z"/>
	</g>
</g>
<g id="minuba-3d-accessories-flagpole-1">
	<g>
		<path d="M223.94,54.15c-20.61,0-37.38,17.89-37.38,39.88s16.77,39.88,37.38,39.88
			c20.61,0,37.37-17.89,37.37-39.88S244.55,54.15,223.94,54.15z"/>
		<path d="M177.95,250.69l0.05,3.02v24.7L171.19,430h0.02c0,0-0.02-0.05-0.02,0.03c0,8.82,12.26,15.88,27.39,15.88
			s30.99-6.99,30.99-15.81c0-0.09-0.02-0.09-0.03-0.09h0.1c0,0,2.36-120.7,2.36-121.29c0-1.92,1.56-3.58,3.48-3.58
			c1.92,0,3.48,1.91,3.48,3.83c0,0.5,2.42,107.04,2.42,107.04h0.09c0,0-0.02-0.24-0.02-0.16c0,8.82,8.66,15.77,23.79,15.77
			c15.13,0,27.39-6.86,27.39-15.68c0-0.08-0.02,0.07-0.02,0.07h0.02L286,278.41v-7.56c5.4,0.21,8.47-1.78,11.69-4.99
			c5.18-5.16,9.5-12.32,10.21-19.7c0.42-4.36-0.57-8.38-4.24-10.97c-4.75-3.36-9.49-6.72-14.25-10.07l2.48-32.4
			c29.87,14.45,81.73,39.52,81.78,39.54c7.84,4.1,16.42-5.6,19.86-11.46c2.77-4.72,4.68-10.22,4.63-15.74
			c-0.04-3.86-1.19-8.37-4.88-10.3c-4.62-2.44-9.38-4.64-14.06-6.95c-10.66-5.26-21.32-10.53-31.98-15.8
			c-19.35-9.56-38.71-19.12-58.07-28.68c-0.25-0.13-16.2-6.97-28.07-9.31c-3.41-0.96-6.9-1.72-10.44-2.33
			c-7.45,5.91-16.7,9.42-26.72,9.42c-8.04,0-15.57-2.27-22.09-6.21c-1.56,0.51-3.1,1.04-4.62,1.63l-0.01,0
			c-3.66,1.43-7.23,3.15-10.57,5.23c-1.66,1.03-3.24,2.17-4.76,3.4c-0.81,0.65-1.58,1.44-2.32,2.16c-0.2,0.19-1.11,1.68-1.25,1.68
			h0c-16,13-13.19,40.68-3.65,53.8l2.51,36.28"/>
		<path fill="#FFFFFF" d="M308.46,229.71c-23.92-16.92-79.32-55.56-83-58.1c-1.24,1.84-4,5.86-3.99,5.94
			c0.01,0.08,79.85,55.92,82.57,57.85c5.26,3.72,4.53,11.09,2.68,16.49c-2.85,8.34-13.61,24.15-24.28,17.67
			c-6.57-3.99-102.01-61.93-104.02-63.15c-2.13-1.29-3.54-3.25-4.87-5.36c-7.35-11.67-8.95-28.31-3.48-41.02
			c1.27-2.94,2.96-5.7,5.07-8.11c2.59-2.96,5.68-5.9,8.86-8.19c-2.06-1.33-4.09-2.71-6.15-4.04c-0.41-0.27-3.9,3.09-4.52,3.63
			c-6.79,5.85-10.98,14.14-12.67,22.86c-1.86,9.64-0.91,19.87,2.34,29.11c1.49,4.25,3.51,8.37,6.22,11.98
			c1.03,1.38,2.18,2.64,3.4,3.85c1.47,1.45,50.02,30.48,72.2,43.97c-2.33,0.45-4.7,0.85-7.1,1.15
			c-27.22,3.41-52.18-4.24-60.44-17.29l0.84,11.73c10.25,8.54,26.85,13.61,46.11,13.61c4.66,0,9.47-0.29,14.39-0.91
			c5.17-0.65,10.21-1.63,15.04-2.92c1.18,0.71,18.43,11.23,25.9,15.75c0.42,0.25,0.82,0.52,1.25,0.75
			c4.82,2.57,11.94,1.02,16.44-1.54c7.19-4.1,12.76-12.08,15.73-19.64C316.29,247.29,316.88,235.53,308.46,229.71z"/>
		<path fill="#FFFFFF" d="M308.46,229.71c-5-3.54-11.39-8.03-18.39-12.94c-26.45-18.57-61.71-43.14-64.62-45.15
			c-1.24,1.84-4,5.86-3.99,5.94c0.01,0.07,64.79,45.38,79.63,55.78c1.63,1.15,2.67,1.87,2.94,2.07c4.34,3.07,4.6,8.61,3.52,13.49
			c0,0.02-0.01,0.04-0.01,0.06c-0.17,0.76-0.37,1.5-0.6,2.22c-0.14,0.45-0.3,0.9-0.46,1.35c-0.04,0.1-0.07,0.2-0.11,0.3
			c-1.07,2.87-2.57,5.6-4.36,8.1c-0.03,0.05-0.07,0.1-0.1,0.15c-0.17,0.23-0.32,0.46-0.49,0.69c-3.94,5.4-9.39,10.04-15.11,9.23
			c-1.29-0.18-2.58-0.64-3.88-1.42c-6.57-3.99-102.01-61.93-104.02-63.15c-1.55-0.94-2.71-2.24-3.74-3.68l0.73,10.26
			c10.82,6.85,50.1,30.36,69.41,42.11c-2.33,0.45-4.7,0.85-7.1,1.15c-27.22,3.41-52.18-4.24-60.44-17.29l0.84,11.73
			c10.25,8.54,26.85,13.61,46.11,13.61c4.66,0,9.47-0.29,14.39-0.91c5.17-0.65,10.21-1.63,15.04-2.92
			c1.18,0.71,18.43,11.23,25.9,15.75c0.42,0.25,0.82,0.52,1.25,0.75c1.64,0.88,3.55,1.24,5.53,1.29c3.84,0.08,7.94-1.14,10.91-2.83
			c7.19-4.1,12.76-12.08,15.73-19.64C316.29,247.29,316.88,235.53,308.46,229.71z"/>
	</g>
	<g>
		<path fill="#FFFFFF" d="M439.51,192.05l-8.29,8.74l-4.27,4.5l-2.62-1.47l-3.16,1.22l-4.53,1.75l-5.9-1.07l-8.35-1.51l-0.14,8.48
			l-3.13,191.81L399,412h7.32h39.6h7.32l-0.12-7.51l-3.11-188.7l-0.12-6.78h-5.07l-1.55-5.11L439.51,192.05L439.51,192.05z"/>
		<polygon fill="currentColor" points="439.62,216 436.44,206.04 428.31,214.46 423.75,211.83 417.34,214.26 
			409.45,213.11 406.32,405 445.92,405 442.81,216 			"/>
		<path fill="#FFFFFF" d="M498.8,311.89l-7.25,1.01L44.63,375.07c-5.18-8.3-13.28-13.43-21.72-13.43c-0.85,0-1.72,0.05-2.56,0.16
			c-14.18,1.74-23.93,17.69-21.75,35.56c2.06,16.78,13.66,29.44,26.98,29.44c0.85,0,1.71-0.05,2.55-0.15
			c9.34-1.15,16.85-8.29,20.14-18.72l446.5-47.3l6.11-0.65l0.32-6.13l0.42-8l0.11-2.03l-0.97-1.79l-1.7-3.12l0.66-1.7l1.97-5.05
			l-4.14-3.15l3.18-1.49l-0.63-5.17l-0.39-3.17L498.8,311.89L498.8,311.89z"/>
		<path fill="currentColor" d="M491.12,339.4l1.87-4.82l-9.26-7.05l9.2-4.33l-0.39-3.17L40.6,382.9
			c-3.84-9.08-11.55-14.91-19.38-13.95c-10.19,1.25-17.19,13.58-15.48,27.54c1.71,13.95,11.31,24.25,21.51,23.01
			c7.83-0.96,13.65-8.45,15.18-18.19L494,353.47l0.42-8.01L491.12,339.4z"/>
	</g>
</g>
<g id="minuba-3d-accessories-flagpole-2">
	<path fill="#FFFFFF" d="M209.51,594h-46.92l10.57-646.08C163.12-55.78,157-62.97,157-71.52
		c0-12.27,13.03-22.19,29.05-22.19c16.29,0,29.05,9.5,29.05,21.89c0,7.36-4.68,13.81-12.36,17.81H343V61H200.8L209.51,594z"/>
	<path fill="currentColor" d="M340-51H195.38l-0.08-3.96c9.48-2.71,16.21-8.97,16.21-16.85
		c0-10.27-11.4-18.36-25.45-18.36c-14.06,0-25.45,8.44-25.45,18.71c0,7.89,6.73,13.84,16.21,16.55L166.25,590h39.6l-8.71-533H340
		V-51z"/>
</g>

<polygon id="minuba-figure-checkmark" points="367.87,100.41 213.31,312.36 118.29,243.08 80.98,294.25 227.15,400.84 
	419.02,137.71 	"/>
<g id="minuba-figure-wrench">
	<g>
		<path d="M192.2,94.19c-17.74-16.07-41.63-21.25-63.25-15.9l48.59,44.03l-11.37,53.57l-51.3,17.4l-49.69-45.05
			c-3.37,22.2,4.08,45.66,21.96,61.85c23.95,21.72,59.07,23.57,84.8,6.41l197.64,179.11c1.12,7.26,4.63,14.2,10.5,19.52
			c13.59,12.33,34.6,11.29,46.93-2.3c12.32-13.59,11.28-34.61-2.32-46.92c-5.85-5.31-13.12-8.14-20.44-8.56L206.7,178.32
			C221.47,150.97,216.24,115.98,192.2,94.19z M414.73,401.71c-6.18,6.83-16.72,7.33-23.53,1.16c-6.81-6.18-7.32-16.72-1.15-23.54
			c6.18-6.81,16.69-7.34,23.51-1.15C420.38,384.37,420.89,394.9,414.73,401.71z"/>
	</g>
</g>
<g id="minuba-figure-hammer">
	<path d="M411.4,219.7l-14.67,14.67l-7.33-7.34l7.33-7.33L246.35,69.32
		c-1.83,2.9-4.81,4.81-7.34,7.34c-18.23,18.23-47.79,18.23-66.02,0l-7.34,7.33l99.03,99.03L55.63,392.08l36.68,36.68L301.37,219.7
		l47.68,47.68l7.34-7.34l7.33,7.34l-18.34,18.34l36.68,36.68l66.02-66.02L411.4,219.7z"/>
</g>
<g id="minuba-figure-building-2">
	<polygon points="340,449.1 159,449.09 159,50 340,50 		"/>
	<g>
		<polygon fill="#FFFFFF" points="208.37,135 173,135 173,99 208.36,99 			"/>
		<polygon fill="#FFFFFF" points="264.2,135 229,135 229,99 264.19,99 			"/>
		<polygon fill="#FFFFFF" points="319,135.04 285,135.05 285,99 319,99 			"/>
	</g>
	<g>
		<rect x="173" y="162" fill="#FFFFFF" width="34" height="34"/>
		<rect x="229" y="162" fill="#FFFFFF" width="34" height="34"/>
		<polygon fill="#FFFFFF" points="319,197.85 285,197.86 285,162 319,162 			"/>
	</g>
	<g>
		<polygon fill="#FFFFFF" points="208.12,260.28 173,260.65 173,225 208.37,225 			"/>
		<rect x="229" y="225" fill="#FFFFFF" width="34" height="34"/>
		<rect x="285" y="225" fill="#FFFFFF" width="34" height="34"/>
	</g>
	<g>
		<polygon fill="#FFFFFF" points="208.35,322 173.46,322 173.46,288 208.36,288 			"/>
		<polygon fill="#FFFFFF" points="264.04,323.18 229,323.48 229,288 264.19,288 			"/>
		<polygon fill="#FFFFFF" points="319,322 285.13,322 284.61,287.84 319,288.58 			"/>
	</g>
	<polygon fill="#FFFFFF" points="264.18,427.96 229.3,427.86 229.29,351 264.19,351 		"/>
</g>
<g id="minuba-figure-building-1">
	<polygon points="468.64,399.41 31.4,399.48 31.36,100.89 468.58,100.82 		"/>
	<rect x="53" y="154" fill="#FFFFFF" width="52" height="53"/>
	<polygon fill="#FFFFFF" points="193,207 138.02,207 138,154 193,154 		"/>
	<g>
		<polygon fill="#FFFFFF" points="277,207.49 225,207.5 225,154 277,154 			"/>
		<rect x="309" y="154" fill="#FFFFFF" width="53" height="53"/>
		<rect x="394" y="154" fill="#FFFFFF" width="55" height="53"/>
	</g>
	<g>
		<polygon fill="#FFFFFF" points="276.67,304 225,304 225,250 276.65,250 			"/>
		<rect x="309" y="250" fill="#FFFFFF" width="53" height="54"/>
		<polygon fill="#FFFFFF" points="449,304 394,304 394,250.12 449,250.1 			"/>
	</g>
	<polygon fill="#FFFFFF" points="106.04,304 53,304 53,250.19 106.18,250.43 		"/>
	<polygon fill="#FFFFFF" points="191.36,367.45 138.04,367.47 138.02,250.17 191.34,250.15 		"/>
</g>
<g id="minuba-figure-van">
	<g>
		<path d="M403.44,101H42v252h21.29c0-28,22.57-50.32,50.32-50.32c27.75,0,50.32,22.32,50.32,50.32h178.96
			c0-28,22.57-50.32,50.32-50.32c27.74,0,50.32,22.32,50.32,50.32H458V240.31L403.44,101z"/>
	</g>
	<g>
		<polygon fill="#FFFFFF" points="335,239 335,113 388.77,113 438.11,239 			"/>
	</g>
	<path d="M157.94,352.83c0,24.48-19.85,44.33-44.33,44.33c-24.48,0-44.33-19.84-44.33-44.33
		c0-24.48,19.85-44.33,44.33-44.33C138.09,308.51,157.94,328.35,157.94,352.83z"/>
	<path d="M437.54,352.83c0,24.48-19.85,44.33-44.33,44.33c-24.48,0-44.33-19.84-44.33-44.33
		c0-24.48,19.85-44.33,44.33-44.33C417.69,308.51,437.54,328.35,437.54,352.83z"/>
</g>
<g id="minuba-figure-timer">
	<path fill="#FFFFFF" d="M250,83.13c-91.19,0-165.38,74.19-165.38,165.38c0,91.19,74.19,165.38,165.38,165.38
		c91.19,0,165.38-74.19,165.38-165.38C415.38,157.33,341.19,83.13,250,83.13L250,83.13z"/>
	<path fill="currentColor" d="M250,112.37v135.16l120.93-53.35C370.93,194.17,365.15,126.59,250,112.37z
		"/>
	<path fill="#FFFFFF" d="M250,168.17l-3.44,13.1l-16.35,62.22c-1.24,1.19-2.33,3.44-2.33,7.7
		c0,11.85,9.51,20.78,22.12,20.78c12.82,0,22.12-8.46,22.12-20.12c0-3.84-0.83-6.7-2.31-8.28l-16.37-62.31L250,168.17L250,168.17z"
		/>
	<path d="M266.62,248h0.07L250,184.42L233.3,248h0.07c-1.2,0-1.94,1.39-1.94,4.31
		c0,10.25,8.31,16.66,18.57,16.66c10.25,0,18.56-5.47,18.56-15.72C268.56,250.34,267.83,248,266.62,248z"/>
	<path fill="#FFFFFF" d="M353.63,202.15l-17.74,4.05l-91.3,20.84c-0.6,0.1-2.7,0.47-4.34,1.2
		c-11.11,4.93-15.88,17.68-10.85,29.01c3.61,8.13,11.43,13.38,19.92,13.38c2.96,0,5.88-0.63,8.66-1.86
		c1.66-0.74,3.54-2.14,3.98-2.48l76.77-53.71L353.63,202.15L353.63,202.15z"/>
	<path d="M259.85,263.43l76.83-53.76l-91.42,20.87c0,0-2.13,0.32-3.58,0.96
		c-9.37,4.16-13.19,14.94-9.04,24.32c4.16,9.37,14.52,13.87,23.88,9.71C257.98,264.88,259.85,263.43,259.85,263.43z"/>
	<path d="M250,93.81c-85.44,0-154.71,69.26-154.71,154.71c0,85.44,69.26,154.71,154.71,154.71
		c85.44,0,154.71-69.27,154.71-154.71C404.71,163.07,335.44,93.81,250,93.81z M258,374.54V354h-16v20.57
		C179,371.11,128.94,321,124.15,258H144v-14h-20.14C126.19,178,179,126.01,242,122.46V145h16v-22.52
		C322,126.17,373.82,178,376.14,244H357v14h18.85C371.07,321,322,370.95,258,374.54z"/>
</g>
<path id="minuba-figure-legal" d="M313.13,147.68c-11.87-5.54-28.49-11.08-52.25-11.08c-22.96,0-35.22,7.52-35.22,19
	c0,11.87,13.85,19,42.35,27.7c42.75,12.67,75.2,28.5,75.2,69.27c0,20.98-11.87,37.2-28.49,47.89c7.52,5.94,17.42,19,17.42,36.81
	c0,48.29-51.06,63.33-87.87,63.33c-23.75,0-52.64-3.96-74.02-17.42l11.48-36.41C193.6,353.5,217.74,363,241.88,363
	c20.98,0,35.62-6.72,35.62-20.18c0-13.06-11.87-20.19-41.95-29.69c-41.95-12.67-78.76-28.89-78.76-68.08
	c0-17.41,10.69-37.6,32.85-48.29c-8.31-6.73-15.84-21.37-15.84-36.02c0-39.98,38-61.35,86.68-61.35c22.56,0,43.94,3.57,62.14,11.88
	L313.13,147.68z M237.93,265.24c18.21,6.72,37.6,12.27,46.31,17.02c7.12-4.36,11.88-12.67,11.88-20.59
	c0-11.47-7.92-20.98-27.31-28.49c-16.63-6.33-39.19-13.86-51.06-19.4c-8.31,4.35-14.25,11.48-14.25,20.98
	C203.49,247.43,214.18,256.93,237.93,265.24z"/>
<g id="minuba-figure-mobile">
	<g>
		<g>
			<polygon points="125,202.45 125,408.58 216,376.33 216,170.2 				"/>
		</g>
		<circle fill="#FFFFFF" cx="183.64" cy="218.91" r="12.07"/>
	</g>
	<g>
		<path d="M321.63,91.42l-17.06,17.06c28.41,28.41,46,67.63,46,110.88c0,43.25-17.59,82.47-46,110.88l17.06,17.05
			c32.77-32.78,53.08-78.03,53.08-127.93C374.71,169.45,354.41,124.2,321.63,91.42z"/>
		<path d="M287.51,125.54l-17.06,17.06c19.67,19.67,31.85,46.82,31.85,76.76c0,29.94-12.18,57.09-31.85,76.76
			l17.06,17.06c24.04-24.04,38.92-57.23,38.92-93.82S311.55,149.57,287.51,125.54z"/>
		<path d="M253.4,159.66l-17.06,17.05c10.93,10.93,17.69,26.01,17.69,42.65c0,16.63-6.77,31.72-17.69,42.64
			l17.06,17.06c15.3-15.29,24.77-36.41,24.77-59.7C278.17,196.06,268.7,174.95,253.4,159.66z"/>
	</g>
</g>
<g id="minuba-figure-graph">
	<rect x="52" y="201" width="61" height="198"/>
	<rect x="162" y="138" width="64" height="261"/>
	<rect x="273" y="225" width="64" height="174"/>
	<rect x="386" y="101" width="61" height="298"/>
</g>

<g id="minuba-symbol-plus">
	<path fill="#862342" d="M240.78,258.21h-17.57v-16.41h17.57v-21.74h18.43v21.74h17.57v16.41h-17.57v21.75h-18.43
		V258.21z"/>
</g>
<g id="minuba-symbol-minus">
	<path fill="#862342" d="M223.22,258.21v-16.41h53.57v16.41H223.22z"/>
</g>
<g id="minuba-symbol-equals">
	<path fill="#862342" d="M223.22,227.97h53.57v16.41h-53.57V227.97z M223.22,255.47h53.57v16.56h-53.57V255.47z"
		/>
</g>
<polygon id="minuba-symbol-arrow-1" points="233.66,325.61 211.77,309.81 254.94,250 211.77,190.19 233.66,174.39 
	288.23,250 	"/>

</svg>
