<svg xmlns="http://www.w3.org/2000/svg" width="500" height="500" viewBox="0 0 500 500" preserveAspectRatio="true">
<path id="timer-face" fill="#FFFFFF" d="M250.004,1.327C112.667,1.327,1.331,112.663,1.331,250
	c0,137.338,111.336,248.674,248.673,248.674c137.33,0,248.666-111.336,248.666-248.674C498.67,112.663,387.334,1.327,250.004,1.327
	L250.004,1.327z"/>
<path id="timer-elapsed" fill="currentColor" d="M249,31.164v217.245l194.381-85.75C443.381,162.659,432,54.029,249,31.164
	z"/>
<g id="timer-hour">
	<path d="M250.004,278.479c-17.295,0-30.337-12.115-30.337-28.182c0-4.271,0.958-8.579,3.083-9.184l27.254-103.718
		l27.243,103.735c2.243,0.783,3.095,6.523,3.095,10.238C280.342,267.33,267.866,278.479,250.004,278.479z"/>
	<path fill="#FFFFFF" d="M250.004,139.822L276.838,242h-0.119c1.934,0,3.123,4.899,3.123,9.598
		c0,16.471-13.365,26.496-29.838,26.496c-16.48,0-29.837-11.039-29.837-27.51c0-4.698,1.174-8.584,3.107-8.584h-0.119
		L250.004,139.822 M250.004,135.426l-0.968,3.682l-26.702,101.618c-2.318,0.972-3.168,5.569-3.168,9.57
		c0,16.351,13.257,28.682,30.837,28.682c8.437,0,16.159-2.616,21.744-7.367c5.949-5.062,9.094-12.062,9.094-20.244
		c0-3.352-0.69-9.378-3.175-10.605l-26.696-101.654L250.004,135.426L250.004,135.426z"/>
</g>
<g id="timer-minute">
	<path d="M248.902,280c-11.585,0-22.279-7.057-27.245-18.234c-3.303-7.451-3.624-15.56-0.904-22.983
		c2.744-7.488,8.313-13.37,15.683-16.636c2.354-1.041,5.738-1.541,5.881-1.562l149.399-34.091L266.123,274.37
		c-0.104,0.081-3.065,2.219-5.421,3.257c-3.798,1.684-7.768,2.373-11.798,2.373C248.903,280,248.903,280,248.902,280z"/>
	<path fill="#FFFFFF" d="M389.334,187.56l-123.498,86.405c0,0-3.01,2.35-5.336,3.375c-3.826,1.696-7.755,2.495-11.597,2.495
		c-11.273,0-21.799-6.874-26.789-18.104c-6.683-15.076-0.536-32.41,14.524-39.085c2.319-1.026,5.753-1.546,5.753-1.546
		L389.334,187.56 M394.099,185.447l-4.987,1.138l-146.907,33.531c-0.408,0.064-3.662,0.594-5.97,1.615
		c-7.496,3.322-13.16,9.346-15.95,16.963c-2.765,7.546-2.44,15.872,0.916,23.442c5.046,11.359,15.92,18.699,27.703,18.699
		c4.102,0,8.14-0.868,12.002-2.581c2.332-1.028,5.225-3.252,5.524-3.484l123.478-86.39L394.099,185.447L394.099,185.447z"/>
</g>
<path id="timer-edge" d="M250.004,1.327C112.667,1.327,1.331,112.663,1.331,250
	c0,137.338,111.336,248.674,248.673,248.674c137.33,0,248.666-111.336,248.666-248.674C498.67,112.663,387.334,1.327,250.004,1.327z
	 M264,452.437V421h-22v31.756C137.453,448.68,52.959,365.157,47.368,261H82v-23H47.432C53.509,134.309,137.788,51.307,242,47.243V78
	h22V47.562C365.434,54.506,446.607,136.304,452.567,238H424v23h28.631C447.147,363.16,365.766,445.471,264,452.437z"/>
</svg>
