<svg xmlns="http://www.w3.org/2000/svg" width="500" height="500" viewBox="0 0 500 500" preserveAspectRatio="true">
<path d="M440.704,59.29c-15.712-15.715-34.642-23.575-56.774-23.575H116.07c-22.133,0-41.062,7.859-56.781,23.575
	C43.578,75.008,35.718,93.938,35.718,116.07v267.855c0,22.134,7.859,41.062,23.571,56.781
	c15.718,15.719,34.648,23.578,56.781,23.578H383.93c22.133,0,41.062-7.859,56.774-23.578c15.719-15.719,23.578-34.647,23.578-56.781
	V116.07C464.282,93.938,456.423,75.005,440.704,59.29z M166.296,394.528h-64.453V200.888h64.453V394.528z M160.437,165.039
	c-6.695,6.418-15.531,9.625-26.507,9.625h-0.281c-10.602,0-19.2-3.207-25.805-9.625c-6.608-6.418-9.906-14.371-9.906-23.855
	c0-9.672,3.395-17.672,10.181-24c6.795-6.324,15.582-9.488,26.367-9.488c10.789,0,19.438,3.164,25.952,9.488
	c6.508,6.328,9.859,14.328,10.04,24C170.477,150.665,167.133,158.618,160.437,165.039z M398.156,394.528h-64.453V291.013
	c0-29.197-10.785-43.802-32.363-43.802c-8.184,0-15.066,2.277-20.645,6.832c-5.586,4.556-9.772,10.094-12.559,16.605
	c-1.301,3.348-1.95,8.552-1.95,15.621v108.259h-64.453c0.555-116.816,0.555-181.363,0-193.641h64.453v27.34
	c13.552-21.19,32.792-31.805,57.755-31.805c22.323,0,40.276,7.348,53.854,22.04c13.578,14.695,20.367,36.367,20.367,65.005v111.061
	H398.156z"/>
</svg>
