<svg xmlns="http://www.w3.org/2000/svg" width="500" height="500" viewBox="0 0 500 500" preserveAspectRatio="true">

	<path d="M249.02,50.55c-20.61,0-37.38,17.89-37.38,39.88s16.77,39.88,37.38,39.88c20.61,0,37.38-17.89,37.38-39.88
		S269.63,50.55,249.02,50.55z"/>
	<path d="M202.98,247.09l0.02,3.02v24.7L196.27,426h0.02c0,0-0.02,0.15-0.02,0.23c0,8.82,12.26,15.98,27.39,15.98
		s30.99-7.14,30.99-15.96c0-0.09-0.02-0.24-0.03-0.24h0.1c0,0,2.36-120.5,2.36-121.09c0-1.92,1.56-3.48,3.48-3.48
		c1.92,0,3.48,1.76,3.48,3.68c0,0.5,2.41,106.89,2.41,106.89h0.09c0,0-0.02-0.04-0.02,0.04c0,8.82,8.66,15.87,23.79,15.87
		s27.39-7.01,27.39-15.83c0-0.08-0.02-0.08-0.02-0.08h0.02L311,274.81v-7.56c6,0.21,8.51-1.78,11.73-4.99
		c5.18-5.16,9.52-12.32,10.23-19.7c0.42-4.36-0.56-8.38-4.23-10.97c-4.75-3.36-9.49-6.72-14.25-10.07l2.48-32.4
		c29.87,14.45,81.73,39.52,81.78,39.54c7.84,4.1,16.42-5.6,19.86-11.46c2.77-4.72,4.68-10.22,4.63-15.74
		c-0.04-3.86-1.19-8.37-4.88-10.3c-4.62-2.44-9.38-4.64-14.07-6.95c-10.66-5.26-21.32-10.53-31.98-15.8
		c-19.36-9.56-38.71-19.12-58.07-28.68c-0.25-0.13-16.2-6.97-28.07-9.31c-3.41-0.96-6.9-1.72-10.45-2.33
		c-7.45,5.91-16.7,9.42-26.72,9.42c-8.04,0-15.57-2.27-22.09-6.21c-1.56,0.51-3.1,1.04-4.62,1.63l0,0
		c-3.66,1.43-7.23,3.15-10.57,5.23c-1.66,1.03-3.24,2.17-4.76,3.4c-0.8,0.65-1.58,1.24-2.32,1.96c-0.2,0.19-1.11,1.48-1.25,1.48h0
		c-16,13-13.19,40.88-3.65,54l2.5,36.38"/>
	<path fill="#FFFFFF" d="M333.54,226.11c-23.92-16.92-79.33-55.56-83-58.1c-1.24,1.84-4,5.86-3.99,5.94
		c0.01,0.08,79.85,55.92,82.58,57.85c5.26,3.72,4.53,11.09,2.68,16.49c-2.85,8.34-13.61,24.15-24.28,17.67
		c-6.57-3.99-102.01-61.93-104.02-63.15c-2.13-1.29-3.54-3.25-4.87-5.36c-7.36-11.67-8.95-28.31-3.48-41.02
		c1.27-2.94,2.96-5.7,5.07-8.11c2.59-2.96,5.68-5.9,8.86-8.19c-2.06-1.33-4.09-2.71-6.15-4.04c-0.41-0.27-3.9,3.09-4.52,3.63
		c-6.79,5.85-10.98,14.14-12.67,22.86c-1.86,9.64-0.91,19.87,2.34,29.11c1.49,4.25,3.51,8.37,6.22,11.98
		c1.03,1.38,2.18,2.64,3.4,3.85c1.47,1.45,50.02,30.48,72.2,43.97c-2.33,0.45-4.7,0.85-7.1,1.15
		c-27.22,3.41-52.18-4.24-60.44-17.29l0.84,11.73c10.25,8.54,26.84,13.61,46.11,13.61c4.66,0,9.47-0.29,14.39-0.91
		c5.17-0.65,10.21-1.63,15.04-2.92c1.18,0.71,18.43,11.23,25.9,15.75c0.42,0.25,0.82,0.52,1.25,0.75
		c4.82,2.57,11.94,1.02,16.44-1.54c7.19-4.1,12.76-12.08,15.73-19.64C341.37,243.69,341.96,231.92,333.54,226.11z"/>
	<path fill="#FFFFFF" d="M333.54,226.11c-5-3.54-11.39-8.03-18.39-12.94c-26.45-18.57-61.71-43.14-64.62-45.15
		c-1.24,1.84-4,5.86-3.99,5.94c0.01,0.07,64.79,45.38,79.63,55.78c1.63,1.15,2.67,1.87,2.94,2.07c4.34,3.07,4.6,8.61,3.52,13.49
		c0,0.02-0.01,0.04-0.01,0.06c-0.17,0.76-0.37,1.5-0.6,2.22c-0.14,0.45-0.3,0.9-0.46,1.35c-0.04,0.1-0.07,0.2-0.11,0.3
		c-1.07,2.87-2.57,5.6-4.36,8.1c-0.03,0.05-0.07,0.1-0.1,0.15c-0.17,0.23-0.32,0.46-0.49,0.69c-3.94,5.4-9.39,10.04-15.11,9.23
		c-1.29-0.18-2.58-0.64-3.88-1.42c-6.57-3.99-102.01-61.93-104.02-63.15c-1.55-0.94-2.71-2.24-3.74-3.68l0.73,10.26
		c10.82,6.85,50.1,30.36,69.41,42.11c-2.33,0.45-4.7,0.85-7.1,1.15c-27.22,3.41-52.18-4.24-60.44-17.29l0.84,11.73
		c10.25,8.54,26.84,13.61,46.11,13.61c4.66,0,9.47-0.29,14.39-0.91c5.17-0.65,10.21-1.63,15.04-2.92
		c1.18,0.71,18.43,11.23,25.9,15.75c0.42,0.25,0.82,0.52,1.25,0.75c1.64,0.88,3.55,1.24,5.53,1.29c3.84,0.08,7.94-1.14,10.91-2.83
		c7.19-4.1,12.76-12.08,15.73-19.64C341.37,243.69,341.96,231.92,333.54,226.11z"/>
</svg>
