<svg xmlns="http://www.w3.org/2000/svg" width="500" height="500" viewBox="0 0 500 500" preserveAspectRatio="true">

	<path d="M403.44,101H42v252h21.29c0-28,22.57-50.32,50.32-50.32c27.75,0,50.32,22.32,50.32,50.32h178.96
		c0-28,22.57-50.32,50.32-50.32c27.74,0,50.32,22.32,50.32,50.32H458V240.31L403.44,101z"/>
	<polygon fill="#FFFFFF" points="335,239 335,113 388.77,113 438.11,239 			"/>
	<path d="M157.94,352.83c0,24.48-19.85,44.33-44.33,44.33c-24.48,0-44.33-19.84-44.33-44.33
		c0-24.48,19.85-44.33,44.33-44.33C138.09,308.51,157.94,328.35,157.94,352.83z"/>
	<path d="M437.54,352.83c0,24.48-19.85,44.33-44.33,44.33c-24.48,0-44.33-19.84-44.33-44.33
		c0-24.48,19.85-44.33,44.33-44.33C417.69,308.51,437.54,328.35,437.54,352.83z"/>
</svg>
