<svg xmlns="http://www.w3.org/2000/svg" width="500" height="500" viewBox="0 0 500 500" preserveAspectRatio="true">

	<path fill="#FFFFFF" d="M250,83.13c-91.19,0-165.38,74.19-165.38,165.38c0,91.19,74.19,165.38,165.38,165.38
		c91.19,0,165.38-74.19,165.38-165.38C415.38,157.33,341.19,83.13,250,83.13L250,83.13z"/>
	<path fill="currentColor" d="M250,112.37v135.16l120.93-53.35C370.93,194.17,365.15,126.59,250,112.37z
		"/>
	<path fill="#FFFFFF" d="M250,168.17l-3.44,13.1l-16.35,62.22c-1.24,1.19-2.33,3.44-2.33,7.7
		c0,11.85,9.51,20.78,22.12,20.78c12.82,0,22.12-8.46,22.12-20.12c0-3.84-0.83-6.7-2.31-8.28l-16.37-62.31L250,168.17L250,168.17z"
		/>
	<path d="M266.62,248h0.07L250,184.42L233.3,248h0.07c-1.2,0-1.94,1.39-1.94,4.31
		c0,10.25,8.31,16.66,18.57,16.66c10.25,0,18.56-5.47,18.56-15.72C268.56,250.34,267.83,248,266.62,248z"/>
	<path fill="#FFFFFF" d="M353.63,202.15l-17.74,4.05l-91.3,20.84c-0.6,0.1-2.7,0.47-4.34,1.2
		c-11.11,4.93-15.88,17.68-10.85,29.01c3.61,8.13,11.43,13.38,19.92,13.38c2.96,0,5.88-0.63,8.66-1.86
		c1.66-0.74,3.54-2.14,3.98-2.48l76.77-53.71L353.63,202.15L353.63,202.15z"/>
	<path d="M259.85,263.43l76.83-53.76l-91.42,20.87c0,0-2.13,0.32-3.58,0.96
		c-9.37,4.16-13.19,14.94-9.04,24.32c4.16,9.37,14.52,13.87,23.88,9.71C257.98,264.88,259.85,263.43,259.85,263.43z"/>
	<path d="M250,93.81c-85.44,0-154.71,69.26-154.71,154.71c0,85.44,69.26,154.71,154.71,154.71
		c85.44,0,154.71-69.27,154.71-154.71C404.71,163.07,335.44,93.81,250,93.81z M258,374.54V354h-16v20.57
		C179,371.11,128.94,321,124.15,258H144v-14h-20.14C126.19,178,179,126.01,242,122.46V145h16v-22.52
		C322,126.17,373.82,178,376.14,244H357v14h18.85C371.07,321,322,370.95,258,374.54z"/>
</svg>
