<svg xmlns="http://www.w3.org/2000/svg" width="500" height="500" viewBox="0 0 500 500" preserveAspectRatio="true">
	<path d="M491.05,252.42L420.92,104.1l-80.96,18.39L312.21,281h-52.67l-29.63-179H69.65L40.02,281H11v47h23.32
		c-1.35,1-2.6,2.37-3.74,4.05l4.71,2.85c-1.69,2.31-3.1,4.66-4.2,7.36L26,340.22c-1.92,5-2.9,10.24-2.9,15.64
		c0,4.61,0.72,9.13,2.15,13.48l5.34-1.69c0.98,2.71,2.28,5.25,3.86,7.61l-5.05,3.07c5.18,8.53,13.21,15.08,22.59,18.45l2.5-6.96
		c2.58,0.74,5.28,1.21,8.06,1.37l-0.92,8.19c1.69,0.2,3.41,0.63,5.11,0.63H87v-8h9v8h23v-8h9v8h24v-8h8v8h24v-8h8v8h23v-8h9v8h24
		v-8h9v8h23v-8h4.99c0.01,0,0.02,0,0.03,0c1.29,0,2.56-0.45,3.82-0.57l1.27,7.5c9.87-1.63,18.93-6.79,25.52-14.36l-4.64-4.08
		c2.01-2.04,3.77-4.34,5.24-6.82l5.01,2.65c3.32-6.26,5.07-13.35,5.07-20.5c0-2.8-0.27-5.59-0.78-8.31l-5.01,0.94
		c-0.56-2.88-1.47-5.62-2.67-8.2l4.92-1.51c-1.85-4.21-4.4-8.74-7.47-10.74H334v-44.51l24.89-143.24l50.02-11.33l59.52,125.98
		l-47.19,20.25l-2.67-6.19l-6.05,2.59l2.65,6.19l-6.19,2.66l-2.66-6.19l-6.19,2.66l2.66,6.19l-6.19,2.66l-2.66-6.19l-6.19,2.66
		l2.66,6.19c11.47,25.64,41.43,37.42,67.33,26.3c23.77-10.2,35.9-36.17,29.48-60.45L491.05,252.42z"/>
	<polygon fill="#FFFFFF" points="217.77,117 81.79,117 57.68,265 241.86,265 		"/>
	<circle fill="#FFFFFF" cx="275.7" cy="355.8" r="12.55"/>
	<circle fill="#FFFFFF" cx="174.7" cy="355.8" r="12.55"/>
	<circle fill="#FFFFFF" cx="73.69" cy="355.8" r="12.55"/>
</svg>
