<svg xmlns="http://www.w3.org/2000/svg" width="500" height="500" viewBox="0 0 500 500" preserveAspectRatio="true">

	<path fill="#FFFFFF" d="M407,108.2l-90,27.2v84.12v3.74l3.05,2.15l2.29,1.61c2.35,1.65,4.7,3.31,7.04,4.97
		c5.51,3.8,3.82,12.82,1.96,17.56c-2.48,6.33-6.68,11.98-11.23,15.12l-3.1,2.15v3.78v28.71l90-27.2V108.2L407,108.2z"/>
	<path fill="currentColor" d="M324,140.74v78.79c3,2.2,6.33,4.39,9.45,6.59
		c8.42,5.81,7.79,17.57,4.46,26.07c-2.7,6.89-6.9,14.09-13.9,18.42v19.01l75-22.83V117.91L324,140.74z"/>
		<polygon fill="#FFFFFF" points="338,166.76 338,175.8 386,161.14 386,152.11 			"/>
		<polygon fill="#FFFFFF" points="338,193.76 338,202.8 386,188.14 386,179.11 			"/>
		<polygon fill="#FFFFFF" points="338,221.96 338,231 386,216.34 386,207.31 			"/>
		<polygon fill="#FFFFFF" points="338,249.56 338,258.6 386,243.94 386,234.91 			"/>

</svg>
