<svg xmlns="http://www.w3.org/2000/svg" width="500" height="500" viewBox="0 0 500 500" preserveAspectRatio="true">

	<path d="M198.88,247.22l0.12,3.02v24.7L192.07,426h0.02c0,0-0.02,0.22-0.02,0.29
		c0,8.82,12.26,16.01,27.39,16.01c15.13,0,30.99-7.19,30.99-16.01c0-0.08-0.03-0.29-0.03-0.29h0.1c0,0,2.36-120.43,2.36-121.03
		c0-1.92,1.56-3.45,3.48-3.45c1.92,0,3.48,1.71,3.48,3.63c0,0.5,2.42,106.84,2.42,106.84h0.09c0,0-0.02,0.03-0.02,0.11
		c0,8.82,8.67,15.9,23.79,15.9c15.13,0,27.39-7.05,27.39-15.88c0-0.08-0.02-0.13-0.02-0.13h0.02L307,274.94v-7.62
		c2,0.13,4-0.11,5-0.94v0.17l1.14,7.27l0.79,6.08c1.2-0.08,2.56-0.2,3.8-0.42c11.52-1.97,19.97-8.87,18.82-15.59
		c-0.01-0.05-0.02,0.05-0.04,0.08c0,0.01,0,0.03,0,0.03s0.02-0.42,0.02-0.42l-1.98-13.36l-3.32-22.38L321.92,165h-0.01
		c0,0,0.01,0.45,0.01,0.47l3.43,23.23l-0.03-0.01l-3.4-22.82c0-0.02-0.01-0.05-0.01-0.07c-1.25-15.56-24.79-35.89-47.12-37.31
		c-7.39,5.75-16.51,9.15-26.37,9.15c-8.64,0-16.7-2.61-23.54-7.12c-12.12,3.43-21.8,8.99-27.28,15.94
		c-14.21,13.84-11.27,39.97-2.05,52.63l2.55,36.41"/>
	<path d="M248.42,50.55c-20.61,0-37.38,17.89-37.38,39.88s16.77,39.88,37.38,39.88
		c20.61,0,37.38-17.89,37.38-39.88S269.03,50.55,248.42,50.55z"/>
	<path fill="#FFFFFF" d="M330.59,227.84c0-0.56-0.88-1.1-1.58-1.59c-7-4.96-13.87-9.89-20.88-14.83l-1.95-23.57
		l-7.13,0.63l1.62,17.58c2.08,1.46-50.66-35.37-54.34-37.91c-1.24,1.84-3.95,5.82-3.98,5.89c-0.04,0.11,79.85,55.98,82.57,57.9
		c5.26,3.72,4.53,11.09,2.68,16.49c-1.96,5.75-7.69,15.05-14.55,18.15c-1.42,0.64-3.19,1.01-4.69,1.03
		c1.37-0.03,2.65-0.4,3.65-1.03v-0.01l0.41-0.17c-1.94,0.83-3.41,1.07-5.41,0.94v0.19c-2-0.18-2.49-0.64-3.79-1.42
		c-14.97-9.09-101.96-61.93-103.97-63.15c-1.54-0.93-2.67-2.22-3.7-3.66l0.74,10.25c10.84,6.86,50.1,30.36,69.4,42.1
		c-2.33,0.45-4.69,0.85-7.1,1.15c-27.22,3.41-52.17-4.24-60.43-17.28l0.83,11.73c10.25,8.54,26.84,13.61,46.1,13.61
		c4.66,0,9.48-0.29,14.39-0.91c5.17-0.65,10.17-1.66,15-2.95c1.79,1.09,19.21,11.7,25.94,15.77c0.42,0.25,0.82,0.64,1.25,0.87
		c1.57,0.83,3.38,1.39,5.26,1.39c0,0,0,0,0,0l0.53,5.74l6.71-1.06l0.03-0.03l-0.53-6.64c0,0-0.01,0-0.01,0
		c1.62,0,3.15-0.72,4.45-1.46c7.19-4.1,12.76-11.87,15.73-19.43c0.26-0.65,0.17-1.33,0.39-2.02l-0.11-0.69
		C336.38,242.05,337.58,233.3,330.59,227.84z"/>
</svg>
