<svg xmlns="http://www.w3.org/2000/svg" width="500" height="500" viewBox="0 0 500 500" preserveAspectRatio="true">

	<path fill="#FFFFFF" d="M457.76,245.32l-8.23-16.01l-3.29-6.41l-3.2,1.65l-32.07-62.44l-4.12-8.02l-6.69,5.61
		c-0.16,0.07-0.32,0.14-0.49,0.21c-0.44,0.19-1,0.43-1.6,0.73c-1.29,0.66-2.67,1-4.1,1c-3.4,0-6.47-1.87-8.02-4.89l-3.29-6.41
		l-6.41,3.29l-3.2,1.65l-6.41,3.29l3.29,6.4l18.91,36.83l-52.31,26.86c4.75,4.75,12.03,15.95-2.64,31.59
		c-2.94,3.13-5.55,5.63-7.95,7.62l1.15,2.05l76.55-39.32l5.75,11.21l-4.8,2.46l3.29,6.41l8.22,16.01l3.29,6.4l6.4-3.29l28.82-14.8
		l6.41-3.29L457.76,245.32z"/>
	<path fill="currentColor" d="M417.46,241.73l3.2-1.65l1.64,3.2l-8,4.11l8.22,16.01l28.82-14.8
		l-8.23-16.01l-6.4,3.29l-1.65-3.2l3.2-1.65l-33.72-65.65c-0.91,0.76-2.1,1.08-3.2,1.65c-7.96,4.09-17.73,0.95-21.81-7.01
		l-3.2,1.65l22.2,43.23l-57.74,29.66c2.57,5.29,3.24,12.89-4.03,22.3l70-35.95L417.46,241.73z"/>
</svg>
