<svg xmlns="http://www.w3.org/2000/svg" width="500" height="500" viewBox="0 0 500 500" preserveAspectRatio="true">

	<path d="M253.57,197.85c1.83-3.27,3.89-6.96,4.72-11.56c0.12-0.68,0.2-1.35,0.24-2.03
		c4.02-1.31,7.67-3.65,10.91-7.01c8.33-8.63,13.75-24.05,16.19-45.86c-1.84-0.44-3.62-0.84-5.3-1.18c-1.96-0.4-3.76-0.72-5.35-0.95
		c-0.19-0.03-0.38-0.06-0.55-0.08c-1.67,1.22-3.43,2.31-5.26,3.29c-2.1,16.4-6,27.95-11.39,33.54c-2.2,2.27-4.39,3.29-7.12,3.29
		c-8.62,0-16.03-13.41-20.12-36.11c-2.12-1.03-4.15-2.23-6.07-3.58c-0.17-0.12-0.35-0.23-0.52-0.35c-1.45,0.21-3.09,0.5-4.86,0.85
		c-1.66,0.33-3.44,0.72-5.29,1.15c3.36,22.22,11.04,46.71,28.4,52.81c-0.48,1.78-1.55,3.7-2.78,5.88
		c-0.73,1.32-1.57,2.81-2.31,4.38c-4.19,8.92-4.78,20.86-1.46,29.71c0.08,0.21,0.15,0.41,0.23,0.61c-2.5,2.82-3.92,6.47-3.92,10.36
		c0,8.63,7.02,15.66,15.66,15.66c8.63,0,15.66-7.02,15.66-15.66c0-7.35-5.09-13.53-11.92-15.21c-0.17-0.48-0.35-0.96-0.53-1.45
		c-1.77-4.71-1.34-12.23,0.96-17.13C252.28,200.16,252.91,199.04,253.57,197.85z"/>
	<path fill="#FFFFFF" d="M261.67,169.75c-3.21,3.33-6.81,4.94-11,4.94c-15.37,0-22.86-23.38-26.19-45.09
		c-0.17-0.12-0.35-0.23-0.52-0.35c-1.45,0.21-3.09,0.5-4.86,0.85c3.13,20.95,10.42,46.11,27.49,49.58
		c0.83,1.53,1.41,2.87,1.08,4.69c-0.51,2.83-1.98,5.45-3.52,8.22c-0.73,1.3-1.48,2.65-2.13,4.03c-3.56,7.57-4.09,18.06-1.3,25.51
		c0.56,1.49,1.03,2.88,1.43,4.2c-2.87,1.82-4.78,5.01-4.78,8.66c0,5.66,4.59,10.26,10.26,10.26c5.66,0,10.25-4.59,10.25-10.26
		c0-5.66-4.59-10.25-10.25-10.25c-0.11,0-0.21,0.01-0.31,0.02c-0.44-1.43-0.94-2.93-1.54-4.52c-2.29-6.1-1.81-15.06,1.13-21.32
		c0.57-1.21,1.24-2.42,1.96-3.69c1.69-3.03,3.45-6.17,4.12-9.89c0.37-2.06,0.12-3.82-0.37-5.33c4.87-0.46,9.21-2.63,12.94-6.5
		c9.05-9.38,13.05-27.51,14.78-43.28c-1.96-0.4-3.76-0.72-5.35-0.95C273.39,144.26,269.78,161.34,261.67,169.75z"/>
</svg>
