<svg xmlns="http://www.w3.org/2000/svg" width="500" height="500" viewBox="0 0 500 500" preserveAspectRatio="true">
<path d="M387.081,264.827C387.054,264.765,325.2,147.75,325.2,147.75
	c-4.276-8.204-33.508-15.939-46.916-17.835c-8.139,5.944-18.002,9.438-28.625,9.438c-10.576,0-20.396-3.461-28.519-9.356
	c-13.62,2.011-42.169,9.65-46.392,17.753c0,0-61.854,117.015-61.881,117.077c-3.445,6.901,3.354,17.288,15.194,23.195
	c11.833,5.906,24.211,5.108,27.659-1.793c0.035-0.066,28.469-60.517,28.469-60.517l2.624,36.787v40.43
	c0,0-3.265,171.336-3.265,171.422c0,9.99,14.25,18.085,31.379,18.085c17.126,0,31.193-8.066,31.193-18.055
	c0-0.096,0.195-144.935,0.195-144.935h0.121c-0.042,0-0.114-0.376-0.114-0.576c0-1.435,1.167-2.609,2.601-2.609
	c1.438,0,2.601,1.178,2.601,2.613c0,0.199-0.068,0.572-0.111,0.572h0.181c0,0,0.014,144.839,0.014,144.935
	c0,9.988,13.885,18.069,31.011,18.069c17.129,0,30.691-8.102,30.691-18.093c0-0.082-3.416-171.429-3.416-171.429V262.5l4.093-40.559
	c0,0,30.206,64.222,30.242,64.288c3.447,6.901,15.825,7.699,27.657,1.793C383.728,282.115,390.525,271.729,387.081,264.827z"/>
<path d="M299.998,39.26c0,0-0.062-0.613-0.173-0.896c-0.051-0.209-0.536-1.449-0.797-1.833
	C287.482,10.285,257.71-2.92,230.796,7.003c-27.066,9.98-41.154,39.64-32.579,67.231c0.054,0.285,0.31,1.085,0.369,1.21
	c0.122,0.357,0.567,0.999,0.567,0.999c5.293,7.039,29.238,5.254,55.629-4.477c5.001-1.842,4.64-1.539,7.493-2.807
	c0,0,8.569,0.74,16.947,0.491c10.746-0.313,25.105-5.774,35.9-20.445C324.01,37.133,299.998,39.26,299.998,39.26z"/>
<path d="M275.605,76.356c-5.115,0-9.791-0.271-12.201-0.438c-0.91,0.374-1.562,0.604-2.549,0.945
	c-0.8,0.277-1.894,0.656-3.768,1.346c-15.782,5.818-31.556,9.156-43.283,9.156c-2.327,0-4.466-0.141-6.443-0.403
	c0.377,24.55,19.198,44.401,42.297,44.401c23.33,0,42.313-20.253,42.313-45.148c0-4.031-0.505-7.938-1.439-11.66
	c-3.656,1.035-7.383,1.636-11.112,1.745C278.209,76.337,276.927,76.356,275.605,76.356z"/>
<path fill="#FFFFFF" d="M310,286.558v-10.945c-12,12.56-35.363,21.203-62,21.203c-26.638,0-50-8.644-62-21.203v10.945
	c16,11.104,36.607,18.41,62,18.41C273.391,304.968,297,297.662,310,286.558z"/>
<path fill="#FFFFFF" d="M279.223,69.651c-1.21,0.036-2.425,0.052-3.617,0.052c-7.057,0-13.33-0.543-13.33-0.543
	c-2.854,1.269-2.492,0.965-7.493,2.807c-15.647,5.769-30.434,8.746-40.984,8.746c-2.236,0-4.254-0.15-6.078-0.42
	c-0.239,1.94-0.375,3.913-0.375,5.922c0,0.25,0.014,0.498,0.018,0.747c1.977,0.263,4.116,0.403,6.443,0.403
	c11.727,0,27.501-3.338,43.283-9.156c1.874-0.69,2.968-1.069,3.768-1.346c0.987-0.341,1.639-0.571,2.549-0.945
	c2.41,0.167,7.086,0.438,12.201,0.438c1.321,0,2.604-0.02,3.815-0.056c3.729-0.109,7.456-0.71,11.112-1.745
	c-0.547-2.184-1.246-4.302-2.08-6.344C285.211,69.104,282.087,69.567,279.223,69.651z"/>
<path fill="#FFFFFF" d="M254.934,149.148c2.466-1.619,4.095-4.405,4.095-7.575c0-4.998-4.051-9.053-9.054-9.053
	c-5.001,0-9.057,4.056-9.057,9.053c0,3.17,1.63,5.957,4.096,7.575c-3.049,12.325-11.886,95.327-11.886,99.749
	c0,1.425,0.541,2.853,1.632,3.94l11.275,11.275c2.175,2.173,5.701,2.173,7.88,0l11.273-11.275c1.09-1.088,1.632-2.516,1.632-3.94
	C266.821,244.476,257.979,161.474,254.934,149.148z"/>
</svg>
