<svg xmlns="http://www.w3.org/2000/svg" width="500" height="500" viewBox="0 0 500 500" preserveAspectRatio="true">

<path d="M313.13,147.68c-11.87-5.54-28.49-11.08-52.25-11.08c-22.96,0-35.22,7.52-35.22,19
	c0,11.87,13.85,19,42.35,27.7c42.75,12.67,75.2,28.5,75.2,69.27c0,20.98-11.87,37.2-28.49,47.89c7.52,5.94,17.42,19,17.42,36.81
	c0,48.29-51.06,63.33-87.87,63.33c-23.75,0-52.64-3.96-74.02-17.42l11.48-36.41C193.6,353.5,217.74,363,241.88,363
	c20.98,0,35.62-6.72,35.62-20.18c0-13.06-11.87-20.19-41.95-29.69c-41.95-12.67-78.76-28.89-78.76-68.08
	c0-17.41,10.69-37.6,32.85-48.29c-8.31-6.73-15.84-21.37-15.84-36.02c0-39.98,38-61.35,86.68-61.35c22.56,0,43.94,3.57,62.14,11.88
	L313.13,147.68z M237.93,265.24c18.21,6.72,37.6,12.27,46.31,17.02c7.12-4.36,11.88-12.67,11.88-20.59
	c0-11.47-7.92-20.98-27.31-28.49c-16.63-6.33-39.19-13.86-51.06-19.4c-8.31,4.35-14.25,11.48-14.25,20.98
	C203.49,247.43,214.18,256.93,237.93,265.24z"/>
</svg>
