<svg xmlns="http://www.w3.org/2000/svg" width="500" height="500" viewBox="0 0 500 500" preserveAspectRatio="true">

	<path d="M294.19,49.2c0,0-0.05-0.54-0.15-0.79c-0.04-0.19-0.47-1.28-0.7-1.62
		c-10.2-23.19-36.5-34.85-60.27-26.08c-23.91,8.82-36.35,35.02-28.78,59.39c0.05,0.25,0.27,0.96,0.33,1.07
		c0.11,0.32,0.5,0.88,0.5,0.88c4.68,6.22,25.83,4.64,49.14-3.95c4.42-1.63,4.1-1.36,6.62-2.48c0,0,7.57,0.65,14.97,0.43
		c9.49-0.28,22.18-5.1,31.71-18.06C315.4,47.33,294.19,49.2,294.19,49.2z"/>
	<path fill="#FFFFFF" d="M275.84,76.05c-1.07,0.03-2.13,0.04-3.18,0.04c-6.24,0-11.79-0.48-11.79-0.48
		c-2.52,1.12-2.2,0.85-6.62,2.48c-13.82,5.1-26.88,7.73-36.2,7.73c-1.98,0-3.76-0.13-5.37-0.37c-0.21,1.72-0.33,3.46-0.33,5.23
		c0,0.67,0.02,1.33,0.05,1.98c1.75,0.23,3.62,0.35,5.65,0.35c10.51,0,24.61-2.98,38.69-8.17c1.64-0.61,2.61-0.94,3.31-1.18
		c0.79-0.27,1.35-0.47,2.04-0.75c2.23,0.15,6.23,0.37,10.58,0.37c1.12,0,2.26-0.01,3.4-0.05c3.38-0.1,6.76-0.64,10.07-1.58
		c-0.52-2.39-1.23-4.69-2.14-6.89C281.13,75.57,278.37,75.98,275.84,76.05z"/>
</svg>
