<svg xmlns="http://www.w3.org/2000/svg" width="500" height="500" viewBox="0 0 500 500" preserveAspectRatio="true">

	<path fill="#FFFFFF" d="M362,238.67v0.76c0,9.52,6.52,17.57,14.37,17.57h53.85c7.71,0,12.77-8.3,12.77-17.78
		v-1.24l0.52-0.51c-0.27-3.37-1.42-6.64-3.35-9.35L417,196.23V175.6c4-1.82,6-5.19,6-8.94v-0.28c0-3.84-2.2-7.28-5.61-9.07
		c2.48-2.13,4.22-5.26,4.22-8.78c0-3.52-1.5-6.68-3.99-8.81c1.41-1.68,2.3-3.85,2.3-6.21c0-5.33-4.32-9.67-9.66-9.67
		c-4.81,0-8.8,3.53-9.54,8.14c-0.47,0.22-0.91,0.48-1.33,0.77c-1.21-0.41-2.51-0.64-3.86-0.64c-6.63,0-12.02,5.39-12.02,12.02
		c0,3.63,1.62,6.88,4.16,9.09c-0.13,0.64-0.2,1.3-0.2,1.97c0,1.06-0.27,2.07,0.04,3.02c-2.45,1.92-4.51,4.89-4.51,8.17v0.28
		c0,3.75,2,7.12,6,8.94v20.63l-22.96,31.9c-2.12,2.98-3.71,6.54-3.86,10.12L362,238.67z"/>
	<path fill="currentColor" d="M369.65,239.09c-0.02-2.45,0.81-4.88,2.16-6.78L396,198.55V171h-1.9
		c-1.64,0-4.1-2.69-4.1-4.34v-0.28c0-1.65,2.46-2.38,4.1-2.38h18.43c1.64,0,3.47,0.73,3.47,2.38v0.28c0,1.65-1.82,4.34-3.47,4.34
		H410v27.55l24.51,33.76c1.31,1.84,2.21,4.19,2.24,6.57l0.19,0.73c0,5.28-2.95,10.39-6.71,10.39h-53.85c-3.76,0-6.8-4.9-6.8-10.18
		L369.65,239.09z"/>
	<path fill="currentColor" d="M405.55,147.83c0.09,0,0.18,0.02,0.27,0.03c0.33-2.11,2.13-3.73,4.33-3.73
		c2.43,0,4.4,1.97,4.4,4.4c0,2.43-1.97,4.4-4.4,4.4c-0.32,0-0.62-0.04-0.92-0.1c-0.49,1.58-1.94,2.73-3.68,2.73
		c-2.13,0-3.87-1.73-3.87-3.87C401.69,149.56,403.42,147.83,405.55,147.83z M390.71,144.13c0,2.66,2.16,4.82,4.82,4.82
		s4.82-2.16,4.82-4.82c0-2.66-2.16-4.82-4.82-4.82S390.71,141.47,390.71,144.13z M394.67,155.19c0,1.33,1.08,2.42,2.42,2.42
		c1.33,0,2.42-1.08,2.42-2.42c0-1.33-1.08-2.42-2.42-2.42C395.75,152.77,394.67,153.85,394.67,155.19z M407.35,140.71
		c0-1.37-1.11-2.48-2.47-2.48c-1.37,0-2.48,1.11-2.48,2.48s1.11,2.48,2.48,2.48C406.25,143.19,407.35,142.08,407.35,140.71z
		 M412.75,133.51c0-1.37-1.11-2.47-2.48-2.47c-1.37,0-2.47,1.11-2.47,2.47c0,1.37,1.11,2.48,2.47,2.48
		C411.65,135.99,412.75,134.88,412.75,133.51z"/>
	<g>
		<path fill="#FFFFFF" d="M382.95,240.31c0.86,0,1.62-0.62,1.77-1.5c0.17-0.98-0.49-1.91-1.47-2.08l-7.56-1.29
			c-0.98-0.17-1.91,0.49-2.08,1.47c-0.17,0.98,0.49,1.91,1.47,2.08l7.56,1.29C382.75,240.3,382.85,240.31,382.95,240.31z"/>
		<path fill="#FFFFFF" d="M388.81,231.24c0.86,0,1.62-0.62,1.77-1.5c0.17-0.98-0.49-1.91-1.47-2.08l-7.56-1.29
			c-0.97-0.16-1.91,0.49-2.08,1.47c-0.17,0.98,0.49,1.91,1.47,2.08l7.56,1.29C388.61,231.23,388.71,231.24,388.81,231.24z"/>
		<path fill="#FFFFFF" d="M394.67,222.17c0.86,0,1.62-0.62,1.77-1.5c0.17-0.98-0.49-1.91-1.47-2.08l-7.56-1.29
			c-0.98-0.16-1.91,0.49-2.08,1.47c-0.17,0.98,0.49,1.91,1.47,2.08l7.56,1.29C394.47,222.16,394.57,222.17,394.67,222.17z"/>
		<path fill="#FFFFFF" d="M400.54,213.1c0.86,0,1.62-0.62,1.77-1.5c0.17-0.98-0.49-1.91-1.47-2.08l-7.56-1.29
			c-0.98-0.17-1.91,0.49-2.08,1.47c-0.17,0.98,0.49,1.91,1.47,2.08l7.56,1.29C400.33,213.09,400.44,213.1,400.54,213.1z"/>
	</g>
</svg>
