<svg xmlns="http://www.w3.org/2000/svg" width="500" height="118.078" viewBox="0 0 500 118.078" preserveAspectRatio="true">
<path d="M102.742,69.312c0.089,1.562,0.141,3.373,0.141,5.398v41.639H86.46V75.48c0-1.438-0.049-2.778-0.134-4.019
	c-0.097-1.248-0.258-2.331-0.492-3.258c-0.502-2.034-1.499-3.679-2.975-4.924c-1.482-1.252-3.557-1.894-6.236-1.942
	c-1.43,0-2.912,0.211-4.436,0.624c-1.526,0.417-3.037,1.009-4.535,1.77c-1.503,0.761-2.933,1.687-4.302,2.778
	c-1.358,1.083-2.59,2.298-3.7,3.629v46.211H43.23V75.48c0-1.438-0.045-2.778-0.138-4.019c-0.093-1.248-0.254-2.331-0.488-3.258
	c-0.509-2.034-1.491-3.679-2.941-4.924c-1.458-1.252-3.547-1.894-6.27-1.942c-1.437,0-2.913,0.211-4.438,0.624
	c-1.523,0.417-3.034,1.009-4.533,1.77c-1.502,0.761-2.937,1.687-4.297,2.778c-1.362,1.083-2.598,2.298-3.708,3.629v46.211H0V49.221
	h13.581l1.523,9.347h0.279c0.965-1.381,2.189-2.75,3.667-4.084c1.478-1.339,3.154-2.518,5.021-3.539
	c1.871-1.009,3.929-1.831,6.172-2.451c2.239-0.628,4.605-0.942,7.099-0.942c4.438,0,8.417,0.988,11.952,2.947
	c3.534,1.964,6.224,5.019,8.072,9.178h0.277c1.29-1.803,2.739-3.439,4.331-4.919c1.591-1.472,3.361-2.745,5.3-3.812
	c1.939-1.058,4.031-1.889,6.269-2.488c2.239-0.6,4.63-0.905,7.171-0.905c4.802,0.045,8.83,1.054,12.09,3.014
	c3.256,1.968,5.759,4.659,7.51,8.074c0.467,0.876,0.86,1.839,1.182,2.874c0.327,1.041,0.589,2.211,0.796,3.501
	C102.496,66.311,102.645,67.741,102.742,69.312z M121.304,116.35h16.423V49.221h-16.423V116.35z M120.891,33.833h17.25V16.032
	h-17.25V33.833z M241.201,62.243c-0.829-2.584-1.972-4.82-3.429-6.685c-1.451-1.873-3.124-3.398-5.021-4.576
	c-1.892-1.178-3.983-2.042-6.27-2.596c-2.286-0.554-4.653-0.835-7.102-0.835c-2.588,0-5.021,0.314-7.307,0.942
	c-2.286,0.62-4.378,1.442-6.27,2.451c-1.897,1.021-3.578,2.2-5.06,3.539c-1.478,1.335-2.699,2.704-3.665,4.084h-0.281l-1.523-9.347
	h-13.584v67.129h16.424V70.139c2.262-2.86,4.855-5.043,7.795-6.548c2.929-1.497,5.995-2.253,9.178-2.253
	c2.4,0,4.44,0.463,6.129,1.385c1.685,0.935,2.947,2.455,3.776,4.58c0.368,0.968,0.626,2.101,0.767,3.391
	c0.134,1.298,0.203,2.844,0.203,4.646v41.01h16.42V72.769c0-2.208-0.081-4.159-0.24-5.854
	C241.976,65.228,241.662,63.674,241.201,62.243z M303.967,88.85c0,3.878-0.529,6.896-1.588,9.07
	c-1.066,2.266-2.646,3.952-4.745,5.061c-2.101,1.107-4.635,1.662-7.591,1.662c-2.819,0-5.242-0.496-7.275-1.488
	c-2.026-0.992-3.597-2.506-4.705-4.54c-0.649-1.198-1.133-2.62-1.459-4.258c-0.318-1.646-0.484-3.597-0.484-5.854V49.221h-16.42
	v41.01c0,3.043,0.289,5.821,0.864,8.318c0.582,2.488,1.476,4.778,2.674,6.854c2.262,3.878,5.606,6.962,10.038,9.253
	c4.44,2.281,10.025,3.423,16.768,3.423c3.556,0,6.784-0.331,9.666-1.001c2.886-0.669,5.474-1.62,7.759-2.844
	c2.287-1.224,4.271-2.695,5.962-4.432c1.683-1.729,3.055-3.655,4.122-5.788c1.889-3.737,2.836-8.334,2.836-13.783v-41.01h-16.421
	V88.85z M428.154,66.575c1.621,4.366,2.431,9.385,2.431,15.073c0,6.044-0.876,11.401-2.633,16.065
	c-1.757,4.663-4.047,8.499-6.892,11.501c-2.845,3.001-6.044,5.233-9.591,6.688c-3.563,1.447-7.136,2.175-10.745,2.175
	c-2.534,0-4.824-0.307-6.858-0.926c-2.033-0.629-3.812-1.406-5.333-2.324c-1.525-0.926-2.807-1.893-3.845-2.91
	c-1.037-1.017-1.86-1.918-2.459-2.703h-0.277l-1.596,7.135H366.78c0.091-1.984,0.174-4.448,0.244-7.383
	c0.065-2.928,0.103-5.714,0.103-8.343V16.036h16.421V43.95c0,1.989-0.017,3.828-0.033,5.511c-0.029,1.687-0.062,2.989-0.107,3.915
	h0.141c1.059-0.74,2.212-1.456,3.46-2.15c1.249-0.694,2.608-1.314,4.089-1.873c1.472-0.55,3.076-0.988,4.779-1.311
	c1.711-0.327,3.514-0.492,5.407-0.492c3.737,0,7.375,0.686,10.909,2.05c3.531,1.36,6.669,3.435,9.422,6.23
	C424.359,58.63,426.542,62.206,428.154,66.575z M413.61,82.476c0-4.209-0.508-7.822-1.521-10.84
	c-1.018-3.026-2.345-5.341-3.985-6.938c-1.638-1.591-3.349-2.67-5.127-3.22c-1.777-0.555-3.547-0.831-5.3-0.831
	c-2.401,0-4.849,0.483-7.342,1.459c-2.493,0.964-4.759,2.262-6.788,3.882v32.139c0.641,0.744,1.438,1.521,2.39,2.323
	c0.942,0.811,2.009,1.546,3.188,2.216c1.174,0.67,2.455,1.232,3.841,1.662c1.389,0.446,2.86,0.661,4.436,0.661
	c2.675,0,5.022-0.546,7.032-1.629c2.009-1.091,3.691-2.621,5.052-4.605c1.372-1.984,2.394-4.349,3.088-7.103
	C413.264,88.908,413.61,85.84,413.61,82.476z M500.146,116.35h-14.833l-0.687-7.135h-0.277c-0.93,0.967-2.037,1.959-3.327,2.984
	c-1.294,1.009-2.771,1.968-4.437,2.869c-1.657,0.901-3.51,1.629-5.535,2.183c-2.038,0.554-4.233,0.827-6.59,0.827
	c-3.184,0-6.16-0.496-8.93-1.488c-2.773-0.992-5.15-2.423-7.144-4.291c-1.984-1.869-3.543-4.135-4.671-6.788
	c-1.138-2.654-1.695-5.623-1.695-8.905c0-3.604,0.653-6.838,1.968-9.698c1.314-2.861,3.154-5.292,5.507-7.276
	c2.356-1.984,5.176-3.497,8.458-4.539c3.274-1.042,6.903-1.555,10.872-1.555c2.911,0,5.59,0.19,8.037,0.555
	c2.447,0.371,4.598,0.81,6.445,1.314v-2.704c0-1.571-0.269-3.084-0.798-4.539c-0.529-1.447-1.39-2.745-2.563-3.878
	c-1.174-1.129-2.712-2.029-4.609-2.703c-1.89-0.666-4.204-1.001-6.925-1.001c-3.323,0-6.655,0.368-9.976,1.104
	c-3.328,0.744-6.924,1.856-10.811,3.328V52.197c3.373-1.48,6.949-2.608,10.74-3.394c3.783-0.786,7.756-1.208,11.915-1.252
	c4.895,0,9.178,0.607,12.853,1.802c3.671,1.203,6.742,2.853,9.215,4.957c2.473,2.1,4.316,4.585,5.54,7.45
	c1.224,2.856,1.835,5.981,1.835,9.355v25.283c0,4.432,0.05,8.244,0.141,11.427C499.955,111.017,500.046,113.853,500.146,116.35z
	 M483.308,87.742c-1.575-0.372-3.374-0.711-5.403-1.009c-2.034-0.298-4.089-0.446-6.168-0.446c-4.019,0-7.193,0.793-9.525,2.381
	c-2.331,1.596-3.506,4.035-3.506,7.31c0,1.529,0.269,2.853,0.807,3.985c0.529,1.132,1.244,2.066,2.146,2.811
	c0.901,0.736,1.951,1.29,3.15,1.662c1.203,0.372,2.472,0.554,3.812,0.554c1.662,0,3.232-0.215,4.713-0.661
	c1.476-0.43,2.836-0.992,4.084-1.662c1.249-0.67,2.365-1.414,3.365-2.249c0.984-0.835,1.832-1.637,2.526-2.423V87.742z
	 M344.658,66.601c-7.764,0-14.052,6.292-14.052,14.056s6.288,14.064,14.052,14.064c7.765,0,14.061-6.301,14.061-14.064
	S352.423,66.601,344.658,66.601z M154.677,49.82h10.527V0h-10.527V49.82z"/>
</svg>