<svg xmlns="http://www.w3.org/2000/svg" width="500" height="500" viewBox="0 0 500 500" preserveAspectRatio="true">



	<path d="M411.03,189.85c-0.04-0.03-104.88-51.86-104.88-51.86l-0.01-0.04c-5.51-2.54-17.18-7.42-30.28-9.62
		c-7.4,5.77-16.53,9.18-26.41,9.18c-9.37,0-18.06-3.07-25.24-8.31c-12.68,1.92-42.59,10.17-45.08,19.33
		c0,0-32.07,112.43-32.08,112.49c-1.72,6.59,6.06,14.33,17.37,17.27c11.31,2.94,21.86-0.01,23.58-6.6c0.01-0.02,3-12.61,6.95-29.4
		l0.08,0.54v39.17c0,0-2.4,151.35-2.4,151.43c0,8.82,12.62,15.98,27.75,15.98c15.13,0,27.38-6.85,27.38-15.67
		c0-0.09,0-127.74,0-127.74h0.16c-0.04,0-0.1-0.62-0.1-0.79c0-1.27,1.03-2.45,2.3-2.45c1.27,0,2.3,1.25,2.3,2.52
		c0,0.18-0.06,0.72-0.1,0.72h0.11c0,0-0.08,127.66-0.08,127.74c0,8.82,12.17,15.81,27.3,15.81c15.13,0,27.21-7.22,27.21-16.05
		c0-0.08-3.9-151.46-3.9-151.46s0.67-21.64,0.8-23.19l5.42-71.27c29.79,14.4,82.24,39.76,82.28,39.78
		c6.04,3.16,15.31-2.68,20.73-13.03C417.57,203.98,417.07,193.01,411.03,189.85z"/>
	<path d="M249.44,50.55c20.61,0,37.38,17.89,37.38,39.88c0,21.99-16.77,39.88-37.38,39.88
		c-20.61,0-37.38-17.89-37.38-39.88C212.06,68.44,228.83,50.55,249.44,50.55z"/>
	<path fill="#FFFFFF" d="M195,267.47v-9.96c9,11.1,30.79,19.09,54.32,19.09s45.33-8.21,54.51-18.96l-0.43,9.99
		c-12.6,9.81-31.64,16.17-54.07,16.17S207,277.28,195,267.47z"/>

</svg>
