<?xml version="1.0" standalone="no"?>
<!DOCTYPE svg PUBLIC "-//W3C//DTD SVG 20010904//EN"
 "http://www.w3.org/TR/2001/REC-SVG-20010904/DTD/svg10.dtd">
<svg version="1.0" xmlns="http://www.w3.org/2000/svg"
 width="700.000000pt" height="700.000000pt" viewBox="0 0 700.000000 700.000000"
 preserveAspectRatio="xMidYMid meet">
<metadata>
Created by potrace 1.11, written by Peter Selinger 2001-2013
</metadata>
<g transform="translate(0.000000,700.000000) scale(0.100000,-0.100000)"
fill="#000000" stroke="none">
<path d="M3263 6949 c-598 -41 -1176 -238 -1678 -572 -815 -543 -1364 -1408
-1504 -2372 -75 -509 -36 -1026 114 -1520 95 -312 241 -619 428 -900 80 -121
217 -304 228 -305 3 0 232 429 508 953 571 1082 525 1010 705 1097 164 79 436
163 688 214 42 9 88 16 101 16 13 0 61 -22 105 -49 84 -50 217 -104 305 -123
48 -10 49 -10 43 -43 -10 -50 12 -119 50 -164 l34 -40 -19 -113 c-65 -366
-248 -2007 -233 -2084 3 -20 44 -69 126 -153 148 -152 187 -181 236 -181 49 0
87 29 231 176 82 84 120 129 126 154 11 40 2 155 -53 665 -66 622 -146 1263
-180 1453 l-15 82 35 41 c38 44 58 112 49 166 -5 30 -3 32 38 43 113 28 260
93 345 151 23 15 50 26 60 24 10 -2 69 -14 129 -25 242 -48 502 -130 680 -215
168 -80 130 -21 697 -1095 274 -520 501 -946 506 -947 19 -5 258 332 356 503
63 110 175 347 224 474 170 439 252 963 223 1423 -40 648 -227 1211 -574 1732
-543 815 -1410 1365 -2372 1504 -259 38 -490 47 -742 30z m438 -653 c378 -73
711 -338 864 -689 l27 -62 103 -1 c174 -3 265 -43 265 -117 0 -69 -136 -233
-288 -348 -85 -64 -243 -142 -347 -171 -72 -20 -106 -22 -330 -24 l-250 -2
-160 -56 c-499 -178 -941 -234 -1124 -143 -57 29 -77 56 -100 142 -35 128 -44
218 -38 368 8 189 44 326 128 492 177 348 512 577 919 629 61 7 252 -3 331
-18z m697 -1596 c7 -39 12 -123 12 -188 0 -192 -45 -357 -144 -527 -50 -86
-227 -266 -308 -313 -171 -101 -316 -138 -508 -129 -175 7 -308 51 -455 150
-164 110 -313 314 -374 512 -20 63 -51 233 -51 278 0 15 13 17 143 17 254 0
484 45 863 170 l212 70 223 1 c142 1 244 6 279 14 98 22 94 24 108 -55z"/>
<path d="M4890 1535 c0 -11 -18 -198 -40 -415 -33 -325 -40 -433 -40 -607 0
-198 1 -212 18 -206 99 35 501 247 517 273 6 10 -426 944 -446 965 -6 5 -9 2
-9 -10z"/>
<path d="M2043 1430 c-11 -25 -105 -223 -207 -440 -103 -217 -184 -400 -182
-407 7 -17 173 -113 328 -188 l133 -65 3 193 c2 133 -5 306 -23 562 -14 204
-27 375 -29 380 -1 6 -12 -10 -23 -35z"/>
</g>
</svg>
